<?xml version="1.0" encoding="UTF-8"?>
<svg width="1440px" height="764px" viewBox="0 0 1440 764" version="1.1" xmlns="http://www.w3.org/2000/svg" xmlns:xlink="http://www.w3.org/1999/xlink">
    <title>ABOUT US</title>
    <g id="Page-1" stroke="none" stroke-width="1" fill="none" fill-rule="evenodd">
        <g id="Homepage-Final" transform="translate(0.000000, -1007.000000)">
            <g id="ABOUT-US" transform="translate(0.000000, 1007.000000)">
                <rect id="Rectangle" fill="#F4F5F8" x="0" y="0" width="1440" height="764"></rect>
                <g id="hook" transform="translate(804.000000, 147.000000)" fill="#32598F" fill-rule="nonzero" opacity="0.632486979">
                    <path d="M2.05,4.82 L1.79,5.09 C1.66574182,5.22900397 1.55522676,5.37970632 1.46,5.54 C1.23946181,5.889298 1.08364095,6.27546276 1,6.68 C0.943213373,7.20617507 1.00121297,7.73840667 1.17,8.24 C1.28511519,8.65411773 1.43222434,9.0586679 1.61,9.45 C1.75069474,9.75483019 1.90758529,10.0519208 2.08,10.34 L1.87,10.55 C1.6524987,10.7610897 1.52374094,11.0472181 1.51,11.35 C1.52456713,11.4909929 1.57633296,11.625584 1.66,11.74 C1.72613268,11.8141815 1.79987011,11.8812155 1.88,11.94 C2.14379269,12.0972648 2.42590543,12.2215287 2.72,12.31 C3.04022382,12.435378 3.37717745,12.5128774 3.72,12.54 C3.84981808,12.5497262 3.98018192,12.5497262 4.11,12.54 C4.20282819,12.5293946 4.29371206,12.5058321 4.38,12.47 C4.48555001,12.4346496 4.58380867,12.380438 4.67,12.31 C4.89629429,12.1330643 5.05226021,11.881392 5.11,11.6 C5.12445222,11.4804351 5.12445222,11.3595649 5.11,11.24 C5.11521343,11.1567482 5.11521343,11.0732518 5.11,10.99 C5.11,10.84 5.11,10.71 5.05,10.57 C4.99,10.43 5,10.28 5,10.14 C4.96089122,9.91209212 4.83556019,9.70798158 4.65,9.57 C4.42871151,9.46397239 4.17128849,9.46397239 3.95,9.57 C3.84,9.57 3.73,9.67 3.62,9.72 C3.58700808,9.67007603 3.5423996,9.62889898 3.49,9.6 C3.39761801,9.55258601 3.29276588,9.53511065 3.19,9.55 C2.84892471,8.94587271 2.57720119,8.30514196 2.38,7.64 C2.31262853,7.34794013 2.27576421,7.04967425 2.27,6.75 C2.29027848,6.58172905 2.32032925,6.41478034 2.36,6.25 C2.42,6.11 2.48,5.98 2.55,5.84 C2.61404206,5.75183837 2.68421578,5.66829822 2.76,5.59 L2.87,5.49 C2.98781807,5.41359929 3.11154395,5.34672044 3.24,5.29 C3.44545437,5.20978066 3.65589623,5.14297372 3.87,5.09 C4.09976741,5.07537196 4.33023259,5.07537196 4.56,5.09 C4.87894075,5.12145966 5.19387879,5.18511735 5.5,5.28 C5.94641278,5.42697166 6.37297259,5.62849598 6.77,5.88 C6.94,6.01 7.1,6.15 7.26,6.29 C7.44582143,6.4759939 7.61637202,6.67664166 7.77,6.89 C8.06,7.25 8.33,7.62 8.61,7.99 C9.22,8.8 9.85,9.59 10.43,10.41 C10.73,10.83 11.02,11.26 11.31,11.69 C11.6,12.12 11.92,12.49 12.23,12.89 L13.16,14.1 C13.46,14.5 13.72,14.93 14.01,15.35 L14.01,15.42 C13.91,15.64 13.81,15.87 13.73,16.1 C13.6950922,16.2010295 13.6683398,16.3046949 13.65,16.41 C13.65,16.51 13.65,16.6 13.65,16.7 C13.6515279,16.92297 13.6956527,17.1435938 13.78,17.35 C13.9117409,17.7421444 14.1819507,18.0727958 14.54,18.28 C14.7029551,18.3665915 14.8783842,18.427317 15.06,18.46 C15.3314397,18.5055012 15.6085603,18.5055012 15.88,18.46 C16.367531,18.4067901 16.8380492,18.2499507 17.26,18 C17.688305,17.7415017 18.0619727,17.4018038 18.36,17 C18.648874,16.6601018 18.8665139,16.2656295 19,15.84 C19.0558375,15.6542062 19.0926927,15.4632295 19.11,15.27 C19.1393831,14.9893345 19.1052049,14.7056549 19.01,14.44 C18.9374139,14.2455765 18.8250132,14.0684602 18.68,13.92 L18.46,13.73 C18.3297385,13.6481429 18.1925458,13.5778735 18.05,13.52 C17.809689,13.4313537 17.5561081,13.3840186 17.3,13.38 C16.8827788,13.3584376 16.4659994,13.4301783 16.08,13.59 C15.878668,13.6731678 15.6817418,13.7666243 15.49,13.87 C15.3112881,13.9659129 15.1407195,14.0762807 14.98,14.2 L14.88,14.27 C14.81,14.17 14.76,14.07 14.69,13.98 C14.62,13.89 14.4,13.54 14.24,13.33 C13.96,12.93 13.66,12.55 13.36,12.16 C13.06,11.77 12.72,11.37 12.42,10.95 C12.12,10.53 11.85,10.11 11.56,9.7 C10.96,8.86 10.34,8.05 9.72,7.23 L8.83,6.1 C8.58282559,5.78018814 8.30482318,5.48543859 8,5.22 C8.02981174,5.11201986 8.02981174,4.99798014 8,4.89 C8,4.78 7.93,4.66 7.89,4.55 C7.8211438,4.22131128 7.7909389,3.88570128 7.8,3.55 C7.81105853,3.42867989 7.83111371,3.30834882 7.86,3.19 C7.92444307,3.02764159 8.00133874,2.87050695 8.09,2.72 C8.23,2.52 8.38,2.33 8.54,2.14 C8.68326538,1.98935638 8.83698032,1.84900796 9,1.72 C9.18060531,1.59451786 9.37125143,1.48414379 9.57,1.39 C9.77792704,1.30179285 9.99178519,1.22827911 10.21,1.17 C10.3598354,1.16006264 10.5101646,1.16006264 10.66,1.17 C10.9172039,1.18645365 11.1719504,1.23002872 11.42,1.3 C11.6482929,1.39542716 11.8633856,1.51977758 12.06,1.67 C12.217218,1.80206089 12.367423,1.94225228 12.51,2.09 L12.79,2.37 L12.61,2.6 C12.4784872,2.75142676 12.3675296,2.91954432 12.28,3.1 C12.2160786,3.25707934 12.2160786,3.43292066 12.28,3.59 C12.3222733,3.71000256 12.4078746,3.8098707 12.52,3.87 C12.9074449,4.01446847 13.31657,4.09223605 13.73,4.1 C13.9492832,4.12511605 14.1707168,4.12511605 14.39,4.1 C14.7581273,4.04122783 15.0808115,3.82121588 15.27,3.5 C15.3882511,3.27609091 15.4629069,3.03176291 15.49,2.78 C15.5204062,2.59795177 15.5404385,2.41432219 15.55,2.23 C15.5870005,1.89460973 15.5598511,1.55524215 15.47,1.23 C15.435263,1.10290006 15.3700443,0.986192952 15.28,0.89 C15.202414,0.812901945 15.1058128,0.757701229 15,0.73 L14.8,0.73 L14.58,0.78 C14.4531197,0.8176251 14.3344072,0.878677264 14.23,0.96 L14,1.13 C13.9131458,1.19548619 13.8327774,1.26915729 13.76,1.35 C13.2925839,0.79826942 12.6843483,0.383563296 12,0.15 C11.4050862,-0.027775751 10.7737335,-0.045025823 10.17,0.1 C9.65966413,0.23672457 9.17142098,0.44549061 8.72,0.72 C8.35375349,0.942700311 8.01766417,1.21157176 7.72,1.52 C7.3980893,1.87359446 7.12253772,2.26675952 6.9,2.69 C6.69985443,3.09752547 6.59715315,3.54598772 6.6,4 C6.6,4.11 6.6,4.21 6.6,4.32 L6.4,4.23 C5.98581564,4.04307987 5.54280915,3.92810108 5.09,3.89 C4.46134594,3.82273911 3.82561529,3.89793306 3.23,4.11 C3.09662461,4.15470343 2.966342,4.2081527 2.84,4.27 C2.71520996,4.31989945 2.59479358,4.38010763 2.48,4.45 C2.32095373,4.55379985 2.17636213,4.67821587 2.05,4.82 Z M3.24,10.93 C3.42599668,10.8808029 3.60682952,10.8138278 3.78,10.73 L3.83,10.9 C3.83,11.06 3.83,11.22 3.9,11.38 C3.69891888,11.3399589 3.50155791,11.2830922 3.31,11.21 C3.1456865,11.150305 2.98535924,11.0801618 2.83,11 L2.83,11 C2.96902761,10.9936376 3.10673696,10.9701263 3.24,10.93 Z M16.14,14.66 L16.56,14.52 C16.6831366,14.5101495 16.8068634,14.5101495 16.93,14.52 C17.0482149,14.5295827 17.1653432,14.5496618 17.28,14.58 C17.3907982,14.6285219 17.4977696,14.6853505 17.6,14.75 C17.644854,14.7848321 17.6851679,14.825146 17.72,14.87 C17.7782135,14.9760784 17.8283553,15.0863904 17.87,15.2 C17.8747501,15.2732564 17.8747501,15.3467436 17.87,15.42 C17.854512,15.5791002 17.8243844,15.7364331 17.78,15.89 C17.734937,16.007044 17.681464,16.1206741 17.62,16.23 C17.4877811,16.4307267 17.3407024,16.6212605 17.18,16.8 L16.91,17.04 L16.64,17.19 L16.31,17.3 C16.1434805,17.3099058 15.9765195,17.3099058 15.81,17.3 C15.6950516,17.2905845 15.581228,17.270498 15.47,17.24 L15.25,17.13 C15.1682179,17.0515221 15.0914025,16.9680271 15.02,16.88 C15.02,16.77 14.92,16.66 14.88,16.55 C14.8701203,16.4302034 14.8701203,16.3097966 14.88,16.19 C14.8752114,16.146799 14.8752114,16.103201 14.88,16.06 C14.98,15.83 15.08,15.59 15.19,15.35 L15.19,15.35 C15.26,15.28 15.32,15.2 15.39,15.12 L15.55,14.99 C15.7361252,14.8621308 15.933625,14.7516649 16.14,14.66 L16.14,14.66 Z M14.35,2.13 C14.35,2.23 14.35,2.33 14.35,2.43 C14.35,2.53 14.35,2.78 14.28,2.96 C14.08,2.96 13.88,2.96 13.68,2.9 L14,2.6 C14.0723281,2.5113518 14.1266756,2.40945019 14.16,2.3 C14.2320439,2.26973399 14.2993917,2.22932532 14.36,2.18 L14.35,2.13 Z" id="Shape"></path>
                </g>
                <g id="hook-copy-2" transform="translate(1304.000000, 36.500000) rotate(52.000000) translate(-1304.000000, -36.500000) translate(1294.000000, 27.000000)" fill="#32598F" fill-rule="nonzero" opacity="0.632486979">
                    <path d="M2.05,4.82 L1.79,5.09 C1.66574182,5.22900397 1.55522676,5.37970632 1.46,5.54 C1.23946181,5.889298 1.08364095,6.27546276 1,6.68 C0.943213373,7.20617507 1.00121297,7.73840667 1.17,8.24 C1.28511519,8.65411773 1.43222434,9.0586679 1.61,9.45 C1.75069474,9.75483019 1.90758529,10.0519208 2.08,10.34 L1.87,10.55 C1.6524987,10.7610897 1.52374094,11.0472181 1.51,11.35 C1.52456713,11.4909929 1.57633296,11.625584 1.66,11.74 C1.72613268,11.8141815 1.79987011,11.8812155 1.88,11.94 C2.14379269,12.0972648 2.42590543,12.2215287 2.72,12.31 C3.04022382,12.435378 3.37717745,12.5128774 3.72,12.54 C3.84981808,12.5497262 3.98018192,12.5497262 4.11,12.54 C4.20282819,12.5293946 4.29371206,12.5058321 4.38,12.47 C4.48555001,12.4346496 4.58380867,12.380438 4.67,12.31 C4.89629429,12.1330643 5.05226021,11.881392 5.11,11.6 C5.12445222,11.4804351 5.12445222,11.3595649 5.11,11.24 C5.11521343,11.1567482 5.11521343,11.0732518 5.11,10.99 C5.11,10.84 5.11,10.71 5.05,10.57 C4.99,10.43 5,10.28 5,10.14 C4.96089122,9.91209212 4.83556019,9.70798158 4.65,9.57 C4.42871151,9.46397239 4.17128849,9.46397239 3.95,9.57 C3.84,9.57 3.73,9.67 3.62,9.72 C3.58700808,9.67007603 3.5423996,9.62889898 3.49,9.6 C3.39761801,9.55258601 3.29276588,9.53511065 3.19,9.55 C2.84892471,8.94587271 2.57720119,8.30514196 2.38,7.64 C2.31262853,7.34794013 2.27576421,7.04967425 2.27,6.75 C2.29027848,6.58172905 2.32032925,6.41478034 2.36,6.25 C2.42,6.11 2.48,5.98 2.55,5.84 C2.61404206,5.75183837 2.68421578,5.66829822 2.76,5.59 L2.87,5.49 C2.98781807,5.41359929 3.11154395,5.34672044 3.24,5.29 C3.44545437,5.20978066 3.65589623,5.14297372 3.87,5.09 C4.09976741,5.07537196 4.33023259,5.07537196 4.56,5.09 C4.87894075,5.12145966 5.19387879,5.18511735 5.5,5.28 C5.94641278,5.42697166 6.37297259,5.62849598 6.77,5.88 C6.94,6.01 7.1,6.15 7.26,6.29 C7.44582143,6.4759939 7.61637202,6.67664166 7.77,6.89 C8.06,7.25 8.33,7.62 8.61,7.99 C9.22,8.8 9.85,9.59 10.43,10.41 C10.73,10.83 11.02,11.26 11.31,11.69 C11.6,12.12 11.92,12.49 12.23,12.89 L13.16,14.1 C13.46,14.5 13.72,14.93 14.01,15.35 L14.01,15.42 C13.91,15.64 13.81,15.87 13.73,16.1 C13.6950922,16.2010295 13.6683398,16.3046949 13.65,16.41 C13.65,16.51 13.65,16.6 13.65,16.7 C13.6515279,16.92297 13.6956527,17.1435938 13.78,17.35 C13.9117409,17.7421444 14.1819507,18.0727958 14.54,18.28 C14.7029551,18.3665915 14.8783842,18.427317 15.06,18.46 C15.3314397,18.5055012 15.6085603,18.5055012 15.88,18.46 C16.367531,18.4067901 16.8380492,18.2499507 17.26,18 C17.688305,17.7415017 18.0619727,17.4018038 18.36,17 C18.648874,16.6601018 18.8665139,16.2656295 19,15.84 C19.0558375,15.6542062 19.0926927,15.4632295 19.11,15.27 C19.1393831,14.9893345 19.1052049,14.7056549 19.01,14.44 C18.9374139,14.2455765 18.8250132,14.0684602 18.68,13.92 L18.46,13.73 C18.3297385,13.6481429 18.1925458,13.5778735 18.05,13.52 C17.809689,13.4313537 17.5561081,13.3840186 17.3,13.38 C16.8827788,13.3584376 16.4659994,13.4301783 16.08,13.59 C15.878668,13.6731678 15.6817418,13.7666243 15.49,13.87 C15.3112881,13.9659129 15.1407195,14.0762807 14.98,14.2 L14.88,14.27 C14.81,14.17 14.76,14.07 14.69,13.98 C14.62,13.89 14.4,13.54 14.24,13.33 C13.96,12.93 13.66,12.55 13.36,12.16 C13.06,11.77 12.72,11.37 12.42,10.95 C12.12,10.53 11.85,10.11 11.56,9.7 C10.96,8.86 10.34,8.05 9.72,7.23 L8.83,6.1 C8.58282559,5.78018814 8.30482318,5.48543859 8,5.22 C8.02981174,5.11201986 8.02981174,4.99798014 8,4.89 C8,4.78 7.93,4.66 7.89,4.55 C7.8211438,4.22131128 7.7909389,3.88570128 7.8,3.55 C7.81105853,3.42867989 7.83111371,3.30834882 7.86,3.19 C7.92444307,3.02764159 8.00133874,2.87050695 8.09,2.72 C8.23,2.52 8.38,2.33 8.54,2.14 C8.68326538,1.98935638 8.83698032,1.84900796 9,1.72 C9.18060531,1.59451786 9.37125143,1.48414379 9.57,1.39 C9.77792704,1.30179285 9.99178519,1.22827911 10.21,1.17 C10.3598354,1.16006264 10.5101646,1.16006264 10.66,1.17 C10.9172039,1.18645365 11.1719504,1.23002872 11.42,1.3 C11.6482929,1.39542716 11.8633856,1.51977758 12.06,1.67 C12.217218,1.80206089 12.367423,1.94225228 12.51,2.09 L12.79,2.37 L12.61,2.6 C12.4784872,2.75142676 12.3675296,2.91954432 12.28,3.1 C12.2160786,3.25707934 12.2160786,3.43292066 12.28,3.59 C12.3222733,3.71000256 12.4078746,3.8098707 12.52,3.87 C12.9074449,4.01446847 13.31657,4.09223605 13.73,4.1 C13.9492832,4.12511605 14.1707168,4.12511605 14.39,4.1 C14.7581273,4.04122783 15.0808115,3.82121588 15.27,3.5 C15.3882511,3.27609091 15.4629069,3.03176291 15.49,2.78 C15.5204062,2.59795177 15.5404385,2.41432219 15.55,2.23 C15.5870005,1.89460973 15.5598511,1.55524215 15.47,1.23 C15.435263,1.10290006 15.3700443,0.986192952 15.28,0.89 C15.202414,0.812901945 15.1058128,0.757701229 15,0.73 L14.8,0.73 L14.58,0.78 C14.4531197,0.8176251 14.3344072,0.878677264 14.23,0.96 L14,1.13 C13.9131458,1.19548619 13.8327774,1.26915729 13.76,1.35 C13.2925839,0.79826942 12.6843483,0.383563296 12,0.15 C11.4050862,-0.027775751 10.7737335,-0.045025823 10.17,0.1 C9.65966413,0.23672457 9.17142098,0.44549061 8.72,0.72 C8.35375349,0.942700311 8.01766417,1.21157176 7.72,1.52 C7.3980893,1.87359446 7.12253772,2.26675952 6.9,2.69 C6.69985443,3.09752547 6.59715315,3.54598772 6.6,4 C6.6,4.11 6.6,4.21 6.6,4.32 L6.4,4.23 C5.98581564,4.04307987 5.54280915,3.92810108 5.09,3.89 C4.46134594,3.82273911 3.82561529,3.89793306 3.23,4.11 C3.09662461,4.15470343 2.966342,4.2081527 2.84,4.27 C2.71520996,4.31989945 2.59479358,4.38010763 2.48,4.45 C2.32095373,4.55379985 2.17636213,4.67821587 2.05,4.82 Z M3.24,10.93 C3.42599668,10.8808029 3.60682952,10.8138278 3.78,10.73 L3.83,10.9 C3.83,11.06 3.83,11.22 3.9,11.38 C3.69891888,11.3399589 3.50155791,11.2830922 3.31,11.21 C3.1456865,11.150305 2.98535924,11.0801618 2.83,11 L2.83,11 C2.96902761,10.9936376 3.10673696,10.9701263 3.24,10.93 Z M16.14,14.66 L16.56,14.52 C16.6831366,14.5101495 16.8068634,14.5101495 16.93,14.52 C17.0482149,14.5295827 17.1653432,14.5496618 17.28,14.58 C17.3907982,14.6285219 17.4977696,14.6853505 17.6,14.75 C17.644854,14.7848321 17.6851679,14.825146 17.72,14.87 C17.7782135,14.9760784 17.8283553,15.0863904 17.87,15.2 C17.8747501,15.2732564 17.8747501,15.3467436 17.87,15.42 C17.854512,15.5791002 17.8243844,15.7364331 17.78,15.89 C17.734937,16.007044 17.681464,16.1206741 17.62,16.23 C17.4877811,16.4307267 17.3407024,16.6212605 17.18,16.8 L16.91,17.04 L16.64,17.19 L16.31,17.3 C16.1434805,17.3099058 15.9765195,17.3099058 15.81,17.3 C15.6950516,17.2905845 15.581228,17.270498 15.47,17.24 L15.25,17.13 C15.1682179,17.0515221 15.0914025,16.9680271 15.02,16.88 C15.02,16.77 14.92,16.66 14.88,16.55 C14.8701203,16.4302034 14.8701203,16.3097966 14.88,16.19 C14.8752114,16.146799 14.8752114,16.103201 14.88,16.06 C14.98,15.83 15.08,15.59 15.19,15.35 L15.19,15.35 C15.26,15.28 15.32,15.2 15.39,15.12 L15.55,14.99 C15.7361252,14.8621308 15.933625,14.7516649 16.14,14.66 L16.14,14.66 Z M14.35,2.13 C14.35,2.23 14.35,2.33 14.35,2.43 C14.35,2.53 14.35,2.78 14.28,2.96 C14.08,2.96 13.88,2.96 13.68,2.9 L14,2.6 C14.0723281,2.5113518 14.1266756,2.40945019 14.16,2.3 C14.2320439,2.26973399 14.2993917,2.22932532 14.36,2.18 L14.35,2.13 Z" id="Shape"></path>
                </g>
                <g id="hook-copy" transform="translate(1391.500000, 643.625000) rotate(176.000000) translate(-1391.500000, -643.625000) translate(1374.000000, 627.000000)" fill="#32598F" fill-rule="nonzero" opacity="0.632486979">
                    <path d="M3.5875,8.435 L3.1325,8.9075 C2.91504818,9.15075695 2.72164683,9.41448606 2.555,9.695 C2.16905817,10.3062715 1.89637165,10.9820598 1.75,11.69 C1.6506234,12.6108064 1.7521227,13.5422117 2.0475,14.42 C2.24895158,15.144706 2.5063926,15.8526688 2.8175,16.5375 C3.0637158,17.0709528 3.33827425,17.5908614 3.64,18.095 L3.2725,18.4625 C2.89187273,18.831907 2.66654664,19.3326317 2.6425,19.8625 C2.66799248,20.1092375 2.75858268,20.344772 2.905,20.545 C3.0207322,20.6748175 3.14977269,20.7921271 3.29,20.895 C3.75163721,21.1702133 4.2453345,21.3876752 4.76,21.5425 C5.32039168,21.7619115 5.91006053,21.8975354 6.51,21.945 C6.73718164,21.9620209 6.96531836,21.9620209 7.1925,21.945 C7.35494933,21.9264405 7.5139961,21.8852061 7.665,21.8225 C7.84971252,21.7606369 8.02166517,21.6657664 8.1725,21.5425 C8.56851501,21.2328625 8.84145537,20.792436 8.9425,20.3 C8.96779138,20.0907615 8.96779138,19.8792385 8.9425,19.67 C8.9516235,19.5243094 8.9516235,19.3781906 8.9425,19.2325 C8.9425,18.97 8.9425,18.7425 8.8375,18.4975 C8.7325,18.2525 8.75,17.99 8.75,17.745 C8.68155963,17.3461612 8.46223032,16.9889678 8.1375,16.7475 C7.75024514,16.5619517 7.29975486,16.5619517 6.9125,16.7475 C6.72,16.7475 6.5275,16.9225 6.335,17.01 C6.27726414,16.9226331 6.19919931,16.8505732 6.1075,16.8 C5.94583152,16.7170255 5.76234029,16.6864436 5.5825,16.7125 C4.98561823,15.6552772 4.51010208,14.5339984 4.165,13.37 C4.04709993,12.8588952 3.98258737,12.3369299 3.9725,11.8125 C4.00798734,11.5180258 4.06057619,11.2258656 4.13,10.9375 C4.235,10.6925 4.34,10.465 4.4625,10.22 C4.5745736,10.0657171 4.69737762,9.91952188 4.83,9.7825 L5.0225,9.6075 C5.22868162,9.47379876 5.44520191,9.35676077 5.67,9.2575 C6.02954514,9.11711615 6.3978184,9.000204 6.7725,8.9075 C7.17459297,8.88190093 7.57790703,8.88190093 7.98,8.9075 C8.53814631,8.9625544 9.08928789,9.07395536 9.625,9.24 C10.4062224,9.4972004 11.152702,9.84986797 11.8475,10.29 C12.145,10.5175 12.425,10.7625 12.705,11.0075 C13.0301875,11.3329893 13.328651,11.6841229 13.5975,12.0575 C14.105,12.6875 14.5775,13.335 15.0675,13.9825 C16.135,15.4 17.2375,16.7825 18.2525,18.2175 C18.7775,18.9525 19.285,19.705 19.7925,20.4575 C20.3,21.21 20.86,21.8575 21.4025,22.5575 L23.03,24.675 C23.555,25.375 24.01,26.1275 24.5175,26.8625 L24.5175,26.985 C24.3425,27.37 24.1675,27.7725 24.0275,28.175 C23.9664113,28.3518016 23.9195947,28.5332161 23.8875,28.7175 C23.8875,28.8925 23.8875,29.05 23.8875,29.225 C23.8901739,29.6151976 23.9673922,30.0012892 24.115,30.3625 C24.3455466,31.0487527 24.8184136,31.6273927 25.445,31.99 C25.7301715,32.1415352 26.0371724,32.2478048 26.355,32.305 C26.8300195,32.3846272 27.3149805,32.3846272 27.79,32.305 C28.6431793,32.2118826 29.4665861,31.9374137 30.205,31.5 C30.9545337,31.047628 31.6084523,30.4531566 32.13,29.75 C32.6355296,29.1551781 33.0163994,28.4648516 33.25,27.72 C33.3477157,27.3948608 33.4122122,27.0606516 33.4425,26.7225 C33.4939205,26.2313355 33.4341085,25.734896 33.2675,25.27 C33.1404743,24.9297588 32.943773,24.6198054 32.69,24.36 L32.305,24.0275 C32.0770424,23.8842501 31.8369551,23.7612785 31.5875,23.66 C31.1669558,23.504869 30.7231892,23.4220326 30.275,23.415 C29.5448629,23.3772658 28.8154989,23.5028121 28.14,23.7825 C27.7876691,23.9280437 27.4430482,24.0915926 27.1075,24.2725 C26.7947541,24.4403475 26.4962592,24.6334913 26.215,24.85 L26.04,24.9725 C25.9175,24.7975 25.83,24.6225 25.7075,24.465 C25.585,24.3075 25.2,23.695 24.92,23.3275 C24.43,22.6275 23.905,21.9625 23.38,21.28 C22.855,20.5975 22.26,19.8975 21.735,19.1625 C21.21,18.4275 20.7375,17.6925 20.23,16.975 C19.18,15.505 18.095,14.0875 17.01,12.6525 L15.4525,10.675 C15.0199448,10.1153292 14.5334406,9.59951753 14,9.135 C14.0521705,8.94603476 14.0521705,8.74646524 14,8.5575 C14,8.365 13.8775,8.155 13.8075,7.9625 C13.6870017,7.38729473 13.6341431,6.79997724 13.65,6.2125 C13.6693524,6.00018981 13.704449,5.78961043 13.755,5.5825 C13.8677754,5.29837278 14.0023428,5.02338717 14.1575,4.76 C14.4025,4.41 14.665,4.0775 14.945,3.745 C15.1957144,3.48137366 15.4647156,3.23576392 15.75,3.01 C16.0660593,2.79040625 16.39969,2.59725163 16.7475,2.4325 C17.1113723,2.27813749 17.4856241,2.14948845 17.8675,2.0475 C18.129712,2.03010962 18.392788,2.03010962 18.655,2.0475 C19.1051068,2.07629389 19.5509133,2.15255026 19.985,2.275 C20.3845127,2.44199752 20.7609247,2.65961076 21.105,2.9225 C21.3801315,3.15360656 21.6429903,3.3989415 21.8925,3.6575 L22.3825,4.1475 L22.0675,4.55 C21.8373526,4.81499684 21.6431768,5.10920256 21.49,5.425 C21.3781376,5.69988884 21.3781376,6.00761116 21.49,6.2825 C21.5639783,6.49250448 21.7137805,6.66727373 21.91,6.7725 C22.5880285,7.02531982 23.3039975,7.16141309 24.0275,7.175 C24.4112455,7.21895309 24.7987545,7.21895309 25.1825,7.175 C25.8267229,7.07214871 26.3914202,6.68712779 26.7225,6.125 C26.9294394,5.73315909 27.060087,5.30558508 27.1075,4.865 C27.1607108,4.5464156 27.1957674,4.22506383 27.2125,3.9025 C27.2772508,3.31556702 27.2297394,2.72167377 27.0725,2.1525 C27.0117102,1.93007511 26.8975775,1.72583767 26.74,1.5575 C26.6042245,1.4225784 26.4351723,1.32597715 26.25,1.2775 L25.9,1.2775 L25.515,1.365 C25.2929595,1.43084392 25.0852126,1.53768521 24.9025,1.68 L24.5,1.9775 C24.3480052,2.09210083 24.2073604,2.22102525 24.08,2.3625 C23.2620219,1.39697149 22.1976095,0.671235769 21,0.2625 C19.9589008,-0.0486075643 18.8540337,-0.0787951903 17.7975,0.175 C16.9044122,0.414267998 16.0499867,0.779608568 15.26,1.26 C14.6190686,1.64972554 14.0309123,2.12025058 13.51,2.66 C12.9466563,3.2787903 12.464441,3.96682916 12.075,4.7075 C11.7247453,5.42066957 11.545018,6.20547851 11.55,7 C11.55,7.1925 11.55,7.3675 11.55,7.56 L11.2,7.4025 C10.4751774,7.07538977 9.69991602,6.8741769 8.9075,6.8075 C7.80735539,6.68979345 6.69482675,6.82138286 5.6525,7.1925 C5.41909307,7.270731 5.19109851,7.36426723 4.97,7.4725 C4.75161742,7.55982403 4.54088877,7.66518836 4.34,7.7875 C4.06166902,7.96914974 3.80863373,8.18687778 3.5875,8.435 Z M5.67,19.1275 C5.9954942,19.0414052 6.31195167,18.9241987 6.615,18.7775 L6.7025,19.075 C6.7025,19.355 6.7025,19.635 6.825,19.915 C6.47310805,19.8449281 6.12772634,19.7454114 5.7925,19.6175 C5.50495138,19.5130338 5.22437868,19.3902832 4.9525,19.25 L4.9525,19.25 C5.19579831,19.2388658 5.43678968,19.197721 5.67,19.1275 Z M28.245,25.655 L28.98,25.41 C29.1954891,25.3927617 29.4120109,25.3927617 29.6275,25.41 C29.8343761,25.4267697 30.0393505,25.4619082 30.24,25.515 C30.4338968,25.5999133 30.6210969,25.6993634 30.8,25.8125 C30.8784945,25.8734562 30.9490438,25.9440055 31.01,26.0225 C31.1118735,26.2081372 31.1996217,26.4011831 31.2725,26.6 C31.2808126,26.7281987 31.2808126,26.8568013 31.2725,26.985 C31.245396,27.2634254 31.1926727,27.538758 31.115,27.8075 C31.0361397,28.0123271 30.942562,28.2111796 30.835,28.4025 C30.6036169,28.7537718 30.3462292,29.0872059 30.065,29.4 L29.5925,29.82 L29.12,30.0825 L28.5425,30.275 C28.2510909,30.2923352 27.9589091,30.2923352 27.6675,30.275 C27.4663402,30.2585228 27.267149,30.2233714 27.0725,30.17 L26.6875,29.9775 C26.5443813,29.8401636 26.4099544,29.6940475 26.285,29.54 C26.285,29.3475 26.11,29.155 26.04,28.9625 C26.0227105,28.7528559 26.0227105,28.5421441 26.04,28.3325 C26.03162,28.2568982 26.03162,28.1806018 26.04,28.105 C26.215,27.7025 26.39,27.2825 26.5825,26.8625 L26.5825,26.8625 C26.705,26.74 26.81,26.6 26.9325,26.46 L27.2125,26.2325 C27.5382191,26.008729 27.8838437,25.8154135 28.245,25.655 L28.245,25.655 Z M25.1125,3.7275 C25.1125,3.9025 25.1125,4.0775 25.1125,4.2525 C25.1125,4.4275 25.1125,4.865 24.99,5.18 C24.64,5.18 24.29,5.18 23.94,5.075 L24.5,4.55 C24.6265742,4.39486565 24.7216823,4.21653783 24.78,4.025 C24.9060768,3.97203448 25.0239354,3.90131932 25.13,3.815 L25.1125,3.7275 Z" id="Shape"></path>
                </g>
            </g>
        </g>
    </g>
</svg>