<?xml version="1.0" encoding="UTF-8"?>
<svg width="1439px" height="814px" viewBox="0 0 1439 814" version="1.1" xmlns="http://www.w3.org/2000/svg" xmlns:xlink="http://www.w3.org/1999/xlink">
    <title>CONTACT</title>
    <defs>
        <rect id="path-1" x="0" y="0" width="1439" height="814"></rect>
    </defs>
    <g id="Page-1" stroke="none" stroke-width="1" fill="none" fill-rule="evenodd">
        <g id="Homepage-Final" transform="translate(-1.000000, -5190.000000)">
            <g id="CONTACT" transform="translate(1.000000, 5190.000000)">
                <mask id="mask-2" fill="white">
                    <use xlink:href="#path-1"></use>
                </mask>
                <use id="Mask" fill="#F5F6F9" xlink:href="#path-1"></use>
                <g id="rod" opacity="0.389082606" mask="url(#mask-2)" fill-rule="nonzero">
                    <g transform="translate(1369.456090, 419.007961) scale(-1, 1) rotate(-2.000000) translate(-1369.456090, -419.007961) translate(1333.456090, 38.007961)">
                        <path d="M61.7368421,652.732632 C60.9852632,652.732632 60.2068421,653.001053 59.4284211,653.054737 C58.6326268,653.095495 57.8352679,653.095495 57.0394737,653.054737 C56.2342105,653.054737 55.4289474,653.054737 54.6505263,653.054737 C53.8721053,653.054737 53.0936842,652.84 52.3421053,652.732632 C50.9668618,652.487226 49.618508,652.109687 48.3157895,651.605263 L47.7789474,651.417368 C42.9205263,657.403158 37.5521053,650.907368 37.5521053,650.907368 C36.5857895,649.833684 35.7,648.921053 34.8678947,648.223158 C31.9056801,645.386282 27.9641612,643.800061 23.8626316,643.794211 C23.1895397,643.798915 22.5354109,643.571392 22.0105263,643.15 C21.5157814,642.760462 21.1737339,642.209385 21.0442105,641.593158 L18.7894737,631.876316 C18.6904479,631.46727 18.3245451,631.178983 17.9036842,631.178421 C17.4101644,631.192943 17.0176811,631.597319 17.0178947,632.091053 L17.0178947,659.255263 C16.9585968,659.744471 17.3071078,660.189123 17.7963158,660.248421 C18.2855238,660.307719 18.7301757,659.959208 18.7894737,659.47 L21.1515789,649.833684 C21.2811023,649.217457 21.6231498,648.66638 22.1178947,648.276842 C22.6402416,647.847734 23.2940162,647.610859 23.97,647.605789 C27.0328907,647.603088 29.9330927,648.984137 31.8615789,651.363684 C32.9889474,652.759474 34.3847368,654.423684 35.9415789,656.195263 L37.3373684,657.778947 C39.5652632,660.248421 42.0078947,662.825263 44.4505263,665.08 L44.7189474,665.321579 L44.9873684,665.563158 L46.7052632,667.039474 C47.3763158,667.603158 48.0473684,668.113158 48.6915789,668.596316 C49.2903232,669.056519 49.9179232,669.477907 50.5705263,669.857895 L51,670.126316 L51.4294737,670.367895 C51.7784211,670.582632 52.1542105,670.743684 52.5031579,670.931579 C55.1586911,672.404997 58.1648531,673.128702 61.2,673.025263 C65.2923595,672.628649 68.3457012,669.078252 68.1252632,664.972632 C68.1202295,664.602031 68.0752323,664.233054 67.9910526,663.872105 C67.9721364,663.670272 67.9270203,663.471761 67.8568421,663.281579 C67.6956669,662.631793 67.6145388,661.964739 67.6152632,661.295263 L66.8368421,651.175789 L65.6826316,651.632105 C64.4047845,652.121855 63.0837025,652.49032 61.7368421,652.732632 Z" id="Path" fill="#32598F"></path>
                        <path d="M65.4410526,645.941579 L65.4410526,641.942105 L48.3157895,641.942105 L48.3157895,645.941579 C53.8832292,647.735771 59.8736129,647.735771 65.4410526,645.941579 Z" id="Path" fill="#32598F"></path>
                        <path d="M49.4163158,640.922105 L64.4210526,640.922105 C65.4439421,640.922105 66.2731579,640.092889 66.2731579,639.07 L66.2731579,633.701579 C66.2731579,630.63291 63.7855106,628.145263 60.7168421,628.145263 L53.1205263,628.145263 C50.0518578,628.145263 47.5642105,630.63291 47.5642105,633.701579 L47.5642105,639.07 C47.5642105,640.092889 48.3934263,640.922105 49.4163158,640.922105 L49.4163158,640.922105 Z" id="Path" fill="#32598F"></path>
                        <path d="M56.9321053,615.690526 C57.4701009,615.705072 57.8986177,616.145492 57.8984211,616.683684 L57.8984211,616.952105 C59.694451,616.976263 61.487301,617.110727 63.2668421,617.354737 C64.22364,617.50752 65.0238368,618.164092 65.3605263,619.072632 C65.4196676,619.275402 65.3798891,619.494183 65.2531579,619.663158 C65.1264267,619.832133 64.9275345,619.931579 64.7163158,619.931579 L62.5689474,619.931579 L62.5689474,627.178947 L51.3489474,627.178947 L51.3489474,619.931579 L49.2015789,619.931579 C48.9903602,619.931579 48.7914681,619.832133 48.6647368,619.663158 C48.5380056,619.494183 48.4982272,619.275402 48.5573684,619.072632 C48.8940579,618.164092 49.6942547,617.50752 50.6510526,617.354737 C52.4305937,617.110727 54.2234437,616.976263 56.0194737,616.952105 L56.0194737,616.683684 C56.0177666,616.165146 56.4152716,615.732567 56.9321053,615.690526 Z" id="Path" fill="#32598F"></path>
                        <polygon id="Path" fill="#F5F6F9" points="51.3489474 622.723158 62.5152632 622.723158 62.5152632 624.414211 51.3489474 624.414211"></polygon>
                        <path d="M35.5121053,622.454737 L35.5121053,631.097895 C35.4895668,631.678387 35.8663454,632.199228 36.4247368,632.359474 L42.2494737,634.238421 C42.9400688,634.548533 43.7408845,634.486744 44.3757336,634.074363 C45.0105827,633.661983 45.392587,632.955445 45.39,632.198421 C45.3565887,631.277541 44.790709,630.460159 43.9405263,630.104737 L40.3436842,628.494211 C39.8392047,628.285725 39.3892525,627.96433 39.0284211,627.554737 C38.3317211,626.833722 37.9378663,625.8731 37.9278947,624.870526 L37.9278947,624.145789 L62.3005263,624.145789 C64.9083764,624.139012 67.2971313,625.603422 68.4742105,627.930526 L69.2526316,629.487368 C68.6334209,629.785708 68.2157992,630.386676 68.1521053,631.071053 L66.5684211,646.693158 C60.3325789,648.893265 53.5316316,648.893265 47.2957895,646.693158 L45.9805263,633.808947 C45.7355881,634.292184 45.3646177,634.700252 44.9068421,634.99 C44.1080493,635.498408 43.1248631,635.626222 42.2226316,635.338947 L43.5378947,648.330526 C43.6082163,649.065316 44.0855023,649.698239 44.7726316,649.967895 L44.7726316,649.967895 C45.8351185,650.423401 46.9296454,650.800205 48.0473684,651.095263 C54.1393351,652.837299 60.6097819,652.743931 66.6489474,650.826842 C67.4630394,650.59261 68.2610387,650.305689 69.0378947,649.967895 L69.0378947,649.967895 C69.725024,649.698239 70.2023101,649.065316 70.2726316,648.330526 L71.9905263,631.473684 C72.00365,631.402707 72.00365,631.329925 71.9905263,631.258947 C71.981336,630.241602 71.2049337,629.395671 70.1921053,629.299474 L70.1921053,629.299474 L69.2794737,627.474211 C67.903408,624.84198 65.1900826,623.180971 62.22,623.152632 L37.9278947,623.152632 L37.9278947,622.535263 C37.9221908,622.215567 37.7978159,621.909414 37.5789474,621.676316 L37.5789474,621.676316 C37.2438102,621.335778 36.739438,621.22479 36.2923085,621.393189 C35.8451789,621.561589 35.5393334,621.977723 35.5121053,622.454737 L35.5121053,622.454737 Z" id="Path" fill="#32598F"></path>
                        <path d="M25.1242105,680.594737 C24.3467172,681.291788 24.2635161,682.480375 24.9363158,683.278947 L24.9363158,683.278947 C25.2053318,683.540316 25.5559278,683.701401 25.9294737,683.735263 C27.3175688,684.060129 28.5784349,684.78863 29.5531579,685.828947 C30.5934756,686.80367 31.3219761,688.064537 31.6468421,689.452632 C31.6903966,689.869479 31.8921412,690.253754 32.2105263,690.526316 C33.0090982,691.199115 34.1976854,691.115914 34.8947368,690.338421 L37.3910526,687.842105 C38.168546,687.145054 38.2517471,685.956467 37.5789474,685.157895 C37.3075311,684.900049 36.9582256,684.739558 36.5857895,684.701579 C33.7919872,683.960056 31.6099441,681.778013 30.8684211,678.984211 C30.8345585,678.610665 30.6734739,678.260069 30.4121053,677.991053 C29.6135333,677.318253 28.4249462,677.401454 27.7278947,678.178947 L25.1242105,680.594737 Z" id="Path" fill="#32598F"></path>
                        <path d="M59.0526316,656.222105 C59.9917053,657.140523 60.5006339,658.411923 60.4546631,659.724644 C60.4086924,661.037366 59.812072,662.270049 58.8110526,663.120526 L57.9521053,663.872105 L56.6905263,664.972632 L51,670.126316 L46.1147368,674.421053 L46.1147368,674.421053 L46.1147368,674.421053 L35.7536842,683.466842 C34.9688712,683.087878 34.2594527,682.569457 33.66,681.936842 C33.0336328,681.348374 32.5236933,680.647207 32.1568421,679.87 L41.6052632,668.945263 L41.82,668.730526 L44.7189474,665.402105 L46.41,663.469474 L47.1615789,662.583684 L52.3957895,656.544211 C54.1480233,654.623275 57.1231209,654.479319 59.0526316,656.222105 L59.0526316,656.222105 Z" id="Path" fill="#32598F"></path>
                        <path d="M46.5173684,662.261579 C44.3745128,661.185188 42.3654886,659.860854 40.5315789,658.315789 C39.1628872,657.213917 37.5534798,656.450598 35.8342105,656.087895 L37.23,657.671579 C38.2002206,658.035989 39.1062832,658.552444 39.9142105,659.201579 C41.749397,660.714996 43.7589162,662.003612 45.9,663.04 L46.3831579,663.281579 L47.1347368,662.395789 C46.923866,662.3789 46.7162196,662.333759 46.5173684,662.261579 L46.5173684,662.261579 Z" id="Path" fill="#F5F6F9"></path>
                        <path d="M68.0178947,664.972632 C68.0128611,664.602031 67.9678639,664.233054 67.8836842,663.872105 L58.0594737,663.872105 L56.7978947,664.972632 L68.0178947,664.972632 Z" id="Path" fill="#F5F6F9"></path>
                        <path d="M55.2142105,654.021053 C54.3245142,654.100126 53.4720325,654.415174 52.7447368,654.933684 C52.1082006,655.429729 51.5396444,656.00731 51.0536842,656.651579 C49.3894737,658.637895 47.8594737,660.597368 46.5173684,662.261579 L46.1147368,662.771579 L45.8194737,663.147368 C45.2826316,663.845263 44.7726316,664.489474 44.3431579,665.08 L44.6115789,665.321579 L46.3026316,663.388947 L47.0542105,662.503158 L52.2884211,656.463684 C53.1472304,655.485804 54.3714124,654.905531 55.6720707,654.859805 C56.9727289,654.814079 58.2346387,655.30695 59.16,656.222105 C60.0990737,657.140523 60.6080024,658.411923 60.5620316,659.724644 C60.5160608,661.037366 59.9194405,662.270049 58.9184211,663.120526 L58.0594737,663.872105 L56.7978947,664.972632 L51,670.126316 L51.4294737,670.367895 L52.2347368,669.723684 C53.9794737,668.327895 55.9926316,666.744211 58.1131579,664.972632 L58.3547368,664.784737 L59.4552632,663.872105 L60.0994737,663.308421 C61.9657669,661.181338 61.9657669,658.000241 60.0994737,655.873158 C58.8727406,654.492842 57.0477028,653.800932 55.2142105,654.021053 Z" id="Path" fill="#32598F"></path>
                        <path d="M30.3315789,685.157895 C30.6909789,685.522374 31.2349877,685.633564 31.7085807,685.439339 C32.1821737,685.245114 32.4914666,684.783978 32.4914666,684.272105 C32.4914666,683.760233 32.1821737,683.299096 31.7085807,683.104872 C31.2349877,682.910647 30.6909789,683.021836 30.3315789,683.386316 C29.8472186,683.877522 29.8472186,684.666689 30.3315789,685.157895 L30.3315789,685.157895 Z" id="Path" fill="#32598F"></path>
                        <path d="M54.3552632,661 C55.1628283,661.806 56.4707514,661.805155 57.2772736,660.998111 C58.0837958,660.191067 58.0837958,658.883144 57.2772736,658.0761 C56.4707514,657.269056 55.1628283,657.26821 54.3552632,658.074211 C53.9667877,658.461933 53.7484811,658.98825 53.7484811,659.537105 C53.7484811,660.08596 53.9667877,660.612277 54.3552632,661 L54.3552632,661 Z" id="Path" fill="#32598F"></path>
                        <path d="M48.45,664.918947 L41.4978947,672.971579 C41.3935164,673.10074 41.3366612,673.26183 41.3368421,673.427895 C41.32905,673.608153 41.3972087,673.783418 41.5247368,673.911053 C41.794755,674.170109 42.2210345,674.170109 42.4910526,673.911053 C44.5049986,672.172346 46.015458,670.868316 47.022431,669.998963 C47.8049317,669.323404 48.9786828,668.310065 50.5436842,666.958947 C50.8564089,666.67931 51.0326389,666.277897 51.0268421,665.858421 C51.0336278,665.473128 50.8777082,665.102819 50.5973684,664.838421 C50.3200645,664.563747 49.9404202,664.41773 49.5505263,664.435789 C49.1303226,664.426362 48.7274571,664.60323 48.45,664.918947 Z" id="Path" fill="#F4F5F8"></path>
                        <rect id="Rectangle" fill="#F4F5F8" x="47.5642105" y="637.110526" width="18.7357895" height="1.10052632"></rect>
                        <path d="M66.6757895,650.746316 L66.6757895,651.175789 L65.5215789,651.632105 C64.2437318,652.121855 62.9226499,652.49032 61.5757895,652.732632 C60.8242105,652.732632 60.0457895,653.001053 59.2673684,653.054737 C58.4715742,653.095495 57.6742153,653.095495 56.8784211,653.054737 C56.0731579,653.054737 55.2678947,653.054737 54.4894737,653.054737 C53.7110526,653.054737 52.9326316,652.84 52.1810526,652.732632 C50.8604984,652.477356 49.5665167,652.099945 48.3157895,651.605263 L47.7789474,651.417368 L48.1010526,651.014737 C54.1846327,652.751374 60.644931,652.658017 66.6757895,650.746316 L66.6757895,650.746316 Z" id="Path" fill="#32598F"></path>
                        <path d="M54.7847368,658.530526 C54.4992488,658.803934 54.3378077,659.182077 54.3378077,659.577368 C54.3378077,659.97266 54.4992488,660.350803 54.7847368,660.624211 C54.9658038,660.832681 55.2115237,660.974442 55.4826316,661.026842 L55.4826316,658.154737 C55.2180321,658.208437 54.9752204,658.339182 54.7847368,658.530526 L54.7847368,658.530526 Z" id="Path" fill="#F5F6F9"></path>
                        <path d="M56.1536842,661 C56.4304665,660.942289 56.6831969,660.801884 56.8784211,660.597368 C57.4443578,660.014206 57.4443578,659.086847 56.8784211,658.503684 C56.673834,658.317238 56.4239526,658.18767 56.1536842,658.127895 L56.1536842,661 Z" id="Path" fill="#F5F6F9"></path>
                        <path d="M46.9736842,656.946842 C47.7149085,656.946842 48.3157895,656.345961 48.3157895,655.604737 C48.3157895,654.863513 47.7149085,654.262632 46.9736842,654.262632 C46.2324599,654.262632 45.6315789,654.863513 45.6315789,655.604737 C45.6315789,656.345961 46.2324599,656.946842 46.9736842,656.946842 Z" id="Path" fill="#32598F"></path>
                        <path d="M46.9736842,656.678421 C46.9134962,656.57443 46.859712,656.466861 46.8126316,656.356316 C46.782164,656.196704 46.782164,656.03277 46.8126316,655.873158 L46.3294737,655.873158 L45.9,655.631579 L46.2489474,655.470526 C46.4095351,655.453221 46.5715175,655.453221 46.7321053,655.470526 C46.7016377,655.310915 46.7016377,655.14698 46.7321053,654.987368 C46.7791856,654.876823 46.8329699,654.769255 46.8931579,654.665263 C46.950471,654.766948 46.9955225,654.875072 47.0273684,654.987368 C47.0455445,655.147908 47.0455445,655.309987 47.0273684,655.470526 C47.1871965,655.44244 47.3506982,655.44244 47.5105263,655.470526 L47.8326316,655.631579 L47.5105263,655.792632 L47.0273684,655.792632 C47.0455445,655.953171 47.0455445,656.11525 47.0273684,656.275789 C47.0281108,656.411832 47.0100451,656.547325 46.9736842,656.678421 L46.9736842,656.678421 Z" id="Path" fill="#32598F"></path>
                        <path d="M64.4210526,656.946842 C65.1622769,656.946842 65.7631579,656.345961 65.7631579,655.604737 C65.7631579,654.863513 65.1622769,654.262632 64.4210526,654.262632 C63.6798284,654.262632 63.0789474,654.863513 63.0789474,655.604737 C63.0789474,656.345961 63.6798284,656.946842 64.4210526,656.946842 Z" id="Path" fill="#32598F"></path>
                        <path d="M64.4210526,656.678421 L64.26,656.356316 C64.2295325,656.196704 64.2295325,656.03277 64.26,655.873158 L63.7768421,655.873158 L63.4278947,655.712105 L63.7768421,655.551053 C63.9374299,655.533747 64.0994122,655.533747 64.26,655.551053 C64.2295325,655.391441 64.2295325,655.227506 64.26,655.067895 L64.4210526,654.745789 C64.4783658,654.847475 64.5234172,654.955598 64.5552632,655.067895 C64.5734393,655.228435 64.5734393,655.390513 64.5552632,655.551053 C64.7150913,655.522966 64.8785929,655.522966 65.0384211,655.551053 L65.3605263,655.712105 L65.0384211,655.873158 L64.5552632,655.873158 C64.5734393,656.033698 64.5734393,656.195776 64.5552632,656.356316 C64.5234172,656.468612 64.4783658,656.576736 64.4210526,656.678421 L64.4210526,656.678421 Z" id="Path" fill="#32598F"></path>
                        <path d="M42.9473684,633.406316 C43.6885927,633.406316 44.2894737,632.805435 44.2894737,632.064211 C44.2894737,631.322986 43.6885927,630.722105 42.9473684,630.722105 C42.2061442,630.722105 41.6052632,631.322986 41.6052632,632.064211 C41.6052632,632.805435 42.2061442,633.406316 42.9473684,633.406316 Z" id="Path" fill="#32598F"></path>
                        <path d="M42.9473684,633.137895 C42.9356204,633.030848 42.9356204,632.922837 42.9473684,632.815789 C42.9291923,632.65525 42.9291923,632.493171 42.9473684,632.332632 L42.4642105,632.332632 L42.1421053,632.171579 L42.4642105,632.010526 L42.9473684,632.010526 C42.9291923,631.849987 42.9291923,631.687908 42.9473684,631.527368 C42.9356204,631.420321 42.9356204,631.31231 42.9473684,631.205263 C43.0075564,631.309255 43.0613407,631.416823 43.1084211,631.527368 C43.1388886,631.68698 43.1388886,631.850915 43.1084211,632.010526 L43.5915789,632.010526 L43.9405263,632.171579 L43.5915789,632.332632 C43.4309912,632.349937 43.2690088,632.349937 43.1084211,632.332632 C43.1388886,632.492243 43.1388886,632.656178 43.1084211,632.815789 L42.9473684,633.137895 Z" id="Path" fill="#32598F"></path>
                        <polygon id="Path" fill="#32598F" points="53.1742105 620.736842 51.4563158 620.736842 53.1742105 620.736842 56.9321053 620.736842 60.69 620.736842 62.4078947 620.736842 60.69 620.736842 53.1742105 620.736842"></polygon>
                        <polygon id="Path" fill="#32598F" points="51.4563158 621.568947 53.1742105 621.568947 60.69 621.568947 62.4078947 621.568947 60.69 621.568947 53.1742105 621.568947"></polygon>
                        <polygon id="Path" fill="#32598F" points="51.4563158 622.266842 53.1742105 622.266842 60.69 622.266842 62.4078947 622.266842 60.69 622.266842 56.9321053 622.266842 53.1742105 622.266842"></polygon>
                        <polygon id="Path" fill="#32598F" points="51.4563158 625.031579 53.1742105 625.031579 60.69 625.031579 62.4078947 625.031579 60.69 625.031579 56.9321053 625.031579 53.1742105 625.031579"></polygon>
                        <polygon id="Path" fill="#32598F" points="51.4563158 625.729474 53.1742105 625.729474 60.69 625.729474 62.4078947 625.729474 60.69 625.729474 56.9321053 625.729474 53.1742105 625.729474"></polygon>
                        <polygon id="Path" fill="#32598F" points="51.4563158 626.427368 53.1742105 626.427368 56.9321053 626.427368 60.69 626.427368 62.4078947 626.427368 60.69 626.427368 56.9321053 626.427368 53.1742105 626.427368"></polygon>
                        <rect id="Rectangle" fill="#32598F" x="0.805263158" y="663.388947" width="13.4210526" height="83.4521053"></rect>
                        <path d="M0,749.256842 L0,755.511053 C0,758.579721 2.48764731,761.067368 5.55631579,761.067368 L9.50210526,761.067368 C12.5707737,761.067368 15.0584211,758.579721 15.0584211,755.511053 L15.0584211,749.256842 C15.0584211,748.945528 14.806051,748.693158 14.4947368,748.693158 L0.563684211,748.693158 C0.252370017,748.693158 0,748.945528 0,749.256842 Z" id="Path" fill="#32598F"></path>
                        <rect id="Rectangle" fill="#32598F" x="0" y="630.265789" width="15.0315789" height="31.2710526" rx="0.69"></rect>
                        <rect id="Rectangle" fill="#32598F" x="0.805263158" y="607.235263" width="13.4210526" height="21.2052632"></rect>
                        <path d="M7.54263158,581.332583 C9.5406023,581.332583 11.4563519,582.128142 12.86661,583.543437 C14.276868,584.958732 15.0655567,586.877305 15.0584691,588.875263 L15.0584691,603.531053 C15.0584691,604.553942 14.2292053,605.383158 13.2063158,605.383158 L1.85210526,605.383158 C0.829215771,605.383158 -4.81736206e-05,604.553942 -4.81736206e-05,603.531053 L-4.81736206e-05,588.875263 C-0.00716507143,586.872645 0.785201682,584.949981 2.20127567,583.533907 C3.61734965,582.117833 5.54001336,581.325467 7.54263158,581.332583 L7.54263158,581.332583 Z" id="Path" fill="#32598F"></path>
                        <path d="M15.3536842,0.684210526 C13.4210526,1.06 12.1594737,1.94578947 11.9984211,2.96578947 L8.40157895,5.46210526 L8.40157895,5.46210526 C8.38845937,4.98870223 8.01540699,4.60399196 7.54263158,4.57631579 C7.05342356,4.57631579 6.65684211,4.97289725 6.65684211,5.46210526 L2.89882377,579.480526 L2.89882377,579.480526 C2.89587319,579.862261 2.95016322,580.242291 3.06,580.607895 C4.42327771,579.848161 5.95518444,579.442114 7.51578947,579.426842 C9.08534794,579.438774 10.6267496,579.844892 11.9984211,580.607895 C12.1064014,580.22354 12.160601,579.826076 12.1594737,579.426842 L11.5957895,492.7 L17.6889474,488.458947 C18.2036462,488.964522 18.8424494,489.325584 19.5410526,489.505789 C20.9088923,489.860838 22.3373512,489.915778 23.7284211,489.666842 C26.5468421,489.237368 29.3921053,487.734211 29.3921053,485.694211 L29.3921053,485.372105 C29.0968421,483.439474 26.2247368,482.419474 22.7352632,482.956316 C19.2457895,483.493158 17.3668421,484.915789 17.1252632,486.606842 L11.5957895,490.445263 L10.9784211,395.504737 L16.6689474,391.558947 C17.1265195,392.03081 17.7006244,392.373421 18.3331579,392.552105 C19.5974452,392.866523 20.9123599,392.921311 22.1984211,392.713158 C24.8826316,392.310526 27.4057895,390.914737 27.4057895,389.035789 L27.4057895,388.740526 C27.1373684,386.968947 24.5068421,386.056316 21.2857895,386.512632 C18.0647368,386.968947 16.32,388.311053 16.1052632,389.894737 L10.9784211,393.464737 L10.3342105,298.363158 L15.7026316,294.712632 C16.1209147,295.143688 16.650537,295.450312 17.2326316,295.598421 C18.3892594,295.900393 19.5965358,295.955269 20.7757895,295.759474 C23.1110526,295.383684 25.5,294.122105 25.5,292.404211 L25.5,292.135789 C25.2584211,290.525263 22.8157895,289.639474 19.9168421,290.095789 C17.0178947,290.552105 15.4342105,291.76 15.2194737,293.182632 L10.4684211,296.484211 L9.85105263,201.194737 L14.4947368,197.812632 C14.8796979,198.200938 15.3616738,198.479001 15.8905263,198.617895 C16.9343952,198.88393 18.0222307,198.929638 19.0847368,198.752105 C21.2052632,198.403158 23.3526316,197.275789 23.3526316,195.718947 L23.3526316,195.477368 C23.1378947,194.027895 20.9636842,193.222632 18.3063158,193.652105 C15.6489474,194.081579 14.2531579,195.128421 14.0652632,196.336316 L9.66315789,199.45 L9.04578947,103.972632 L13.4210526,100.939474 C13.7626152,101.278602 14.1890826,101.519649 14.6557895,101.637368 C15.6019386,101.844646 16.5817456,101.844646 17.5278947,101.637368 C19.4336842,101.342105 21.3394737,100.322105 21.3394737,98.9531579 L21.3394737,98.7384211 C21.1247368,97.4231579 19.1921053,96.7252632 16.8031579,97.1010526 C14.4142105,97.4768421 13.2063158,98.4163158 13.0184211,99.5705263 L9.01894737,102.254737 L8.40157895,6.80421053 L12.3473684,4.12 C12.6515161,4.39612613 13.0210531,4.59013305 13.4210526,4.68368421 C14.2525518,4.86295993 15.1127113,4.86295993 15.9442105,4.68368421 C17.6352632,4.52263158 19.3263158,3.63684211 19.3263158,2.40210526 L19.3263158,2.21421053 C19.1384211,1.06 17.4205263,0.442631579 15.3536842,0.684210526 Z M20.0510526,487.734211 C19.2994737,487.519474 18.9505263,487.197368 18.8968421,486.928947 C18.8431579,486.660526 20.3194737,485.184211 22.9768421,484.781579 C25.6342105,484.378947 27.4594737,485.103684 27.54,485.640526 L27.54,485.640526 C27.54,486.177368 26.1442105,487.385263 23.46,487.787895 C22.3320908,488.004703 21.1715756,487.986427 20.0510526,487.734211 Z M18.7894737,390.914737 C18.1184211,390.7 17.7694737,390.404737 17.7426316,390.19 C17.7157895,389.975263 19.0310526,388.579474 21.5005263,388.203684 C23.97,387.827895 25.6073684,388.498947 25.6610526,388.982105 L25.6610526,388.982105 C25.6610526,389.465263 24.3726316,390.592632 21.9031579,390.968421 C20.8716572,391.153298 19.8139881,391.135062 18.7894737,390.914737 L18.7894737,390.914737 Z M17.5278947,294.095263 C16.9105263,293.907368 16.6152632,293.638947 16.5615789,293.424211 C16.5078947,293.209474 17.7426316,291.947895 19.9973684,291.625789 C22.2521053,291.303684 23.7284211,291.894211 23.8089474,292.350526 L23.8089474,292.350526 C23.8089474,292.806842 22.6278947,293.8 20.4,294.148947 C19.4486987,294.323595 18.472005,294.305339 17.5278947,294.095263 L17.5278947,294.095263 Z M16.2663158,197.275789 C15.7026316,197.087895 15.4342105,196.873158 15.4073684,196.658421 C15.3805263,196.443684 16.4810526,195.343158 18.4942105,195.021053 C20.5073684,194.698947 21.8763158,195.289474 21.9568421,195.692105 L21.9568421,195.692105 C21.9568421,196.094737 20.8831579,197.007368 18.87,197.329474 C18.0066175,197.477706 17.1228545,197.459484 16.2663158,197.275789 Z M15.0047368,100.456316 C14.5215789,100.295263 14.2531579,100.080526 14.2531579,99.9194737 C14.2531579,99.7584211 15.1926316,98.7384211 16.9373684,98.4431579 C18.6821053,98.1478947 19.9705263,98.6578947 20.0242105,99.0336842 L20.0242105,99.0336842 C20.0242105,99.4094737 19.0578947,100.214737 17.34,100.51 C16.56473,100.633362 15.773519,100.615173 15.0047368,100.456316 L15.0047368,100.456316 Z M18.2257895,2.37526316 L18.2257895,2.37526316 C18.2257895,2.69736842 17.3936842,3.42210526 15.7831579,3.66368421 C15.1178149,3.78748219 14.435343,3.78748219 13.77,3.66368421 C13.4210526,3.50263158 13.0989474,3.36842105 13.0721053,3.15368421 C13.0452632,2.93894737 13.9042105,2.10684211 15.5147368,1.86526316 C17.1252632,1.62368421 18.1721053,2.05315789 18.2257895,2.37526316 Z" id="Shape" fill="#32598F"></path>
                        <path d="M3.11368421,664.408947 L3.11368421,663.388947 L4.96578947,663.388947 L4.96578947,664.408947 C4.96578947,674.340526 4.96578947,684.272105 4.96578947,693.613158 C4.96578947,702.954211 4.75105263,711.597368 4.67052632,719.032632 C4.59,726.467895 4.40210526,732.695263 4.34842105,737.016842 C4.29473684,741.338421 4.16052632,743.861579 4.16052632,743.861579 C4.16052632,743.861579 4.16052632,741.392105 3.99947368,737.016842 C3.83842105,732.641579 3.78473684,726.494737 3.62368421,719.032632 C3.46263158,711.570526 3.38210526,702.927368 3.35526316,693.613158 C3.32842105,684.298947 3.16736842,674.421053 3.11368421,664.408947 Z" id="Path" fill="#F5F6F9"></path>
                        <path d="M3.24789474,635.258421 C3.24789474,633.567368 3.24789474,631.903158 3.24789474,630.265789 L4.83157895,630.265789 C4.83157895,631.903158 4.83157895,633.567368 4.83157895,635.258421 C4.83157895,643.66 4.83157895,652.571579 4.83157895,661.536842 L3.14052632,661.536842 C3.16736842,652.571579 3.22105263,643.686842 3.24789474,635.258421 Z" id="Path" fill="#F5F6F9"></path>
                        <path d="M3.51631579,609.812105 C3.51631579,608.917368 3.51631579,608.022632 3.51631579,607.127895 L4.45578947,607.127895 C4.45578947,607.96 4.45578947,608.818947 4.45578947,609.812105 C4.45578947,615.422105 4.64368421,621.703158 4.69736842,628.413684 L3.30157895,628.413684 C3.35526316,621.703158 3.46263158,615.368421 3.51631579,609.812105 Z" id="Path" fill="#F5F6F9"></path>
                        <path d="M4.05315789,584.983158 C4.05315789,584.983158 4.05315789,587.479474 4.24105263,591.801053 C4.24105263,595.263684 4.24105263,599.853684 4.48263158,605.383158 L3.59684211,605.383158 C3.59684211,599.880526 3.81157895,595.263684 3.89210526,591.801053 C3.99947368,587.479474 4.05315789,584.983158 4.05315789,584.983158 Z" id="Path" fill="#F5F6F9"></path>
                    </g>
                </g>
                <g id="weight" opacity="0.582077753" mask="url(#mask-2)" fill="#32598F" fill-rule="nonzero">
                    <g transform="translate(99.500000, 114.500000) rotate(-14.000000) translate(-99.500000, -114.500000) translate(88.000000, 63.000000)">
                        <path d="M16.55,47.08 L16.55,47.08 C16.55,47.08 16.55,47.15 16.55,47.18 L16.55,47.08 Z" id="Path"></path>
                        <path d="M17.51,46.73 C17.5043223,46.7036355 17.5043223,46.6763645 17.51,46.65 L17.51,46.73 L17.51,46.73 Z" id="Path"></path>
                        <path d="M12.21,70.16 C12.1423336,70.0333469 12.04655,69.9238799 11.93,69.84 C11.8250688,69.7370728 11.6987378,69.6585428 11.56,69.61 C11.4605689,69.5949147 11.3594311,69.5949147 11.26,69.61 L10.81,69.61 C10.23,69.61 9.65,69.61 9.08,69.67 C9.01046271,69.6586176 8.93953729,69.6586176 8.87,69.67 L8.8,69.67 C8.6665671,69.6672479 8.53778486,69.7190421 8.44341349,69.8134135 C8.34904211,69.9077849 8.29724792,70.0365671 8.3,70.17 C8.3,70.28 8.3,70.39 8.3,70.5 C8.28969809,70.6264572 8.28969809,70.7535428 8.3,70.88 C8.3,71.07 8.3,71.25 8.37,71.44 C8.40408016,71.7259889 8.48873048,72.003642 8.62,72.26 C8.68594344,72.3826297 8.76653322,72.4967985 8.86,72.6 C8.96040883,72.7070636 9.07092171,72.804181 9.19,72.89 C9.41309388,73.0472956 9.65939875,73.168761 9.92,73.25 C10.0230639,73.2892069 10.1369361,73.2892069 10.24,73.25 C10.3259875,73.2653445 10.4140125,73.2653445 10.5,73.25 C10.7985258,73.1840247 11.0829491,73.065515 11.34,72.9 C11.5241098,72.7821864 11.6921759,72.6410108 11.84,72.48 L12.03,72.21 C12.1120856,72.0814085 12.1791887,71.9438473 12.23,71.8 C12.3525128,71.4817557 12.4004072,71.1396531 12.37,70.8 C12.3582013,70.7025569 12.3415136,70.6057681 12.32,70.51 C12.2966216,70.3895655 12.2597213,70.2721553 12.21,70.16 L12.21,70.16 Z M11.39,71.16 C11.3672916,71.2924954 11.3338481,71.4229251 11.29,71.55 C11.29,71.64 11.2,71.72 11.14,71.81 L11,72 L10.62,72.23 L10.3,72.32 C10.3,72.32 10.3,72.32 10.24,72.32 L10.24,72.32 L10.11,72.32 L9.8,72.13 C9.73861399,72.0819143 9.68171439,72.0283618 9.63,71.97 C9.63,71.91 9.56,71.84 9.52,71.77 C9.46945334,71.5958879 9.42938158,71.4189042 9.4,71.24 C9.4,71.09 9.4,70.94 9.4,70.79 L9.4,70.7 C9.82,70.7 10.24,70.65 10.66,70.65 L11.36,70.65 L11.44,70.72 L11.44,70.72 C11.4613752,70.7887946 11.4780799,70.8589542 11.49,70.93 C11.4629592,71.0028266 11.429494,71.0731035 11.39,71.14 L11.39,71.16 Z" id="Shape"></path>
                        <path d="M22.55,9.22 C22.55,8.75 22.55,8.22 22.5,7.8 C22.45,7.38 22.38,6.8 22.31,6.37 C22.24,5.94 22.18,5.48 22.08,5.04 C21.9976083,4.69938029 21.890662,4.3651732 21.76,4.04 C21.6547746,3.73446176 21.5137962,3.44243505 21.34,3.17 C21.24,3.03 21.13,2.9 21.03,2.77 C20.93,2.64 20.8,2.47 20.67,2.33 C20.4428319,2.06614672 20.1842455,1.83106812 19.9,1.63 C19.6133448,1.42269506 19.3126193,1.23557696 19,1.07 C18.6254322,0.873712164 18.2378583,0.703313304 17.84,0.56 C17.5171187,0.425555073 17.1823121,0.32176502 16.84,0.25 C16.4378034,0.164906205 16.0301383,0.108100412 15.62,0.08 C15.26,0.05 14.9,0 14.54,0 L14,0 L13.33,0.06 C13.11,0.06 12.88,0.12 12.66,0.18 C12.4199231,0.24729808 12.185798,0.334258813 11.96,0.44 C11.5427475,0.628174228 11.1579704,0.88131705 10.82,1.19 C10.4548022,1.51620287 10.1471645,1.90159515 9.91,2.33 C9.50226312,3.16232851 9.28046847,4.07339267 9.26,5 C9.26,5.42 9.19,5.83 9.19,6.25 C9.18345689,6.74189989 9.21690029,7.23351799 9.29,7.72 C9.29,7.96 9.38,8.19 9.43,8.43 C9.48034196,8.64928946 9.55063474,8.86351507 9.64,9.07 C9.68225901,9.16408778 9.73243966,9.25441296 9.79,9.34 C9.88613148,9.46992294 10.0046517,9.58167061 10.14,9.67 C10.4070169,9.85325883 10.7264715,9.94453159 11.05,9.93 C11.257076,9.92608419 11.4625125,9.89240608 11.66,9.83 C11.9128036,9.76983498 12.144434,9.64191965 12.33,9.46 C12.69,9.11 12.58,8.57 12.52,8.13 L12.43,7.51 C12.43,7.51 12.43,7.6 12.43,7.64 C12.3450839,6.89574764 12.3450839,6.14425236 12.43,5.4 C12.4652281,5.17073726 12.5255918,4.9460502 12.61,4.73 C12.7030736,4.53588746 12.8100173,4.34873591 12.93,4.17 C13.0167773,4.069931 13.1139955,3.97941755 13.22,3.9 C13.3532258,3.81156408 13.4937322,3.73462009 13.64,3.67 C13.9943474,3.55144882 14.3594068,3.4677196 14.73,3.42 L15.42,3.42 C15.647533,3.42135866 15.8747153,3.43806324 16.1,3.47 L16.61,3.57 C16.7700636,3.61277885 16.9270817,3.66623184 17.08,3.73 C17.3371024,3.84691925 17.5845425,3.98401443 17.82,4.14 C17.9981412,4.29148051 18.1621488,4.45883529 18.31,4.64 C18.4477314,4.82338287 18.5650894,5.02121497 18.66,5.23 C18.83,5.64 18.97,6.07 19.1,6.5 C19.16,6.73 19.23,6.96 19.28,7.2 C19.33,7.44 19.37,7.66 19.41,7.9 C19.4751266,8.5144557 19.5051754,9.1321242 19.5,9.75 C19.5034269,10.3343206 19.4767248,10.9184292 19.42,11.5 C19.3666667,11.76 19.3066667,12.02 19.24,12.28 C19.1647982,12.5155195 19.0746142,12.7459897 18.97,12.97 C18.7396349,13.4668368 18.4545367,13.9364102 18.12,14.37 C17.9803863,14.5581224 17.8266056,14.7353045 17.66,14.9 L17.15,15.39 C16.7857567,15.7572088 16.4018592,16.1043857 16,16.43 L15.1,17.09 C14.77,17.33 14.43,17.59 14.1,17.85 L14.1,17.85 L14.02,17.92 L14.02,17.92 L12.38,19.22 C11.79,19.7 11.18,20.16 10.61,20.66 C10.0337351,21.1558582 9.51995817,21.7200054 9.08,22.34 C8.63907036,23.0516889 8.30231959,23.8228482 8.08,24.63 C8.08,24.63 8.08,24.63 8.08,24.7 C7.9336006,24.7523011 7.79288104,24.8193104 7.66,24.9 C7.14740525,25.2668798 6.73764494,25.7592808 6.47,26.33 C6.11370469,27.0312142 5.95143147,27.8149593 6,28.6 C6.01944665,28.7915168 6.04949272,28.9818086 6.09,29.17 C6.10548378,29.2314121 6.12553974,29.29158 6.15,29.35 C6.15,29.35 6.15,29.35 6.07,29.35 C5.86725467,29.4603153 5.67626959,29.5909894 5.5,29.74 C5.40511646,29.8143311 5.31494275,29.8944855 5.23,29.98 C5.0715502,30.1375835 4.93072108,30.3119433 4.81,30.5 C4.70673186,30.6665571 4.6228534,30.8443794 4.56,31.03 C4.4702319,31.3014227 4.4197211,31.5842832 4.41,31.87 C4.3690968,32.2020785 4.3690968,32.5379215 4.41,32.87 C4.51178662,33.4557716 4.71122706,34.0202894 5,34.54 C5.27198245,34.9638858 5.60951394,35.341921 6,35.66 C5.9043685,35.9018227 5.85681427,36.1599742 5.86,36.42 L5.86,36.42 C5.43025824,36.7497584 5.04090289,37.1290442 4.7,37.55 C4.4691134,37.8301568 4.25538956,38.1240271 4.06,38.43 C3.96436539,38.5407555 3.86075548,38.6443654 3.75,38.74 C3.4642736,38.9195039 3.16695418,39.0798559 2.86,39.22 C2.66605584,39.3095073 2.48454143,39.4237942 2.32,39.56 C2.14881086,39.7093099 1.99455132,39.8769833 1.86,40.06 C1.61097577,40.3996173 1.42781346,40.7829014 1.32,41.19 C1.16188543,41.657103 1.05459865,42.1398935 1,42.63 C0.954987726,43.4994178 0.954987726,44.3705822 1,45.24 C1,46.24 1.07,47.24 1.13,48.19 C1.19,49.14 1.27,50.19 1.33,51.11 C1.39,52.03 1.48,53.05 1.56,54 C1.64,54.95 1.71,56 1.75,57 C1.79,58 1.81,59.12 1.87,60.18 C1.93,61.24 2.01,62.32 2.08,63.39 C2.15,64.46 2.24,65.51 2.36,66.56 C2.42,67.07 2.48,67.56 2.5,68.1 L2.59,69.66 C2.59,70.13 2.65,70.59 2.7,71.06 C2.75,71.53 2.83,72.06 2.88,72.64 C2.99,73.54 3.03,74.44 3.11,75.34 C3.11,75.82 3.21,76.34 3.27,76.78 C3.33,77.22 3.39,77.71 3.49,78.18 C3.61447245,79.064854 3.92458449,79.9134023 4.4,80.67 C4.74176289,81.2208159 5.28865967,81.6129985 5.92,81.76 C6.33,81.82 6.74,81.83 7.15,81.86 C7.3893456,81.8986338 7.62396777,81.9623169 7.85,82.05 L8,82.13 L8.11,82.24 C8.14039171,82.2844371 8.16714533,82.331256 8.19,82.38 C8.19,82.5 8.26,82.62 8.29,82.74 C8.3404791,82.9430784 8.41081797,83.1406972 8.5,83.33 C8.66574494,83.6727091 8.84932985,84.0064998 9.05,84.33 L9.05,84.4 L9,84.4 C8.73981831,84.4633829 8.48806328,84.5573714 8.25,84.68 C7.85334715,84.8339382 7.46602131,85.010906 7.09,85.21 L6.51,85.51 C6.32176619,85.617165 6.14131915,85.737463 5.97,85.87 C5.55721219,86.1717746 5.16930106,86.5061808 4.81,86.87 C4.44401977,87.2416254 4.10953676,87.643005 3.81,88.07 C3.53,88.47 3.3,88.91 3.06,89.33 C2.98,89.48 2.89,89.63 2.82,89.78 C2.71629843,90.0045225 2.63587836,90.239081 2.58,90.48 C2.48018842,90.8640571 2.4099825,91.2552044 2.37,91.65 C2.37,91.87 2.37,92.09 2.3,92.3 C2.23,92.51 2.22,92.92 2.21,93.23 C2.18939394,93.7230704 2.22969837,94.2167996 2.33,94.7 C2.42353997,95.0823408 2.53702855,95.4595235 2.67,95.83 C2.79,96.19 2.94,96.54 3.09,96.89 C3.26807666,97.2876181 3.4683935,97.6748973 3.69,98.05 C3.93293859,98.4390088 4.2036421,98.8099729 4.5,99.16 C4.68742591,99.3973143 4.89125896,99.6211965 5.11,99.83 C5.4,100.08 5.7,100.31 5.98,100.56 C6.40370379,100.963303 6.88578764,101.300424 7.41,101.56 C7.64,101.66 7.88,101.74 8.12,101.82 C8.56169957,101.954248 9.01301399,102.054541 9.47,102.12 C9.87,102.12 10.28,102.12 10.68,102.12 C11.1159662,102.154979 11.5540338,102.154979 11.99,102.12 C12.4763307,102.099288 12.9575037,102.011802 13.42,101.86 C13.846291,101.718482 14.2637076,101.551515 14.67,101.36 L15.57,100.9 C15.9,100.73 16.25,100.59 16.57,100.4 C16.9202273,100.188075 17.2544555,99.9507735 17.57,99.69 C17.82,99.48 18.08,99.27 18.32,99.05 C18.5648433,98.8135367 18.792113,98.5595295 19,98.29 C19.11,98.14 19.22,97.99 19.32,97.83 C19.42,97.67 19.49,97.52 19.57,97.38 C19.7358199,97.0639633 19.8601794,96.7278565 19.94,96.38 C20.02,96.06 20.04,95.72 20.09,95.38 C20.14,95.04 20.15,94.98 20.17,94.77 C20.19,94.56 20.17,94.3 20.17,94.07 C20.1386337,93.6138614 20.0818791,93.1598245 20,92.71 C19.9794519,92.4836165 19.9393014,92.2594426 19.88,92.04 C19.7974538,91.7819054 19.6937693,91.5310557 19.57,91.29 C19.35,90.86 19.07,90.45 18.85,90.02 C18.76,89.84 18.68,89.66 18.59,89.49 C18.4882705,89.2743233 18.3642626,89.0698779 18.22,88.88 C17.96,88.51 17.67,88.15 17.38,87.8 C17.1127002,87.4504887 16.8255614,87.1166064 16.52,86.8 C16.157201,86.4654346 15.7730595,86.154781 15.37,85.87 L15.22,85.75 C15.02,85.6 14.81,85.44 14.6,85.31 C14.2829443,85.1180919 13.9480476,84.9573416 13.6,84.83 C13.43,84.76 13.24,84.71 13.05,84.65 C13.3564535,84.4532983 13.6214363,84.1985071 13.83,83.9 C13.9197227,83.7588495 13.9999017,83.6118547 14.07,83.46 C14.14,83.29 14.19,83.13 14.25,82.96 C14.3235939,82.8112213 14.4071159,82.6675635 14.5,82.53 C14.6896566,82.3036314 14.9006261,82.0960107 15.13,81.91 C15.2984527,81.7902858 15.4756122,81.6833216 15.66,81.59 C16.12,81.43 16.61,81.36 17.06,81.18 C17.2843146,81.10553 17.5017873,81.0118494 17.71,80.9 C17.9478666,80.7651468 18.1722303,80.6077574 18.38,80.43 C18.5484425,80.2815383 18.702462,80.117474 18.84,79.94 C19.0073986,79.73306 19.1515942,79.5083832 19.27,79.27 C19.4651185,78.7950926 19.5832682,78.2921123 19.62,77.78 C19.62,77.55 19.62,77.32 19.62,77.09 C19.62,76.86 19.62,76.61 19.62,76.37 C19.62,75.89 19.57,75.37 19.55,74.92 C19.5,73.92 19.45,72.92 19.36,71.92 C19.18,69.86 19.11,67.8 18.97,65.74 C18.89,64.74 18.83,63.64 18.77,62.59 C18.71,61.54 18.66,60.49 18.59,59.45 C18.59,58.95 18.49,58.45 18.45,57.97 C18.41,57.49 18.36,56.97 18.32,56.46 C18.2266667,55.48 18.1466667,54.5 18.08,53.52 C18,52.52 17.89,51.43 17.8,50.38 C17.71,49.33 17.64,48.44 17.53,47.46 C17.53,47.23 17.48,46.99 17.45,46.75 L17.45,46.66 L17.45,46.66 C17.33,45.72 17.25,44.78 17.2,43.84 C17.2,43.37 17.13,42.89 17.07,42.42 C17.01,41.95 16.97,41.7 16.9,41.34 C16.83,40.98 16.76,40.68 16.69,40.34 C16.62,40 16.59,39.79 16.53,39.52 C16.4667916,39.2437262 16.3728742,38.9753908 16.25,38.72 C16.0984084,38.4230052 15.8749664,38.168625 15.6,37.98 C15.1911815,37.7387262 14.7500868,37.5569009 14.29,37.44 L14.16,37.37 L14,37.2 C13.9266667,37.1 13.8566667,36.99 13.79,36.87 C13.7297461,36.7445739 13.6595206,36.6241872 13.58,36.51 C13.3988652,36.2556513 13.1674157,36.0412201 12.9,35.88 C12.7460359,35.7806503 12.5772658,35.7063914 12.4,35.66 L12.4,35.49 C12.3421551,35.3152454 12.2719787,35.1448171 12.19,34.98 C12.1144212,34.8258584 12.0203993,34.6814677 11.91,34.55 L11.91,34.49 C11.9997747,34.2451192 12.0732682,33.9945733 12.13,33.74 C12.230359,33.2868767 12.2806605,32.8241036 12.28,32.36 C12.2902779,31.8993952 12.226119,31.4401523 12.09,31 C12.0277064,30.8335015 11.9507369,30.6728695 11.86,30.52 L11.86,30.52 C11.9974658,30.318409 12.1083792,30.0999431 12.19,29.87 C12.3114405,29.4754336 12.3589044,29.0618191 12.33,28.65 C12.3437565,27.6542552 12.0311725,26.6813813 11.44,25.88 L11.2,25.59 L11.09,25.5 C11.0800538,25.3201374 11.0800538,25.1398626 11.09,24.96 C11.1186233,24.7671415 11.1724153,24.5788696 11.25,24.4 C11.3600665,24.1604273 11.4940818,23.9326012 11.65,23.72 C11.8456387,23.4927511 12.0596985,23.2820359 12.29,23.09 L12.68,22.76 C12.8106431,22.6513117 12.9342269,22.5344081 13.05,22.41 L13.48,21.98 C13.62,21.85 13.78,21.73 13.94,21.6 C14.2533333,21.3533333 14.5533333,21.0933333 14.84,20.82 L15.84,19.82 C16.2,19.5 16.58,19.22 16.94,18.9 C17.3,18.58 17.52,18.42 17.81,18.16 C18.1,17.9 18.28,17.71 18.52,17.5 C19.05,17.04 19.61,16.62 20.11,16.13 C20.4,15.86 20.66,15.56 20.92,15.27 C21.18,14.98 21.39,14.72 21.6,14.42 C21.8274874,14.0493 21.9929933,13.6439796 22.09,13.22 C22.2332029,12.8214191 22.3501203,12.4138785 22.44,12 C22.5052207,11.5693658 22.5452886,11.1352966 22.56,10.7 C22.57,10.17 22.56,9.69 22.55,9.22 Z M21.55,10.22 C21.4938044,10.2096666 21.4361956,10.2096666 21.38,10.22 L21.38,10.22 L21.44,10.22 C21.4859526,10.1750674 21.5262505,10.1246951 21.56,10.07 L21.55,10.22 Z M17.42,16.42 C17.42,16.42 17.42,16.51 17.42,16.56 C17.416271,16.7442397 17.5067519,16.9176614 17.66,17.02 L17.6,17.08 C17.5393991,16.8895924 17.3692506,16.7550565 17.17,16.74 L17.17,16.74 L17.42,16.42 Z M16,17.65 L16.64,17.17 C16.64,17.17 16.64,17.17 16.64,17.17 C16.6237721,17.3806454 16.7391009,17.5794883 16.93,17.67 C16.76,17.83 16.58,17.97 16.4,18.12 C16.3906835,17.8719743 16.1973865,17.6700864 15.95,17.65 L16,17.65 Z M14.52,18.77 L14.41,18.85 L14.6,18.71 C14.671275,18.8717314 14.8241235,18.9825465 15,19 C15.1305657,19.0048694 15.258469,18.962235 15.36,18.88 C15.4612586,18.7938448 15.525671,18.6721768 15.54,18.54 L15.54,18.54 C15.6002225,18.6075243 15.6810894,18.6532317 15.77,18.67 C15.53,18.8633333 15.3,19.0633333 15.08,19.27 C14.9993184,19.1621377 14.8745612,19.0960898 14.74,19.09 C14.6061672,19.0835967 14.4745995,19.1262673 14.37,19.21 C14.2670561,19.2947914 14.2022536,19.4171961 14.19,19.55 C14.1918317,19.6455673 14.2194741,19.7388606 14.27,19.82 C14.2103656,19.8106329 14.1496344,19.8106329 14.09,19.82 L14.09,19.82 C14.0645373,19.6283469 13.9265771,19.4706781 13.74,19.42 L14.52,18.77 Z M13.6,20.46 L13.66,20.56 L13.58,20.56 L13.58,20.48 L13.6,20.46 Z M12.97,20.93 L13.06,20.93 L13.13,20.93 C13.1255243,20.9564789 13.1255243,20.9835211 13.13,21.01 L13.13,21.06 L13.13,21.06 C13.0934831,21.0103479 13.0496521,20.9665169 13,20.93 L12.97,20.93 Z M12.65,20.26 C12.6409991,20.3095949 12.6409991,20.3604051 12.65,20.41 C12.6419811,20.5362725 12.6811867,20.6610176 12.76,20.76 C12.7038044,20.7496666 12.6461956,20.7496666 12.59,20.76 C12.4594343,20.7551306 12.331531,20.797765 12.23,20.88 C12.1726189,20.9284848 12.1279854,20.990285 12.1,21.06 C11.9853228,21.0578295 11.8730361,21.0929191 11.78,21.16 C11.7610507,21.1379208 11.7370315,21.1207642 11.71,21.11 C11.89,20.96 12.06,20.8 12.24,20.66 L12.65,20.26 Z M10.89,35.41 L10.89,35.41 L10.98,35.41 C11.0702779,35.4116451 11.1595723,35.3910387 11.24,35.35 L11.3,35.46 L11.3,35.46 L10.89,35.41 Z M8.44,35.54 L8.34,35.54 C8.25230795,35.4472546 8.12719922,35.3994189 8,35.41 C7.86732636,35.3998279 7.73556821,35.4389993 7.63,35.52 C7.55036488,35.5956253 7.49472397,35.6929969 7.47,35.8 L7.41,35.8 L6.91,36 L6.91,36 L6.91,36 L6.91,36 C6.97715057,35.9326561 7.01945781,35.844516 7.03,35.75 L7.03,35.75 C7.11992711,35.6434289 7.22044259,35.5462639 7.33,35.46 L7.53,35.32 C7.67526756,35.2114706 7.83306888,35.1208188 8,35.05 L8.59,34.79 L8.82,34.79 C8.81434716,34.8364955 8.81434716,34.8835045 8.82,34.93 C8.81452843,35.1354156 8.92199977,35.3273287 9.1,35.43 C9.09576018,35.4598502 9.09576018,35.4901498 9.1,35.52 L9,35.52 C8.81311395,35.5095813 8.62566666,35.5162758 8.44,35.54 L8.44,35.54 Z M10.23,35 C10.1647316,34.9387306 10.0794631,34.9032021 9.99,34.9 C9.89594813,34.903199 9.803759,34.9270999 9.72,34.97 C9.72845963,34.8467332 9.68905974,34.7249517 9.61,34.63 C9.81973267,34.6150149 10.0302673,34.6150149 10.24,34.63 L10.32,34.63 C10.2664918,34.7000171 10.2320389,34.7827041 10.22,34.87 C10.22,34.87 10.23,35 10.23,35 Z M10.93,29.46 C10.9345429,29.420129 10.9345429,29.379871 10.93,29.34 L10.93,29.34 C11.0477799,29.3422055 11.1632559,29.3072127 11.26,29.24 L11.26,29.24 C11.2293253,29.3857737 11.1892414,29.5294077 11.14,29.67 L11.14,29.67 C11.0735043,29.5933999 11.0034261,29.5199847 10.93,29.45 L10.93,29.46 Z M8.93,28.72 L8.56,28.72 L8.56,28.58 C8.59412441,28.4242122 8.63753523,28.2706047 8.69,28.12 C8.77,27.97 8.85,27.82 8.94,27.67 L9,27.58 L9,27.58 L9.09,27.58 L9.15,27.58 C9.22233727,27.5906627 9.29294843,27.6108373 9.36,27.64 C9.44056178,27.6720443 9.51763042,27.712254 9.59,27.76 L9.71,27.89 C9.76462193,27.9650864 9.81152627,28.0454938 9.85,28.13 C9.85,28.24 9.91,28.35 9.93,28.46 C9.94474197,28.6230007 9.94474197,28.7869993 9.93,28.95 L9.65,28.84 C9.4367905,28.780886 9.21954493,28.7374369 9,28.71 L8.93,28.72 Z M11.2,28.07 C11.1200711,28.1494068 11.0645497,28.2500392 11.04,28.36 L11,28.36 C11.0055416,28.2667489 11.0055416,28.1732511 11,28.08 C11.0799461,28.0637145 11.1551628,28.0295251 11.22,27.98 C11.2620252,27.9378043 11.2989451,27.8908153 11.33,27.84 C11.33,27.9 11.33,27.96 11.33,28.01 L11.2,28.07 Z M10.11,24.23 C10.11,24.23 10.11,24.16 10.11,24.13 C10.1728573,24.1725749 10.2447478,24.1999617 10.32,24.21 C10.32,24.21 10.32,24.21 10.32,24.21 C10.2476783,24.3962253 10.2005941,24.5912887 10.18,24.79 L10.18,24.79 C10.0526282,24.7253521 9.91847326,24.675044 9.78,24.64 C9.84769861,24.6229459 9.9097548,24.5884702 9.96,24.54 C10.0451315,24.4576893 10.0982866,24.3478356 10.11,24.23 Z M9.16,24.54 L9.16,24.44 L9.25,24.56 L9.16,24.54 Z M7,28.68 C6.9900664,28.5234908 6.9900664,28.3665092 7,28.21 C6.99507868,28.113396 6.99507868,28.016604 7,27.92 C7.02368402,27.7515479 7.05707289,27.5846035 7.1,27.42 C7.1,27.27 7.19,27.13 7.24,26.99 C7.39062895,26.6922795 7.56100949,26.4049712 7.75,26.13 C7.85577105,26.0124674 7.96936312,25.9022163 8.09,25.8 C8.19308556,25.7308208 8.29991508,25.6673908 8.41,25.61 L8.72,25.53 L9,25.53 L8.87,25.6 C8.77324157,25.6884139 8.7126761,25.8095449 8.7,25.94 C8.68895619,26.072704 8.73130429,26.2043313 8.81765588,26.3057005 C8.90400747,26.4070698 9.02722801,26.4698057 9.16,26.48 C9.29056574,26.4848694 9.41846904,26.442235 9.52,26.36 C9.61300565,26.2635981 9.66344042,26.1339087 9.66,26 C9.66816928,25.8525301 9.60938469,25.7092426 9.5,25.61 L9.5,25.61 C9.61672817,25.6707196 9.73021517,25.7374767 9.84,25.81 C9.78397534,25.8823602 9.74933399,25.9689635 9.74,26.06 C9.71681708,26.332858 9.9174346,26.573599 10.19,26.6 L10.28,26.6 C10.2414968,26.7542241 10.2786203,26.9175674 10.38,27.04 C10.4210587,27.0965688 10.4762242,27.1413908 10.54,27.17 L10.48,27.17 C10.4096017,27.1096335 10.3361731,27.0528933 10.26,27 C10.0415516,26.8350299 9.79386191,26.7128816 9.53,26.64 C9.41722898,26.602678 9.29871035,26.5857467 9.18,26.59 C8.89059594,26.5877114 8.60882923,26.6828076 8.38,26.86 C8.16973632,27.0409338 8.00235965,27.2663799 7.89,27.52 C7.78110196,27.7421501 7.69079318,27.9729393 7.62,28.21 C7.5699077,28.4296105 7.54972504,28.6549835 7.56,28.88 L7.07,29 C7.03528255,28.8961457 7.01181475,28.7888643 7,28.68 L7,28.68 Z M5.41,31.75 C5.43604676,31.6074317 5.47281789,31.4670329 5.52,31.33 L5.52,31.33 C5.58074183,31.2100461 5.64749324,31.0932311 5.72,30.98 C5.87836953,30.801482 6.05239694,30.6374946 6.24,30.49 C6.51271944,30.2921207 6.80815659,30.1276159 7.12,30 C7.44363028,29.8795713 7.77869632,29.7924541 8.12,29.74 C8.4855772,29.7000265 8.8544228,29.7000265 9.22,29.74 C9.3766176,29.7612367 9.53071809,29.7980868 9.68,29.85 C9.80129884,29.911973 9.91823609,29.9821354 10.03,30.06 C9.93540439,30.1459095 9.87503193,30.2631031 9.86,30.39 C9.83683898,30.6683706 10.0419201,30.9135763 10.32,30.94 C10.4538328,30.9464033 10.5854005,30.9037327 10.69,30.82 C10.7262307,30.785076 10.7566176,30.7445602 10.78,30.7 C10.8798058,30.8384947 10.9668298,30.985766 11.04,31.14 C10.9926457,31.0748303 10.9262724,31.0259237 10.85,31 C10.7812866,30.9544041 10.7021771,30.9268877 10.62,30.92 C10.4861672,30.9135967 10.3545995,30.9562673 10.25,31.04 C10.153891,31.1247392 10.0932004,31.2425503 10.08,31.37 L10.01,31.37 L9.88,31.37 C9.80527495,31.2401651 9.66962656,31.1572688 9.52,31.15 C9.38616716,31.1435967 9.25459954,31.1862673 9.15,31.27 C9.05607309,31.3522611 8.99558555,31.46612 8.98,31.59 C8.92464709,31.5597038 8.86304821,31.542593 8.8,31.54 C8.66616716,31.5335967 8.53459954,31.5762673 8.43,31.66 C8.32874142,31.7461552 8.26432895,31.8678232 8.25,32 C8.24584009,32.1819424 8.33195016,32.3541625 8.48,32.46 C8.44970385,32.5153529 8.43259305,32.5769518 8.43,32.64 C8.40656432,32.914865 8.60593715,33.1585429 8.88,33.19 C9.01383284,33.1964033 9.14540046,33.1537327 9.25,33.07 C9.37447852,32.9702765 9.44263089,32.8162075 9.43268166,32.6570199 C9.42273243,32.4978323 9.33592675,32.3534482 9.2,32.27 C9.22261377,32.2152547 9.23937366,32.158271 9.25,32.1 C9.30473546,32.1317888 9.3667109,32.1490043 9.43,32.15 L9.56,32.15 C9.63472505,32.2798349 9.77037344,32.3627312 9.92,32.37 C10.0538328,32.3764033 10.1854005,32.3337327 10.29,32.25 C10.3825024,32.1666188 10.4426889,32.0533266 10.46,31.93 C10.5184167,31.9723323 10.5879347,31.9966636 10.66,32 C10.7938328,32.0064033 10.9254005,31.9637327 11.03,31.88 C11.1204782,31.7991703 11.1804855,31.6897452 11.2,31.57 C11.2,31.71 11.28,31.85 11.31,32 C11.3050179,32.0665736 11.3050179,32.1334264 11.31,32.2 C11.2511224,32.1695424 11.186243,32.1524689 11.12,32.15 L11.12,32.15 C11.0738704,32.1399871 11.0261296,32.1399871 10.98,32.15 C10.8461672,32.1435967 10.7145995,32.1862673 10.61,32.27 C10.5116357,32.3571911 10.4507342,32.4789939 10.44,32.61 C10.4357498,32.7037242 10.4564548,32.796897 10.5,32.88 C10.4115977,32.8877692 10.3277644,32.9226998 10.26,32.98 C10.2247077,33.0119974 10.1943753,33.0490704 10.17,33.09 C10.1029522,33.0167247 10.00926,32.9734821 9.91,32.97 C9.77616716,32.9635967 9.64459954,33.0062673 9.54,33.09 C9.43705613,33.1747914 9.37225363,33.2971961 9.36,33.43 C9.36078791,33.5136129 9.38134794,33.5958531 9.42,33.67 C9.08171651,33.6922037 8.74661711,33.7491706 8.42,33.84 C8.51164077,33.7530819 8.56851392,33.635781 8.58,33.51 C8.59745849,33.2353772 8.39390554,32.9964238 8.12,32.97 C7.98943426,32.9651306 7.86153096,33.007765 7.76,33.09 C7.65705613,33.1747914 7.59225363,33.2971961 7.58,33.43 L7.58,33.43 L7.4,33.52 C7.29874142,33.6061552 7.23432895,33.7278232 7.22,33.86 C7.21672209,34.009543 7.27449322,34.1539708 7.38,34.26 C7.23033186,34.328081 7.08651414,34.4083514 6.95,34.5 C6.81431367,34.5991621 6.68719981,34.7095504 6.57,34.83 L6.5,34.77 C6.54722512,34.697562 6.5779501,34.6156287 6.59,34.53 C6.59539996,34.3930274 6.54543305,34.2596475 6.45136663,34.1599371 C6.35730021,34.0602267 6.22705471,34.0025814 6.09,34 C6.01396238,33.9861109 5.93603762,33.9861109 5.86,34 C5.81,33.91 5.75,33.82 5.7,33.71 C5.56986404,33.3872971 5.47270286,33.0522585 5.41,32.71 C5.37805338,32.3907973 5.37805338,32.0692027 5.41,31.75 Z M15.53,90.61 C15.8693429,91.0510408 16.1484613,91.5352944 16.36,92.05 C16.5060486,92.4143856 16.6133071,92.793142 16.68,93.18 C16.6951092,93.4431166 16.6951092,93.7068834 16.68,93.97 C16.68,94.27 16.68,94.57 16.68,94.87 C16.5790759,95.4126782 16.4284411,95.944921 16.23,96.46 C16.16,96.59 16.09,96.72 16.01,96.85 C15.93,96.98 15.84,97.12 15.75,97.26 C15.5221832,97.5281822 15.2712158,97.7758033 15,98 C14.7079859,98.2175547 14.3927215,98.4020179 14.06,98.55 C13.7349538,98.6682817 13.4004068,98.7586094 13.06,98.82 C12.76,98.88 12.47,98.93 12.17,98.97 C11.8375042,99.0034171 11.5024958,99.0034171 11.17,98.97 C10.4880647,98.8717801 9.81792873,98.7042461 9.17,98.47 C8.70752233,98.253882 8.27134202,97.9854634 7.87,97.67 C7.7,97.54 7.53,97.4 7.37,97.25 C7.17264651,97.0692718 6.99498899,96.8681501 6.84,96.65 L6.91,96.76 C6.74932012,96.5150425 6.60242541,96.2613153 6.47,96 C6.32,95.74 6.19,95.46 6.06,95.19 C5.86932662,94.6274831 5.73205386,94.0482591 5.65,93.46 C5.61002821,93.044292 5.61002821,92.625708 5.65,92.21 C5.71091805,91.7213919 5.82837141,91.2415111 6,90.78 C6.22210141,90.2975925 6.4864663,89.8357905 6.79,89.4 C7.15102552,88.9863741 7.55684307,88.6140952 8,88.29 C8.21705316,88.1160705 8.45165574,87.9652545 8.7,87.84 C9.05204081,87.7207196 9.41324382,87.6304189 9.78,87.57 C9.78,87.7 9.78,87.82 9.78,87.95 C9.82203267,88.2119922 9.92856318,88.4594179 10.09,88.67 C10.2035084,88.8060214 10.3428625,88.9181845 10.5,89 C10.572273,89.0402013 10.6496366,89.070474 10.73,89.09 L10.96,89.09 C11.0987281,89.0809797 11.2361376,89.0575196 11.37,89.02 C11.5402324,88.9673888 11.6971273,88.8787091 11.83,88.76 L12.03,88.59 L12.22,88.33 C12.2884738,88.2264949 12.3454762,88.115843 12.39,88 L12.59,88.05 C12.9633932,88.222346 13.3157111,88.4370922 13.64,88.69 C13.9943261,88.9838088 14.3284187,89.3011967 14.64,89.64 C14.9549449,89.9460741 15.2520983,90.2699379 15.53,90.61 Z M13,87.16 L13.06,87.16 L13.06,87.16 C13.0718311,87.2035881 13.0922282,87.2443822 13.12,87.28 L13,87.16 Z M13.1,86 C13.2011669,86.0028259 13.301262,85.978665 13.39,85.93 C13.3076062,86.0102279 13.2547461,86.1159482 13.24,86.23 C13.2362017,86.35265 13.2750795,86.4728179 13.35,86.57 C13.35,86.57 13.29,86.57 13.27,86.57 C13.25,86.57 13.27,86.57 13.27,86.57 C13.2304263,86.3582347 13.0546116,86.1987748 12.84,86.18 C12.7804562,86.1695364 12.7195438,86.1695364 12.66,86.18 C12.66,85.93 12.66,85.69 12.66,85.45 L12.66,85.45 C12.6431551,85.5816971 12.6804738,85.7145924 12.7634146,85.8182683 C12.8463553,85.9219443 12.9678174,85.987525 13.1,86 L13.1,86 Z M11.61,85.22 C11.6499911,85.852702 11.6499911,86.487298 11.61,87.12 C11.5806443,87.2857577 11.5405601,87.4494352 11.49,87.61 C11.435887,87.7134164 11.3757848,87.8135867 11.31,87.91 L11.1999967,88.01 L11.09,88.08 L11.01,88.08 L11.01,88.08 L11.01,88.08 C10.9809485,88.0473019 10.9573165,88.0101658 10.94,87.97 C10.9027771,87.8389969 10.8760262,87.7052424 10.86,87.57 C10.79,86.82 10.8,86.07 10.76,85.32 L10.76,85.32 C10.96,85.32 11.16,85.32 11.36,85.27 C11.4445546,85.2512714 11.5280142,85.2279027 11.61,85.2 L11.61,85.22 Z M17.61,89.68 C17.76,89.92 17.88,90.18 18.01,90.44 C18.14,90.7 18.31,90.99 18.47,91.26 C18.6398206,91.5496736 18.7901535,91.8503394 18.92,92.16 C19.0402486,92.5645171 19.1206315,92.9798287 19.16,93.4 C19.1851055,93.7562249 19.1851055,94.1137751 19.16,94.47 L19.07,94.47 C18.9373264,94.4598279 18.8055682,94.4989993 18.7,94.58 C18.6032416,94.6684139 18.5426761,94.7895449 18.53,94.92 C18.5065643,95.194865 18.7059372,95.4385429 18.98,95.47 L19.07,95.47 C19.07,95.63 19.02,95.8 19,95.96 C19,95.96 19,95.88 19,95.84 C18.9537173,96.2085398 18.8665126,96.5707748 18.74,96.92 C18.5786062,97.2509004 18.3913586,97.5685525 18.18,97.87 C17.9428523,98.1704598 17.6783898,98.4483128 17.39,98.7 C17.09,98.97 16.78,99.23 16.47,99.47 C16.2876513,99.6097612 16.0936004,99.7335523 15.89,99.84 C15.64,99.98 15.39,100.09 15.13,100.21 C14.67,100.43 14.24,100.69 13.76,100.88 C13.55,100.97 13.33,101.05 13.11,101.12 C12.8699833,101.204629 12.6220719,101.264932 12.37,101.3 C11.8645669,101.35 11.3554331,101.35 10.85,101.3 L10.11,101.3 C9.9,101.3 9.68,101.3 9.46,101.3 C9.24,101.3 8.86,101.17 8.56,101.09 C8.26,101.01 8.17,100.98 7.98,100.91 C7.72829295,100.801213 7.49003774,100.663629 7.27,100.5 C7.08,100.35 6.89,100.19 6.72,100.03 L6,99.27 C5.62404765,98.9222245 5.28858719,98.5330903 5,98.11 C4.59578717,97.5130325 4.26032566,96.8723011 4,96.2 C3.87,95.88 3.75,95.55 3.65,95.2 C3.52602404,94.842517 3.4356332,94.474258 3.38,94.1 C3.32496647,93.6516826 3.32496647,93.1983174 3.38,92.75 C3.38,92.55 3.43,92.35 3.45,92.14 C3.47,91.93 3.45,91.81 3.45,91.64 C3.51271367,91.1807021 3.61988333,90.7285801 3.77,90.29 C3.92,89.99 4.09,89.7 4.25,89.4 C4.46893881,89.0199719 4.70932746,88.6527115 4.97,88.3 C5.4490165,87.6959467 5.99594666,87.1490165 6.6,86.67 C6.77394475,86.5473229 6.95419131,86.4338343 7.14,86.33 L7.52,86.12 C7.5962551,86.2406104 7.72737539,86.3155363 7.87,86.32 C7.9877799,86.3222055 8.10325591,86.2872127 8.2,86.22 C8.26881913,86.2819554 8.35743757,86.3174028 8.45,86.32 C8.58208296,86.3250901 8.71215022,86.2864215 8.82,86.21 C8.91675843,86.1215861 8.9773239,86.0004551 8.99,85.87 C9.00157931,85.7355254 8.95830016,85.6020813 8.87,85.5 L9.01,85.44 L9.31,85.35 L9.25,85.47 C9.25,85.47 9.25,85.47 9.25,85.47 C9.15163567,85.5571911 9.09073425,85.6789939 9.08,85.81 C9.05681708,86.082858 9.2574346,86.323599 9.53,86.35 C9.64676984,86.3558372 9.76236181,86.3243122 9.86,86.26 C9.86,86.34 9.86,86.43 9.86,86.52 C9.64,86.52 9.43,86.59 9.21,86.64 C9.1337449,86.5193896 9.00262461,86.4444637 8.86,86.44 C8.72616716,86.4335967 8.59459954,86.4762673 8.49,86.56 C8.39224693,86.6434475 8.33119419,86.7619616 8.32,86.89 C8.31483327,86.9130473 8.31483327,86.9369527 8.32,86.96 C7.96773425,87.1498768 7.63307894,87.3707493 7.32,87.62 C6.91106234,87.9374324 6.53576483,88.2959755 6.2,88.69 C5.87182307,89.1134031 5.59333355,89.5730786 5.37,90.06 C4.87677777,90.9613505 4.61882441,91.9725277 4.62,93 C4.63673042,93.5053976 4.70372737,94.0078747 4.82,94.5 C4.87,94.73 4.93,94.96 5,95.2 C5.08758166,95.4739101 5.19451766,95.7412501 5.32,96 C5.41285635,96.2038491 5.51978112,96.4009916 5.64,96.59 C5.78,96.81 5.93,97.02 6.09,97.23 C6.22967806,97.4302902 6.3869699,97.6177017 6.56,97.79 C6.73024508,97.9669022 6.91054402,98.1338456 7.1,98.29 C7.46119736,98.5825035 7.8420973,98.8498017 8.24,99.09 C8.67468432,99.3434876 9.14249398,99.5353232 9.63,99.66 C10.06,99.77 10.48,99.86 10.92,99.93 C11.1677584,99.9731087 11.4185434,99.9965153 11.67,100 C11.9394283,100.024848 12.2105717,100.024848 12.48,100 C12.9309898,99.9417873 13.3783591,99.8583229 13.82,99.75 C14.7837814,99.4815983 15.6510301,98.9439041 16.32,98.2 C16.4864559,98.016447 16.6369984,97.819069 16.77,97.61 C17.0298439,97.2203174 17.225653,96.791563 17.35,96.34 C17.42,96.13 17.48,95.91 17.54,95.69 C17.5953464,95.466311 17.6354386,95.2391217 17.66,95.01 C17.674938,94.7568869 17.674938,94.5031131 17.66,94.25 C17.6750654,93.9868821 17.6750654,93.7231179 17.66,93.46 C17.7157525,93.4743952 17.7742475,93.4743952 17.83,93.46 C17.8962547,93.470481 17.9637453,93.470481 18.03,93.46 C18.0656845,93.6811872 18.2468474,93.85 18.47,93.87 C18.6026736,93.8801721 18.7344318,93.8410007 18.84,93.76 C18.9412586,93.6738448 19.005671,93.5521768 19.02,93.42 C19.043161,93.1416294 18.8380799,92.8964237 18.56,92.87 C18.4937453,92.859519 18.4262547,92.859519 18.36,92.87 C18.3277426,92.6470013 18.144718,92.4764557 17.92,92.46 C17.7873264,92.4498279 17.6555682,92.4889993 17.55,92.57 C17.55,92.57 17.55,92.57 17.55,92.57 C17.4514401,92.1689644 17.3175847,91.7774373 17.15,91.4 C17.07,91.23 16.98,91.06 16.89,90.9 L16.89,90.9 C17.0238328,90.9064033 17.1554005,90.8637327 17.26,90.78 C17.3545756,90.6899544 17.4147089,90.5696879 17.43,90.44 C17.4397119,90.3938386 17.4397119,90.3461614 17.43,90.3 L17.43,90.3 C17.5283643,90.2128089 17.5892658,90.0910061 17.6,89.96 C17.6234628,89.6906406 17.4285469,89.4514256 17.16,89.42 C17.0921834,89.3564517 17.002935,89.3207523 16.91,89.32 C16.7764114,89.315379 16.6454478,89.3578537 16.54,89.44 C16.4432416,89.5284139 16.3826761,89.6495449 16.37,89.78 C16.3638833,89.9185252 16.4103151,90.054249 16.5,90.16 L16.5,90.26 C16.3611566,90.061452 16.2109039,89.8711318 16.05,89.69 C16.1586822,89.6838296 16.2630892,89.6455471 16.35,89.58 C16.4512586,89.4938448 16.515671,89.3721768 16.53,89.24 C16.553161,88.9616294 16.3480799,88.7164237 16.07,88.69 L15.94,88.69 C15.859586,88.5884889 15.7393371,88.5265425 15.61,88.52 C15.4761672,88.5135967 15.3445995,88.5562673 15.24,88.64 C15.2146047,88.662158 15.194161,88.6894163 15.18,88.72 C14.7196215,88.2351419 14.198662,87.8116522 13.63,87.46 C13.7191749,87.4497495 13.8047537,87.4189411 13.88,87.37 C13.9499962,87.5252553 14.1000424,87.6291334 14.27,87.64 C14.4026736,87.6501721 14.5344318,87.6110007 14.64,87.53 L14.7,87.44 C14.7771413,87.5320136 14.8899758,87.586611 15.01,87.59 L15.2,87.59 L15.2,87.67 C15.176839,87.9483706 15.3819201,88.1935763 15.66,88.22 C15.7938328,88.2264033 15.9254005,88.1837327 16.03,88.1 C16.03,88.1 16.03,88.1 16.03,88.1 C16.0441443,88.33864 16.2317381,88.5304972 16.47,88.55 C16.5425564,88.5650965 16.6174436,88.5650965 16.69,88.55 C16.83,88.72 16.98,88.89 17.11,89.06 C17.2757825,89.2526886 17.4326149,89.4529001 17.58,89.66 L17.61,89.68 Z M14.85,86.69 C14.8203896,86.6831623 14.7896104,86.6831623 14.76,86.69 C14.7315959,86.7117645 14.7078015,86.7389582 14.69,86.77 C14.6137272,86.6823514 14.5058826,86.628429 14.39,86.62 C14.26892,86.6163586 14.1498283,86.6513856 14.05,86.72 L14.05,86.65 L14.13,86.65 C14.2283643,86.5628089 14.2892658,86.4410061 14.3,86.31 L14.3,86.31 L14.59,86.51 L14.48,86.43 L14.85,86.69 Z M13.45,82.58 C13.38,82.74 13.33,82.91 13.27,83.07 C13.2069352,83.2107059 13.1298809,83.3447134 13.04,83.47 C12.9443654,83.5807555 12.8407555,83.6843654 12.73,83.78 C12.5644968,83.890083 12.3906327,83.9870457 12.21,84.07 C11.9367616,84.16241 11.655565,84.2293616 11.37,84.27 L11.37,84.27 C11.0972338,84.2949 10.8227662,84.2949 10.55,84.27 L10.55,84.27 L10.34,84.14 L10.07,84 C9.81114736,83.610341 9.58055656,83.2026297 9.38,82.78 C9.31975499,82.6345662 9.27289438,82.4839429 9.24,82.33 C9.24,82.19 9.15,82.07 9.1,81.94 L9.49,81.79 L9.49,81.79 C9.73,81.71 9.96,81.62 10.21,81.56 C10.46,81.5 10.66,81.48 10.9,81.46 C11.5365562,81.4365662 12.1737534,81.4835175 12.8,81.6 C13.1427254,81.6791812 13.4774621,81.7896443 13.8,81.93 L13.68,82.08 C13.5817872,82.233471 13.4948904,82.393896 13.42,82.56 L13.45,82.58 Z M14.81,38.66 C14.9206693,38.7087879 15.0276214,38.7656062 15.13,38.83 L15.32,39.03 C15.3879749,39.1354587 15.4481358,39.2457537 15.5,39.36 C15.5685486,39.5692387 15.6220188,39.7831195 15.66,40 L15.84,40.88 C15.9,41.18 15.97,41.48 16.02,41.79 C16.07,42.1 16.13,42.5 16.18,42.86 C16.26,43.55 16.27,44.23 16.33,44.92 C16.39,45.61 16.47,46.36 16.56,47.08 L16.56,47.08 L16.56,47.2 L16.56,47.2 C16.67,48.09 16.73,48.99 16.81,49.89 C16.89,50.79 17.01,51.98 17.1,53.03 C17.19,54.08 17.25,55.03 17.34,56.03 C17.43,57.03 17.51,58.03 17.61,59.03 C17.71,60.03 17.75,61.1 17.81,62.14 C17.87,63.18 17.91,64.14 17.99,65.14 C18.07,66.14 18.14,67.32 18.19,68.41 C18.24,69.5 18.29,70.41 18.38,71.41 C18.38,71.99 18.48,72.57 18.52,73.16 C18.56,73.75 18.58,74.28 18.6,74.84 L18.69,76.46 C18.7351294,76.9823604 18.7351294,77.5076396 18.69,78.03 C18.6549353,78.2885985 18.594648,78.5431449 18.51,78.79 C18.429154,78.9685214 18.3320794,79.1392387 18.22,79.3 C18.0683312,79.4934333 17.8974591,79.6710063 17.71,79.83 L17.31,80.08 C17.2008014,80.1445843 17.0871866,80.2013917 16.97,80.25 C16.8000682,80.3138187 16.6264147,80.3672506 16.45,80.41 L15.8,80.58 C15.5866449,80.6372644 15.379083,80.7142632 15.18,80.81 C14.9612952,80.93135 14.7538118,81.0719032 14.56,81.23 L14.56,81.23 C14.1963383,81.0492047 13.8183918,80.8986951 13.43,80.78 C13.1745283,80.7065782 12.913746,80.6530844 12.65,80.62 C12.35,80.62 12.05,80.54 11.74,80.52 L11.35,80.52 C10.9123143,80.5193881 10.4760451,80.5697268 10.05,80.67 C9.77842583,80.7367303 9.51124727,80.8202236 9.25,80.92 C8.98,81.01 8.71,81.12 8.45,81.23 L8.38,81.23 C8.06244431,81.0874603 7.72540203,80.9930885 7.38,80.95 C6.99,80.89 6.6,80.89 6.2,80.85 L5.96,80.85 L5.67,80.68 C5.52392452,80.5490711 5.39004134,80.4051467 5.27,80.25 C5.10476042,80.0079278 4.96406474,79.7499857 4.85,79.48 C4.7155893,79.0905106 4.60537921,78.6930864 4.52,78.29 C4.42,77.79 4.35,77.29 4.28,76.79 L4.28,76.79 C4.22,76.31 4.17,75.79 4.12,75.35 C4.07,74.91 4,74.25 4,73.76 C4,73.27 3.91,72.69 3.84,72.16 C3.77,71.63 3.71,71.16 3.66,70.62 C3.58,69.62 3.56,68.62 3.49,67.62 C3.49,67.06 3.37,66.51 3.31,65.96 C3.25,65.41 3.21,64.96 3.16,64.42 C3.07,63.34 3.03,62.26 2.95,61.17 C2.87,60.08 2.83,59.1 2.8,58.06 C2.77,57.02 2.73,56.06 2.66,55.06 L2.54,53.65 C2.54,53.16 2.47,52.65 2.44,52.16 L2.26,49.51 C2.21,48.66 2.15,47.82 2.11,46.98 C2.07,46.14 2,45.36 2,44.54 C1.9733636,43.7493142 1.99674357,42.9577353 2.07,42.17 C2.11236281,41.8305997 2.18600947,41.4958422 2.29,41.17 C2.38041411,40.9693153 2.49098173,40.7783349 2.62,40.6 C2.70976673,40.4902651 2.81026513,40.3897667 2.92,40.3 C3.14425927,40.1485892 3.38191928,40.0180436 3.63,39.91 C3.84886922,39.80837 4.05664111,39.6843771 4.25,39.54 C4.33924134,39.6327038 4.46136746,39.6865829 4.59,39.69 L4.79,39.69 C5,39.75 5.21,39.8 5.43,39.84 C5.63464526,39.8786732 5.84188362,39.9020711 6.05,39.91 C6.46333333,39.95 6.87333333,39.98 7.28,40 C7.68,40 8.08,40 8.48,40 C8.88,40 9.35,39.9 9.79,39.85 C10.556875,39.772987 11.314035,39.6188748 12.05,39.39 C12.4244618,39.2635456 12.7808077,39.0887344 13.11,38.87 C13.38,38.69 13.63,38.48 13.89,38.28 C14.1862798,38.4171159 14.4901015,38.5373091 14.8,38.64 L14.81,38.66 Z M12.81,37.07 C12.91,37.22 12.99,37.39 13.08,37.55 L13.17,37.67 C13.006865,37.8118615 12.8366468,37.945366 12.66,38.07 C12.3484293,38.2693156 12.0122823,38.4273047 11.66,38.54 C11.1561407,38.6903158 10.6412108,38.8006579 10.12,38.87 C9.58,38.95 9.04,39.03 8.5,39.08 C7.99888681,39.0818275 7.49807612,39.0551176 7,39 C6.51476182,38.9814877 6.03079262,38.9380973 5.55,38.87 L5,38.76 L5.27,38.37 C5.42,38.19 5.59,38.01 5.75,37.84 C5.91,37.67 6.07,37.5 6.25,37.35 C6.39844908,37.2408527 6.55963502,37.1501856 6.73,37.08 L7.13,37 L7.74,36.82 C8.14830658,36.6623149 8.57001928,36.5418256 9,36.46 C9.28,36.46 9.57,36.46 9.86,36.4 C10.1723556,36.3649938 10.4876444,36.3649938 10.8,36.4 L11.28,36.46 L11.23,36.46 L11.84,36.54 C11.9954538,36.5626972 12.1491533,36.5961101 12.3,36.64 C12.405519,36.6902814 12.505978,36.7505568 12.6,36.82 C12.671193,36.8926103 12.737979,36.9694141 12.8,37.05 L12.81,37.07 Z M11.54,22.5 C11.5264045,22.2538087 11.3353679,22.0542815 11.09,22.03 C10.9573264,22.0198279 10.8255682,22.0589993 10.72,22.14 C10.5869607,22.2757267 10.5404291,22.4741709 10.5992677,22.6548896 C10.6581064,22.8356082 10.8125531,22.9686176 11,23 L11,23 L10.86,23.17 C10.7912572,23.0256246 10.6495983,22.9299092 10.49,22.92 C10.3561672,22.9135967 10.2245995,22.9562673 10.12,23.04 C10.0351832,23.1400976 9.99220511,23.2690319 10,23.4 L10,23.4 C9.93814298,23.4748022 9.89679102,23.5643981 9.88,23.66 C9.87529074,23.6965155 9.87529074,23.7334845 9.88,23.77 C9.81418486,23.718825 9.73336666,23.6907144 9.65,23.69 L9.46,23.69 C9.63116548,23.3075903 9.83879219,22.9425691 10.08,22.6 C10.3462798,22.2686318 10.6370996,21.9577554 10.95,21.67 C11.0166118,21.8370322 11.1709978,21.9528217 11.35,21.97 C11.4808318,21.9767768 11.6094006,21.9339205 11.71,21.85 C11.782481,21.9370645 11.8870597,21.9911568 12,22 L12.09,22 L11.87,22.21 C11.75,22.3 11.65,22.4 11.54,22.5 Z M18.36,16.42 C18.2953314,16.2514902 18.1398766,16.1348991 17.96,16.12 C17.8937453,16.109519 17.8262547,16.109519 17.76,16.12 C17.8516442,16.018438 17.948438,15.9216442 18.05,15.83 C18.1040127,16.0337503 18.2800042,16.1817431 18.49,16.2 L18.61,16.2 L18.36,16.42 Z M20.81,13.9 C20.8018568,13.8289512 20.7779407,13.7606197 20.74,13.7 C20.8401098,13.61416 20.9013939,13.4915918 20.91,13.36 C20.9331829,13.087142 20.7325654,12.846401 20.46,12.82 C20.3261672,12.8135967 20.1945995,12.8562673 20.09,12.94 C19.9870561,13.0247914 19.9222536,13.1471961 19.91,13.28 C19.9041252,13.3905326 19.9358474,13.499798 20,13.59 C19.9054244,13.6800456 19.8452911,13.8003121 19.83,13.93 C19.8189562,14.062704 19.8613043,14.1943313 19.9476559,14.2957005 C20.0340075,14.3970698 20.157228,14.4598057 20.29,14.47 L20.39,14.47 L20.07,14.85 C19.804546,15.1538034 19.520678,15.4410111 19.22,15.71 L19,15.9 C19.0045429,15.860129 19.0045429,15.819871 19,15.78 C19.0188101,15.5210917 18.8363561,15.2908521 18.58,15.25 C18.6652834,15.1613282 18.7454147,15.0678416 18.82,14.97 C18.8899962,15.1252553 19.0400424,15.2291334 19.21,15.24 C19.3438328,15.2464033 19.4754005,15.2037327 19.58,15.12 C19.6767584,15.0315861 19.7373239,14.9104551 19.75,14.78 C19.765684,14.5288431 19.5958306,14.3037874 19.35,14.25 C19.4955881,14.0222361 19.6258753,13.7850466 19.74,13.54 C19.9508581,13.0972334 20.1183076,12.635073 20.24,12.16 C20.24,12.04 20.29,11.92 20.31,11.79 C20.4262092,11.7916383 20.5393594,11.752743 20.63,11.68 C20.7283643,11.5928089 20.7892658,11.4710061 20.8,11.34 C20.8125234,11.0930849 20.6494636,10.8714907 20.41,10.81 C20.41,10.81 20.41,10.76 20.41,10.73 C20.41,10.26 20.41,9.8 20.41,9.33 C20.4176217,8.36754723 20.293127,7.40860119 20.04,6.48 C20,6 19.85,5.6 19.69,5.18 C19.6203139,4.98907975 19.5401932,4.80213147 19.45,4.62 C19.3541431,4.40022691 19.2333509,4.19219592 19.09,4 C18.8047675,3.59761612 18.4407337,3.25739757 18.02,3 C17.6026618,2.74937257 17.1463794,2.57023949 16.67,2.47 C16.43,2.47 16.19,2.38 15.94,2.35 C15.6770506,2.32989029 15.4129494,2.32989029 15.15,2.35 C14.8850343,2.35683765 14.6209573,2.38357963 14.36,2.43 C14.1073218,2.46552602 13.8569052,2.51560934 13.61,2.58 C13.3384615,2.64660818 13.0787662,2.75453347 12.84,2.9 C12.6709106,2.99508673 12.5132239,3.10915796 12.37,3.24 C12.2238107,3.38613685 12.0931164,3.5469914 11.98,3.72 C11.6751403,4.14896609 11.4826122,4.64747628 11.42,5.17 C11.3749126,5.70238042 11.3749126,6.23761958 11.42,6.77 C11.4480587,7.25910534 11.5014637,7.74642646 11.58,8.23 C11.5950505,8.40300662 11.5950505,8.57699338 11.58,8.75 L11.53,8.75 L11.17,8.85 L10.93,8.85 L10.79,8.85 L10.66,8.77 L10.66,8.77 L10.57,8.61 C10.512791,8.44307125 10.4660338,8.27274155 10.43,8.1 C10.37,7.85 10.32,7.59 10.28,7.33 C10.193477,6.31293311 10.2270415,5.28921504 10.38,4.28 C10.4233067,3.91369558 10.5002993,3.55216496 10.61,3.2 C10.7456515,2.90474371 10.9097608,2.62341344 11.1,2.36 C11.2924498,2.13929062 11.503199,1.93523187 11.73,1.75 C11.86,1.65 11.99,1.57 12.13,1.48 C12.2817395,1.39657066 12.4387365,1.32308272 12.6,1.26 L12.6,1.26 C12.8160502,1.17559184 13.0407373,1.11522815 13.27,1.08 L13.27,1.08 C13.51,1.08 13.76,1.02 14,1.01 C14.2431024,0.995008272 14.4868976,0.995008272 14.73,1.01 C15.18,1.01 15.64,1.07 16.09,1.12 C16.3939182,1.16309663 16.694596,1.22657304 16.99,1.31 C17.2358829,1.38345611 17.4764459,1.47366722 17.71,1.58 C18.0512342,1.71927417 18.3850158,1.87615152 18.71,2.05 C18.972582,2.19119286 19.2263792,2.34814639 19.47,2.52 C19.8145657,2.81943032 20.126318,3.15464784 20.4,3.52 C20.5459329,3.71588259 20.6700039,3.92713866 20.77,4.15 C20.9537358,4.60241299 21.0943594,5.07115843 21.19,5.55 C21.25,5.84 21.29,6.15 21.34,6.44 C21.39,6.73 21.42,7.02 21.47,7.3 L21.47,7.3 C21.5551025,8.02348079 21.5951796,8.75154955 21.59,9.48 L21.59,9.55 C21.5223265,9.38539753 21.3674854,9.27313778 21.19,9.26 C21.0561672,9.25359671 20.9245995,9.29626729 20.82,9.38 C20.7254244,9.47004564 20.6652911,9.5903121 20.65,9.72 C20.6268171,9.99285796 20.8274346,10.233599 21.1,10.26 L21.1,10.26 L21.04,10.26 C20.9402951,10.3473929 20.8762259,10.4684123 20.86,10.6 C20.836839,10.8783706 21.0419201,11.1235763 21.32,11.15 C21.3862547,11.160481 21.4537453,11.160481 21.52,11.15 C21.52,11.29 21.52,11.43 21.52,11.57 C21.4311836,12.2517665 21.270283,12.9221855 21.04,13.57 C20.972004,13.6857961 20.8951055,13.7961287 20.81,13.9 Z" id="Shape"></path>
                        <path d="M12.49,64.51 C12.4471875,64.5004983 12.4028125,64.5004983 12.36,64.51 L12,64.6 L11.95,64.6 C11.95,64.15 11.86,63.7 11.82,63.25 C11.78,62.8 11.77,62.5 11.74,62.13 C11.8551086,62.1163214 11.9688496,62.0929041 12.08,62.06 C12.3561424,62.0185786 12.5464214,61.7611424 12.505,61.485 C12.4635786,61.2088576 12.2061424,61.0185786 11.93,61.06 L11.8,61.06 L11.63,61.06 C11.57,60.47 11.5,59.88 11.43,59.29 C11.57,59.29 11.7,59.29 11.83,59.23 L12.04,59.23 C12.3154098,59.2140848 12.5304595,58.9858689 12.53,58.71 C12.4766732,58.4625509 12.2529101,58.2894512 12,58.3 L12,58.3 L11.4,58.39 L11.3,58.39 C11.2,57.62 11.09,56.86 11.05,56.09 C11.0264494,56.064377 11.0093135,56.0335325 11,56 C11.21,56 11.43,55.95 11.64,55.91 C11.9050967,55.8326801 12.0573199,55.5550967 11.98,55.29 C11.9412286,55.16303 11.8553624,55.0556972 11.74,54.99 C11.6694198,54.9514259 11.5904291,54.9308197 11.51,54.93 L11.36,54.93 L11.36,54.93 L11,55 C11,54.9 11,54.8 11,54.7 C11,54.22 10.92,53.7 10.88,53.25 C10.88,53.04 10.88,52.83 10.83,52.62 L11.44,52.54 C11.5674613,52.5021639 11.6751074,52.416047 11.74,52.3 C11.7842897,52.1772049 11.7842897,52.0427951 11.74,51.92 C11.7012286,51.79303 11.6153624,51.6856972 11.5,51.62 C11.4294198,51.5814259 11.3504291,51.5608197 11.27,51.56 L11.12,51.56 L10.99,51.56 L11.11,51.56 L10.72,51.56 C10.72,51.13 10.72,50.71 10.64,50.29 C10.56,49.87 10.64,49.69 10.56,49.39 L10.75,49.39 L10.94,49.39 L11,49.39 C11.0522781,49.4050037 11.1077219,49.4050037 11.16,49.39 C11.2506533,49.3595067 11.3328659,49.3081239 11.4,49.24 C11.5431704,49.0997646 11.5865123,48.8864794 11.509432,48.7014867 C11.4323517,48.5164939 11.2503877,48.3970862 11.05,48.4 C10.9740757,48.3849118 10.8959243,48.3849118 10.82,48.4 L10.45,48.4 C10.4447866,48.3167482 10.4447866,48.2332518 10.45,48.15 C10.45,47.87 10.45,47.59 10.38,47.31 C10.3648625,47.0186545 10.3348232,46.7282746 10.29,46.44 C10.29,46.37 10.29,46.29 10.29,46.22 L10.48,46.22 C10.653563,46.222364 10.8271313,46.2156883 11,46.2 C11.2614625,46.1181983 11.4115871,45.8444417 11.34,45.58 C11.2767761,45.3630652 11.0759152,45.2154939 10.85,45.22 L10.72,45.22 L10.72,45.22 L10.19,45.28 C10.19,45.09 10.14,44.89 10.12,44.7 C10.12,44.33 10.04,43.95 9.99,43.59 L10.28,43.59 C10.5181603,43.5421304 10.6895012,43.3329235 10.6895012,43.09 C10.6895012,42.8470765 10.5181603,42.6378696 10.28,42.59 L10.28,42.59 L9.71,42.59 L9.71,42.59 C9.65766677,42.499069 9.59000319,42.4178727 9.51,42.35 C9.30672076,42.179085 9.06170752,42.0652056 8.8,42.02 L8.63,42.02 C8.32402432,42.0238131 8.0366359,42.1675073 7.85,42.41 C7.76945968,42.5164697 7.70540846,42.6344587 7.66,42.76 C7.65559489,42.7931878 7.65559489,42.8268122 7.66,42.86 L6.76,42.99 C6.62939361,42.9975818 6.50556364,43.0506518 6.41,43.14 C6.3205433,43.2386343 6.27068429,43.3668431 6.27,43.5 C6.27661135,43.6328351 6.33386973,43.7580878 6.43,43.85 C6.50053168,43.9289892 6.59567165,43.9818448 6.7,44 L7.43,43.89 L7.43,44.72 C7.43,45.03 7.43,45.34 7.43,45.65 L7.03,45.71 C6.89834272,45.712937 6.77292491,45.7666875 6.68,45.86 C6.5905433,45.9586343 6.54068429,46.0868431 6.54,46.22 C6.55084266,46.4977468 6.78209934,46.7156617 7.06,46.71 L7.44,46.65 L7.44,46.72 C7.44,47.44 7.44,48.16 7.44,48.88 C7.25,48.88 7.06,48.94 6.87,48.99 C6.69136719,49.0400172 6.55298751,49.1815344 6.50698726,49.3612436 C6.46098701,49.5409527 6.51435471,49.7315516 6.64698727,49.8612436 C6.77961983,49.9909355 6.9713672,50.0400172 7.15,49.99 L7.44,49.94 C7.44,50.06 7.44,50.18 7.44,50.3 C7.44,50.76 7.44,51.22 7.44,51.68 L7.44,52.13 L7,52.15 C6.72225323,52.1608427 6.50433828,52.3920993 6.51,52.67 C6.52083868,52.9422237 6.74761946,53.1556645 7.02,53.15 L7.59,53.09 C7.59,53.47 7.59,53.85 7.59,54.22 C7.59,54.59 7.59,55.04 7.59,55.44 C7.45,55.44 7.31,55.49 7.17,55.5 C7.03831265,55.5111457 6.91459032,55.5677045 6.82,55.66 C6.72755416,55.7561215 6.68029576,55.8869909 6.69,56.02 C6.69341706,56.1486325 6.74729622,56.2707587 6.84,56.36 C6.93285078,56.4584144 7.06505522,56.5098273 7.2,56.5 L7.63,56.44 C7.63,56.52 7.63,56.59 7.63,56.67 C7.63,57.04 7.63,57.4 7.63,57.77 L7.63,58.68 C7.46,58.68 7.3,58.68 7.13,58.68 C6.85620699,58.6960708 6.64415102,58.9257981 6.65,59.2 C6.66083868,59.4722237 6.88761946,59.6856645 7.16,59.68 L7.67,59.68 L7.67,60.38 C7.67,60.73 7.67,61.08 7.73,61.38 C7.72501062,61.4665949 7.72501062,61.5534051 7.73,61.64 L7.21,61.72 C7.08253875,61.7578361 6.97489258,61.843953 6.91,61.96 C6.86485269,62.0826437 6.86485269,62.2173563 6.91,62.34 C6.95428941,62.4639755 7.0387704,62.5695767 7.15,62.64 C7.27264375,62.6851473 7.40735625,62.6851473 7.53,62.64 L7.79,62.64 L7.79,62.64 C7.79,63.09 7.79,63.54 7.86,63.98 L7.92,64.98 L7.49,64.98 C7.35977694,64.9891861 7.23646099,65.0420358 7.14,65.13 C7.0505433,65.2286343 7.00068429,65.3568431 7,65.49 C7.01084266,65.7677468 7.24209934,65.9856617 7.52,65.98 L7.99,65.98 C7.99,66.17 7.99,66.36 7.99,66.56 C7.99,67.23 8.11,67.9 8.14,68.56 C8.17100883,68.8329297 8.40540208,69.0369386 8.68,69.03 C8.77909796,69.079111 8.88984206,69.0998755 9,69.09 C9.40435959,69.0342814 9.81184142,69.0042212 10.22,69 C10.46,69 10.69,69 10.92,68.94 L11.19,68.94 L11.44,68.87 C11.5648371,68.8218211 11.6775129,68.7467039 11.77,68.65 C11.9149798,68.4639281 11.9956858,68.2358459 12,68 C12.0251302,67.7506315 12.0251302,67.4993685 12,67.25 C12,66.86 12,66.47 12,66.09 C12.0102973,65.926829 12.0102973,65.763171 12,65.6 C12.22,65.6 12.43,65.53 12.64,65.48 C12.9010707,65.3983886 13.0481058,65.1221408 12.97,64.86 C12.9070232,64.6485883 12.7105427,64.5053212 12.49,64.51 L12.49,64.51 Z M8.49,52 C8.49,51.61 8.49,51.2 8.49,50.8 C8.49,50.4 8.49,50.11 8.49,49.8 C8.85,49.8 9.22,49.73 9.58,49.68 C9.58,50.15 9.66,50.61 9.68,51.08 L9.74,51.85 L9.74,51.85 C9.3,51.82 8.89,51.89 8.49,52 Z M8.43,43.81 L8.75,43.81 L8.97,43.81 C8.97,43.95 8.97,44.08 8.97,44.22 C8.97,44.36 9.02,44.7 9.05,44.94 C9.08,45.18 9.1,45.33 9.12,45.52 L8.38,45.63 C8.38,45.31 8.38,45 8.38,44.63 L8.43,43.81 Z M9.27,46.45 C9.27,46.58 9.27,46.71 9.27,46.85 C9.27,47.24 9.34,47.63 9.37,48.03 L9.43,48.66 L9.33,48.66 C9.03,48.66 8.73,48.72 8.42,48.75 C8.42,48.54 8.42,48.33 8.42,48.12 C8.42,47.59 8.42,47.06 8.42,46.53 L9.27,46.45 Z M9.08,52.9 L9.2,52.9 L9.2,52.9 L9.78,52.83 C9.78,53.19 9.83,53.55 9.86,53.9 C9.89,54.25 9.94,54.76 9.98,55.19 L9.83,55.19 L9,55.23 L8.68,55.29 C8.68,55.1 8.68,54.91 8.68,54.72 C8.68,54.28 8.68,53.85 8.68,53.42 C8.68,53.26 8.68,53.11 8.68,52.95 L9.28,52.85 L9.08,52.9 Z M8.74,58.28 C8.74,57.89 8.74,57.49 8.74,57.1 C8.74,56.71 8.74,56.58 8.74,56.32 L8.85,56.32 C9.27,56.26 9.69,56.22 10.11,56.18 C10.11,56.36 10.11,56.54 10.11,56.72 C10.11,57.19 10.21,57.66 10.28,58.12 C10.28,58.26 10.28,58.41 10.28,58.55 L9.61,58.55 L8.74,58.63 C8.75,58.49 8.74,58.37 8.74,58.24 L8.74,58.28 Z M8.86,60.76 C8.86,60.39 8.81,60.02 8.8,59.66 C9.17333333,59.62 9.54333333,59.59 9.91,59.57 L10.42,59.57 L10.42,59.66 C10.47,60.12 10.53,60.58 10.58,61.04 C10.58,61.16 10.58,61.28 10.58,61.4 L10.25,61.46 L9.04,61.59 L8.83,61.59 C8.88,61.27 8.88,61 8.86,60.72 L8.86,60.76 Z M9,64.5 C9,64.08 9,63.67 8.94,63.26 L8.94,62.54 L9.26,62.54 C9.62,62.54 9.98,62.48 10.34,62.42 L10.75,62.35 C10.75,62.35 10.75,62.41 10.75,62.44 C10.75,63.22 10.88,64.01 10.95,64.79 C10.64,64.79 10.32,64.89 10,64.92 L9,65 L9,64.5 Z M11,68 L10.8,68 L10.35,68 L9.84,68 L9.25,68 L9.19,67.16 L9.13,66.45 C9.13,66.27 9.13,66.09 9.13,65.9 L10.4,65.77 L11.03,65.68 C11.03,65.96 11.03,66.24 11.08,66.52 C11.13,66.8 11.08,67.18 11.08,67.52 C11.0688134,67.6592371 11.0419775,67.7967709 11,67.93 L11,68 Z" id="Shape"></path>
                        <path d="M6.46,33.63 C6.59383284,33.6364033 6.72540046,33.5937327 6.83,33.51 C6.9301098,33.42416 6.99139388,33.3015918 7,33.17 C7.02318292,32.897142 6.8225654,32.656401 6.55,32.63 C6.41616716,32.6235967 6.28459954,32.6662673 6.18,32.75 C6.08029506,32.8373929 6.01622594,32.9584123 6,33.09 C5.98254151,33.3646228 6.18609446,33.6035762 6.46,33.63 L6.46,33.63 Z" id="Path"></path>
                        <path d="M6.67,32.29 C6.65895619,32.422704 6.70130429,32.5543313 6.78765588,32.6557005 C6.87400747,32.7570698 6.99722801,32.8198057 7.13,32.83 C7.25941727,32.838619 7.38750242,32.7994818 7.49,32.72 C7.58970494,32.6326071 7.65377406,32.5115877 7.67,32.38 C7.67611671,32.2414748 7.62968486,32.105751 7.54,32 L7.54,32 C7.64125858,31.9138448 7.70567105,31.7921768 7.72,31.66 C7.73104381,31.527296 7.68869571,31.3956687 7.60234412,31.2942995 C7.51599253,31.1929302 7.39277199,31.1301943 7.26,31.12 C7.12791704,31.1149099 6.99784978,31.1535785 6.89,31.23 C6.79674848,31.3210186 6.73686395,31.4407876 6.72,31.57 C6.71386489,31.7068638 6.75637565,31.8414813 6.84,31.95 L6.84,31.95 C6.74542436,32.0400456 6.68529113,32.1603121 6.67,32.29 L6.67,32.29 Z" id="Path"></path>
                        <path d="M8.6,31.55 C8.74274097,31.5692064 8.88715149,31.5294935 9,31.44 L9,31.39 C9.03966083,31.3760594 9.0768068,31.3557979 9.11,31.33 C9.20905039,31.2462935 9.27324861,31.1285968 9.29,31 C9.29554549,30.9568441 9.29554549,30.9131559 9.29,30.87 C9.3598275,30.8508186 9.42465532,30.8166987 9.48,30.77 C9.57675843,30.6815861 9.6373239,30.5604551 9.65,30.43 C9.67318292,30.157142 9.4725654,29.916401 9.2,29.89 C9.06616716,29.8835967 8.93459954,29.9262673 8.83,30.01 C8.72705613,30.0947914 8.66225363,30.2171961 8.65,30.35 C8.64590878,30.3932368 8.64590878,30.4367632 8.65,30.48 C8.5838529,30.4956916 8.52224152,30.5264973 8.47,30.57 C8.46576611,30.5863978 8.46576611,30.6036022 8.47,30.62 C8.42809326,30.6359346 8.38789176,30.6560354 8.35,30.68 C8.25542436,30.7700456 8.19529113,30.8903121 8.18,31.02 C8.16118993,31.2789083 8.34364394,31.5091479 8.6,31.55 Z" id="Path"></path>
                        <path d="M17.46,91.59 C17.436839,91.8683706 17.6419201,92.1135763 17.92,92.14 C18.0505657,92.1448694 18.178469,92.102235 18.28,92.02 C18.3812586,91.9338448 18.445671,91.8121768 18.46,91.68 C18.4710438,91.547296 18.4286957,91.4156687 18.3423441,91.3142995 C18.2559925,91.2129302 18.132772,91.1501943 18,91.14 C17.8673264,91.1298279 17.7355682,91.1689993 17.63,91.25 C17.5354244,91.3400456 17.4752911,91.4603121 17.46,91.59 Z" id="Path"></path>
                        <path d="M18.14,95.75 C18.0073264,95.7398279 17.8755682,95.7789993 17.77,95.86 C17.6767485,95.9510186 17.616864,96.0707876 17.6,96.2 C17.576839,96.4783706 17.7819201,96.7235763 18.06,96.75 C18.1905657,96.7548694 18.318469,96.712235 18.42,96.63 C18.5212586,96.5438448 18.585671,96.4221768 18.6,96.29 C18.6110438,96.157296 18.5686957,96.0256687 18.4823441,95.9242995 C18.3959925,95.8229302 18.272772,95.7601943 18.14,95.75 Z" id="Path"></path>
                        <path d="M6.7,87.76 C6.83383284,87.7664033 6.96540046,87.7237327 7.07,87.64 C7.1701098,87.55416 7.23139388,87.4315918 7.24,87.3 C7.26318292,87.027142 7.0625654,86.786401 6.79,86.76 C6.65616716,86.7535967 6.52459954,86.7962673 6.42,86.88 C6.32029506,86.9673929 6.25622594,87.0884123 6.24,87.22 C6.22770153,87.4928804 6.42863502,87.7287588 6.7,87.76 L6.7,87.76 Z" id="Path"></path>
                        <path d="M15.38,78.81 C15.4656095,78.9130132 15.5889709,78.9773708 15.7224381,78.9886497 C15.8559052,78.9999286 15.9883174,78.9571857 16.09,78.87 C16.2576502,78.7155714 16.4054504,78.5408984 16.53,78.35 C16.6990972,78.1067507 16.8400013,77.8450716 16.95,77.57 C16.9978959,77.4455052 16.9929673,77.3068645 16.9363519,77.186085 C16.8797365,77.0653055 16.7763282,76.9728273 16.65,76.93 C16.5970949,76.9204424 16.5429051,76.9204424 16.49,76.93 C16.2816551,76.9351042 16.0948442,77.0596448 16.01,77.25 C15.9627247,77.3693421 15.9093203,77.4861642 15.85,77.6 C15.7447814,77.7680418 15.6278236,77.928441 15.5,78.08 L15.44,78.14 C15.2503021,78.3144872 15.2243233,78.6045837 15.38,78.81 L15.38,78.81 Z" id="Path"></path>
                        <path d="M16.7,75.91 C16.8207475,75.9647637 16.9592525,75.9647637 17.08,75.91 C17.2016814,75.8566701 17.2958173,75.755293 17.34,75.63 L17.43,75.22 C17.43,74.98 17.5,74.74 17.52,74.49 C17.54,74.24 17.52,74.18 17.52,74.03 C17.5350627,73.7468669 17.5350627,73.4631331 17.52,73.18 C17.5311457,73.0486113 17.4877497,72.9184235 17.4,72.82 C17.3152086,72.7170561 17.1928039,72.6522536 17.06,72.6399749 L17.06,72.6399749 C16.9391099,72.6387888 16.821875,72.6814197 16.73,72.76 C16.6287414,72.8461552 16.564329,72.9678232 16.55,73.1 C16.55,73.3533333 16.55,73.6033333 16.55,73.85 C16.5348046,74.2753115 16.4947362,74.6993695 16.43,75.12 C16.4251746,75.1765639 16.4251746,75.2334361 16.43,75.29 C16.3794039,75.415077 16.3794039,75.554923 16.43,75.68 C16.4895835,75.7865009 16.5853809,75.8681061 16.7,75.91 L16.7,75.91 Z" id="Path"></path>
                        <path d="M16.46,70.08 C16.4472377,70.2146073 16.4906642,70.3485056 16.58,70.45 C16.7073503,70.6072843 16.9182928,70.6700955 17.1109385,70.6080946 C17.3035841,70.5460937 17.4382937,70.3720382 17.45,70.17 C17.4465679,69.8588225 17.4231866,69.5481852 17.38,69.24 C17.336122,69.0049818 17.1290447,68.8359391 16.89,68.84 L16.8,68.84 C16.6681893,68.8641917 16.5516069,68.9402836 16.4764048,69.0512067 C16.4012027,69.1621298 16.3736762,69.2985985 16.4,69.43 C16.4,69.56 16.4,69.71 16.4,69.85 C16.4,69.99 16.46,70 16.46,70.08 Z" id="Path"></path>
                        <path d="M13.87,39.82 C13.7974436,39.8049035 13.7225564,39.8049035 13.65,39.82 C13.5352992,39.87971 13.4463851,39.9792938 13.4,40.1 C13.3448077,40.2241419 13.3448077,40.3658581 13.4,40.49 C13.5988295,40.8032635 13.7599465,41.138924 13.88,41.49 C13.97,41.79 14.06,42.09 14.13,42.39 C14.2,42.69 14.25,43.08 14.29,43.39 C14.3453779,43.6614521 14.6073333,43.8390489 14.88,43.79 C15.0099694,43.7635027 15.1240839,43.6864477 15.1972276,43.5757945 C15.2703712,43.4651412 15.2965493,43.3299587 15.27,43.2 C15.27,42.94 15.2,42.69 15.16,42.43 C15.1098535,42.1561871 15.0430629,41.8856854 14.96,41.62 C14.8930379,41.344067 14.8061431,41.0733563 14.7,40.81 C14.5884623,40.548972 14.4546337,40.2980434 14.3,40.06 C14.24029,39.9452992 14.1407062,39.8563851 14.02,39.81 C13.9697805,39.8059053 13.9192315,39.8092752 13.87,39.82 Z" id="Path"></path>
                        <path d="M14.93,45.15 C14.8130091,45.1535683 14.70049,45.1957629 14.61,45.27 C14.5079853,45.3543391 14.4462624,45.4777848 14.44,45.61 C14.44,46.06 14.44,46.51 14.52,46.96 C14.5441472,47.0891868 14.6191779,47.2032584 14.7282393,47.2765928 C14.8373007,47.3499272 14.9712499,47.3763765 15.1,47.35 C15.2290894,47.3287269 15.3443108,47.2567135 15.42,47.15 C15.4911371,47.0369297 15.5195109,46.9021541 15.5,46.77 C15.5,46.55 15.5,46.33 15.45,46.11 C15.4,45.89 15.45,45.83 15.45,45.69 C15.4731829,45.417142 15.2725654,45.176401 15,45.15 L14.93,45.15 Z" id="Path"></path>
                    </g>
                </g>
            </g>
        </g>
    </g>
</svg>