<?xml version="1.0" encoding="UTF-8"?>
<svg width="56px" height="65px" viewBox="0 0 56 65" version="1.1" xmlns="http://www.w3.org/2000/svg" xmlns:xlink="http://www.w3.org/1999/xlink">
    <title>Shape</title>
    <g id="Page-1" stroke="none" stroke-width="1" fill="none" fill-rule="evenodd">
        <g id="Homepage-Final" transform="translate(-380.000000, -3117.000000)" fill="#FFFFFF" fill-rule="nonzero">
            <g id="PRODUCTS" transform="translate(0.000000, 2593.000000)">
                <g id="row-2" transform="translate(102.000000, 500.000000)">
                    <g id="p-box-2" transform="translate(208.800000, 0.000000)">
                        <path d="M123.128224,55.2429677 C120.508539,54.2892778 118.207244,50.3989934 117.117313,45.0840977 C116.656757,42.8657323 116.422778,40.4992783 116.422778,38.0528566 C116.422778,35.2821211 116.733763,32.5469268 117.318713,30.1434507 C117.391276,29.8502355 117.278729,29.5436924 117.034383,29.3674671 C113.496549,26.8129407 109.582571,25.0136657 105.39759,24.0199919 C105.286524,23.993336 105.172496,23.993336 105.058467,24.0199919 C100.168586,25.1661968 94.4138673,25.163235 89.5373135,24.0199919 C89.4232854,23.993336 89.3107382,23.993336 89.1952291,24.0199919 C85.1124297,25.0003377 81.2798997,26.7477818 77.8057439,29.2164168 C77.5569553,29.3926421 77.4429271,29.702147 77.5154905,29.9968431 C78.1300577,32.4980576 78.4410435,35.2095577 78.4410435,38.0543375 C78.4410435,40.5007592 78.2070637,42.8672132 77.7465085,45.0855786 C76.6180743,50.5263495 74.2545821,54.4388472 71.5756615,55.3007222 C70.6338187,55.6028227 70,56.4528506 70,57.4154257 L70,86.4481728 C70,87.6728645 70.9966355,88.6695 72.2213272,88.6695 L122.393705,88.6695 C123.618397,88.6695 124.615032,87.6728645 124.615032,86.4481728 L124.615032,57.3265726 C124.612071,56.3876916 124.030083,55.5702432 123.128224,55.2429677 Z M104.800793,25.5823254 L97.4245061,49.4482653 L90.0807983,25.6385991 C94.8003782,26.6056169 100.09158,26.5922889 104.800793,25.5823254 Z M71.4779231,86.4466919 L71.4779231,57.4124639 C71.4779231,57.0911119 71.6941322,56.8156673 72.0258504,56.7060819 C75.2601029,55.6679816 77.9390236,51.432651 79.1918521,45.3832365 C79.6731397,43.0671326 79.9174857,40.5999785 79.9174857,38.0513757 C79.9174857,35.2732358 79.6316749,32.6135666 79.0659769,30.1360463 C81.9951671,28.1235238 85.1879548,26.6633714 88.5614104,25.7363375 L96.6825828,52.0679506 L96.6825828,87.1856583 L72.2183655,87.1856583 C71.8096413,87.1871343 71.4779231,86.8539352 71.4779231,86.4466919 Z M123.131186,86.4466919 C123.131186,86.8539352 122.797987,87.1871343 122.390743,87.1871343 L98.1634677,87.1871343 L98.1634677,52.0649888 L106.280197,25.8074199 C109.656615,26.7566671 112.846441,28.2375519 115.766746,30.2796921 C115.227704,32.6742829 114.941893,35.3487609 114.941893,38.0498948 C114.941893,40.5984976 115.186239,43.0656517 115.666045,45.3802747 C116.874447,51.2816007 119.474881,55.4873137 122.620281,56.6320376 C122.929786,56.7445849 123.131186,57.0170677 123.131186,57.3250917 L123.131186,86.4466919 L123.131186,86.4466919 Z M84.0698868,50.1191062 L88.3733381,50.1191062 C89.5980298,50.1191062 90.5946653,49.1224707 90.5946653,47.8977789 L90.5946653,39.7988198 L81.8485595,39.7988198 L81.8485595,47.8977789 C81.8485595,49.1224707 82.8437141,50.1191062 84.0698868,50.1191062 Z M88.3733381,48.6382213 L84.0698868,48.6382213 C83.6626434,48.6382213 83.3294443,48.3050222 83.3294443,47.8977789 L83.3294443,44.2414743 L89.1137805,44.2414743 L89.1137805,47.8977789 C89.1137805,48.3050222 88.7805814,48.6382213 88.3733381,48.6382213 Z M89.1137805,41.2797046 L89.1137805,42.7605894 L83.3294443,42.7605894 L83.3294443,41.2797046 L89.1137805,41.2797046 Z M77.405905,54.6076681 L77.405905,64.3267152 C77.405905,65.5514069 78.4025405,66.5480424 79.6272323,66.5480424 L90.0867218,66.5480424 C91.3114136,66.5480424 92.3080491,65.5514069 92.3080491,64.3267152 L92.3080491,54.6076681 L77.405905,54.6076681 L77.405905,54.6076681 Z M90.8256833,56.0885529 L90.8256833,57.5694377 L78.885309,57.5694377 L78.885309,56.0885529 L90.8256833,56.0885529 Z M90.0852409,65.0656767 L79.6257514,65.0656767 C79.2185081,65.0656767 78.885309,64.7324776 78.885309,64.3252343 L78.885309,59.0488417 L90.8256833,59.0488417 L90.8256833,64.3252343 C90.8256833,64.7339585 90.4924843,65.0656767 90.0852409,65.0656767 Z M74.3508396,83.0214053 C74.3508396,84.246097 75.3474751,85.2427325 76.5721669,85.2427325 L90.0852409,85.2427325 C91.3099327,85.2427325 92.3065682,84.246097 92.3065682,83.0214053 L92.3065682,70.8959203 L74.3508396,70.8959203 L74.3508396,83.0214053 Z M75.8317245,83.0214053 L75.8317245,75.3385748 L81.6160606,75.3385748 L81.6160606,83.7618477 L76.5721669,83.7618477 C76.1649235,83.7618477 75.8317245,83.4301295 75.8317245,83.0214053 Z M90.0852409,83.7618477 L83.0969454,83.7618477 L83.0969454,75.3385748 L90.8256833,75.3385748 L90.8256833,83.0214053 C90.8256833,83.4301295 90.4924843,83.7618477 90.0852409,83.7618477 Z M90.8256833,73.8591708 L83.0969454,73.8591708 L83.0969454,72.378286 L90.8256833,72.378286 L90.8256833,73.8591708 Z M81.6160606,72.378286 L81.6160606,73.8591708 L75.8317245,73.8591708 L75.8317245,72.378286 L81.6160606,72.378286 Z M106.472712,50.1191062 L110.776164,50.1191062 C112.000855,50.1191062 112.997491,49.1224707 112.997491,47.8977789 L112.997491,39.7988198 L104.251385,39.7988198 L104.251385,47.8977789 C104.251385,49.1224707 105.248021,50.1191062 106.472712,50.1191062 Z M110.777645,48.6382213 L106.474193,48.6382213 C106.06695,48.6382213 105.733751,48.3050222 105.733751,47.8977789 L105.733751,44.2414743 L111.518087,44.2414743 L111.518087,47.8977789 C111.518087,48.3050222 111.184888,48.6382213 110.777645,48.6382213 Z M111.518087,41.2797046 L111.518087,42.7605894 L105.733751,42.7605894 L105.733751,41.2797046 L111.518087,41.2797046 Z M104.76081,66.5465616 L115.220299,66.5465616 C116.444991,66.5465616 117.441626,65.5499261 117.441626,64.3252343 L117.441626,54.6061872 L102.539482,54.6061872 L102.539482,64.3252343 C102.539482,65.5499261 103.536118,66.5465616 104.76081,66.5465616 Z M115.220299,65.0656767 L104.76081,65.0656767 C104.353566,65.0656767 104.020367,64.7324776 104.020367,64.3252343 L104.020367,59.0488417 L115.960742,59.0488417 L115.960742,64.3252343 C115.960742,64.7339585 115.627542,65.0656767 115.220299,65.0656767 Z M115.960742,56.0885529 L115.960742,57.5694377 L104.020367,57.5694377 L104.020367,56.0885529 L115.960742,56.0885529 Z M102.539482,83.0214053 C102.539482,84.246097 103.536118,85.2427325 104.76081,85.2427325 L118.273884,85.2427325 C119.498575,85.2427325 120.495211,84.246097 120.495211,83.0214053 L120.495211,70.8959203 L102.539482,70.8959203 L102.539482,83.0214053 Z M104.020367,83.0214053 L104.020367,75.3385748 L111.749105,75.3385748 L111.749105,83.7618477 L104.76081,83.7618477 C104.353566,83.7618477 104.020367,83.4301295 104.020367,83.0214053 Z M118.273884,83.7618477 L113.22999,83.7618477 L113.22999,75.3385748 L119.014326,75.3385748 L119.014326,83.0214053 C119.014326,83.4301295 118.682608,83.7618477 118.273884,83.7618477 Z M119.014326,73.8591708 L113.22999,73.8591708 L113.22999,72.378286 L119.014326,72.378286 L119.014326,73.8591708 Z M111.749105,72.378286 L111.749105,73.8591708 L104.020367,73.8591708 L104.020367,72.378286 L111.749105,72.378286 Z" id="Shape"></path>
                    </g>
                </g>
            </g>
        </g>
    </g>
</svg>