<?xml version="1.0" encoding="UTF-8"?>
<svg width="68px" height="68px" viewBox="0 0 68 68" version="1.1" xmlns="http://www.w3.org/2000/svg" xmlns:xlink="http://www.w3.org/1999/xlink">
    <title>laser-cutting-machine</title>
    <g id="Page-1" stroke="none" stroke-width="1" fill="none" fill-rule="evenodd">
        <g id="Homepage-Final" transform="translate(-583.000000, -3116.000000)" fill="#FFFFFF" fill-rule="nonzero">
            <g id="PRODUCTS" transform="translate(0.000000, 2593.000000)">
                <g id="row-2" transform="translate(102.000000, 500.000000)">
                    <g id="p-box-3" transform="translate(417.600000, 0.000000)">
                        <g id="laser-cutting-machine" transform="translate(64.000000, 23.000000)">
                            <path d="M66.4528333,39.370526 C60.667896,35.8765334 57.8267388,29.026992 59.4401667,22.4641927 C59.5470957,22.0767449 59.4375532,21.6617243 59.1533441,21.3775152 C58.869135,21.0933062 58.4541145,20.9837637 58.0666667,21.0906927 C53.1949963,22.2988057 48.0404345,21.0476985 44.2646667,17.7406927 C43.7990446,17.3336589 43.0916172,17.381154 42.6845833,17.846776 C42.2775495,18.3123981 42.3250446,19.0198256 42.7906667,19.4268594 C46.6732627,22.820283 51.8494789,24.3388575 56.95,23.5808594 C56.0020594,30.0125137 58.6610061,36.4454491 63.8733333,40.3308594 C58.6650159,44.2193873 56.0071003,50.6498283 56.95,57.0808594 C50.5183457,56.1329188 44.0854103,58.7918655 40.2,64.0041927 C36.316153,58.7898562 29.8819658,56.1303921 23.45,57.0808594 C24.4492899,50.6429671 21.7797622,44.1844324 16.5266667,40.3308594 C21.2363455,36.8215023 23.8938877,31.2009052 23.6175,25.334026 L32.3833333,34.0663594 C29.6839091,37.4539821 29.4587218,42.1900497 31.8245501,45.8185117 C34.1903783,49.4469736 38.6148681,51.1513607 42.8035484,50.0478046 C46.9922287,48.9442484 50.0025711,45.2810689 50.2734594,40.9579337 C50.5443475,36.6347983 48.0148266,32.6244905 43.9966667,31.0066927 C43.423119,30.7723399 42.7681862,31.0473117 42.5338333,31.6208594 C42.2994805,32.1944071 42.5744523,32.8493399 43.148,33.0836927 C46.2535009,34.331138 48.2203187,37.4171702 48.0396768,40.7589697 C47.8590349,44.1007693 45.5710169,46.9568049 42.3491425,47.8622223 C39.1272679,48.7676395 35.6864573,47.5215301 33.791495,44.7630208 C31.8965328,42.0045114 31.967903,38.3457039 33.969,35.6631927 L39.4295,41.1236927 C39.6347307,41.3273066 39.9109305,41.4433906 40.2,41.447526 C40.6536627,41.4501643 41.063831,41.1780701 41.2377976,40.7590804 C41.4117641,40.3400906 41.3149469,39.8574938 40.9928333,39.538026 L35.5323333,34.077526 C36.0679159,33.6728214 36.6534006,33.3387949 37.2743333,33.0836927 C37.847881,32.8493399 38.1228528,32.1944071 37.8885,31.6208594 C37.6541472,31.0473117 36.9992144,30.7723399 36.4256667,31.0066927 C35.5259815,31.3906999 34.6841262,31.898068 33.9243333,32.5141927 L25.2031667,23.7818594 C29.7293647,24.0149038 34.1692503,22.4815619 37.587,19.505026 C38.052622,19.0979922 38.1001172,18.3905648 37.6930833,17.9249427 C37.2860494,17.4593207 36.5786221,17.4118256 36.113,17.8188594 C32.4057473,21.0439502 27.3742089,22.2904089 22.5901667,21.1688594 L20.0218333,18.5893594 C21.3495694,17.0840843 22.3429282,15.3143072 22.9363333,13.3968594 C23.584,11.163526 23.4053333,9.34335938 22.4338333,8.37185938 C19.6868333,5.61369271 17.2748333,3.19052604 14.5166667,0.454692708 C14.0811248,0.0217346995 13.3777085,0.0217346995 12.9421667,0.454692708 C12.7307675,0.664365412 12.6118586,0.949780789 12.6118586,1.24752604 C12.6118586,1.54527129 12.7307675,1.83068667 12.9421667,2.04035938 L16.1023333,5.20052604 C16.2921667,5.39035938 16.5266667,6.31719271 16.0353333,8.01452604 C14.780975,11.8934767 11.740284,14.9341677 7.86133333,16.188526 C6.17516667,16.6798594 5.23716667,16.4453594 5.04733333,16.255526 L1.9095,13.0953594 C1.6998273,12.8839602 1.41441192,12.7650513 1.11666667,12.7650513 C0.818921414,12.7650513 0.533506037,12.8839602 0.323833333,13.0953594 C-0.0945299538,13.5281756 -0.0945299538,14.2147098 0.323833333,14.647526 L8.21866667,22.5423594 C8.93779093,23.1720348 9.87803499,23.4894676 10.8316667,23.424526 C13.664866,23.2130654 16.3440094,22.0524967 18.4361667,20.1303594 L21.0156667,22.6986927 C22.5143384,29.1937087 19.6607767,35.9151315 13.9471667,39.3481927 C13.6081617,39.5493465 13.4003283,39.9143342 13.4003283,40.308526 C13.4003283,40.7027179 13.6081617,41.0677056 13.9471667,41.2688594 C19.788221,44.7252615 22.6456503,51.6231324 20.9598333,58.197526 C20.8529043,58.5849739 20.9624468,58.9999944 21.2466559,59.2842035 C21.530865,59.5684126 21.9458855,59.677955 22.3333333,59.571026 C28.9037896,57.9392338 35.7701783,60.7836217 39.262,66.5836927 C39.4631538,66.9226976 39.8281415,67.1305311 40.2223333,67.1305311 C40.6165252,67.1305311 40.9815129,66.9226976 41.1826667,66.5836927 C44.673857,60.8081045 51.5109612,57.9683549 58.0666667,59.571026 C58.4541145,59.677955 58.869135,59.5684126 59.1533441,59.2842035 C59.4375532,58.9999944 59.5470957,58.5849739 59.4401667,58.197526 C57.8083744,51.6270698 60.6527624,44.7606811 66.4528333,41.2688594 C66.7813755,41.0652472 66.9812593,40.706213 66.9812593,40.3196927 C66.9812593,39.9331724 66.7813755,39.5741383 66.4528333,39.370526 L66.4528333,39.370526 Z M12.6183333,20.9231927 C10.9321667,21.414526 9.99416667,21.180026 9.80433333,20.9901927 L7.4035,18.5893594 C12.9206589,17.3602385 17.2293791,13.0515183 18.4585,7.53435938 L20.8593333,9.93519271 C21.0491667,10.125026 21.2836667,11.0518594 20.7923333,12.7491927 C19.5444383,16.6320941 16.5012347,19.6752977 12.6183333,20.9231927 Z" id="Shape"></path>
                            <path d="M41.3166667,1.24752604 C41.3166667,0.630808071 40.8167179,0.130859375 40.2,0.130859375 C39.5832821,0.130859375 39.0833333,0.630808071 39.0833333,1.24752604 L39.0833333,3.48085938 C39.0833333,4.09757735 39.5832821,4.59752604 40.2,4.59752604 C40.8167179,4.59752604 41.3166667,4.09757735 41.3166667,3.48085938 L41.3166667,1.24752604 Z" id="Shape"></path>
                            <path d="M41.3166667,7.94752604 C41.3166667,7.33080807 40.8167179,6.83085937 40.2,6.83085937 C39.5832821,6.83085937 39.0833333,7.33080807 39.0833333,7.94752604 L39.0833333,10.1808594 C39.0833333,10.7975773 39.5832821,11.297526 40.2,11.297526 C40.8167179,11.297526 41.3166667,10.7975773 41.3166667,10.1808594 L41.3166667,7.94752604 Z" id="Shape"></path>
                            <path d="M41.3166667,14.647526 C41.3166667,14.0308081 40.8167179,13.5308594 40.2,13.5308594 C39.5832821,13.5308594 39.0833333,14.0308081 39.0833333,14.647526 L39.0833333,16.8808594 C39.0833333,17.4975773 39.5832821,17.997526 40.2,17.997526 C40.8167179,17.997526 41.3166667,17.4975773 41.3166667,16.8808594 L41.3166667,14.647526 Z" id="Shape"></path>
                            <path d="M41.3166667,21.347526 C41.3166667,20.7308081 40.8167179,20.2308594 40.2,20.2308594 C39.5832821,20.2308594 39.0833333,20.7308081 39.0833333,21.347526 L39.0833333,23.5808594 C39.0833333,24.1975773 39.5832821,24.697526 40.2,24.697526 C40.8167179,24.697526 41.3166667,24.1975773 41.3166667,23.5808594 L41.3166667,21.347526 Z" id="Shape"></path>
                            <path d="M40.2,26.9308594 C39.5832821,26.9308594 39.0833333,27.4308081 39.0833333,28.047526 L39.0833333,30.2808594 C39.0833333,30.8975773 39.5832821,31.397526 40.2,31.397526 C40.8167179,31.397526 41.3166667,30.8975773 41.3166667,30.2808594 L41.3166667,28.047526 C41.3166667,27.4308081 40.8167179,26.9308594 40.2,26.9308594 Z" id="Shape"></path>
                        </g>
                    </g>
                </g>
            </g>
        </g>
    </g>
</svg>