<?xml version="1.0" encoding="UTF-8"?>
<svg width="66px" height="55px" viewBox="0 0 66 55" version="1.1" xmlns="http://www.w3.org/2000/svg" xmlns:xlink="http://www.w3.org/1999/xlink">
    <title>anchovy</title>
    <g id="Page-1" stroke="none" stroke-width="1" fill="none" fill-rule="evenodd">
        <g id="Homepage-Final" transform="translate(-1002.000000, -3122.000000)" fill="#FFFFFF" fill-rule="nonzero">
            <g id="PRODUCTS" transform="translate(0.000000, 2593.000000)">
                <g id="row-2" transform="translate(102.000000, 500.000000)">
                    <g id="p-box-5" transform="translate(835.200000, 0.000000)">
                        <g id="anchovy" transform="translate(65.000000, 29.000000)">
                            <path d="M1.02540039,16.3874902 C5.03432617,19.4040234 11.090498,21.040957 19.0424609,21.2638867 C21.2315137,23.8104395 24.6873047,25.8474023 28.1738184,25.7233691 C28.970957,25.6960742 29.3835547,24.7543359 28.8619043,24.1499121 L26.2403223,21.1111621 C28.1184668,20.9887793 30.0590723,20.8044434 32.0570605,20.5573926 C33.1153418,21.8708496 36.129082,25.3251172 38.9615332,25.8757129 C39.2900879,25.9396973 39.6342578,25.8263281 39.8606152,25.5670898 C39.8981934,25.5239258 43.6886328,21.257666 48.8475,21.4073438 C49.8532227,21.4266406 50.1991699,20.1017578 49.3383008,19.6232715 L46.3006934,17.9356836 C47.5640039,17.6274414 48.7454297,17.3176758 49.819707,17.0162891 C49.8221191,17.0169238 62.9980762,20.4465625 63.0006152,20.4471973 C64.2787793,20.7614063 65.3750195,19.4906055 64.8777441,18.2737598 C64.2758594,16.8008496 63.0953223,14.5770117 61.135293,13.4049805 C63.0488574,12.1584277 64.1435742,9.89066406 64.6887109,8.39591797 C65.138252,7.16282227 63.9982129,5.93188477 62.7255078,6.29738281 L49.6704102,10.1110547 C44.763418,8.51880859 39.476709,7.52743164 33.8594141,7.14733398 L34.5943457,5.75910156 C34.9475293,5.09170898 34.7487207,4.26016602 34.1319824,3.8247168 L29.1123828,0.281582031 C28.5657227,-0.104482422 27.8193652,-0.0804882812 27.2974609,0.339726563 C23.8690918,3.10044922 22.9516016,5.83057617 22.7072168,7.17704102 C12.0996484,7.93025391 3.33416992,10.6377832 0.990742187,12.498916 C-0.339980469,13.5556738 -0.327539063,15.3691992 1.02540039,16.3874902 Z M21.7864258,21.2859766 C22.4590234,21.2783594 23.1410156,21.2619824 23.8330371,21.2362109 L25.8123633,23.5303809 C24.1408984,23.0562109 22.7412402,22.094668 21.7864258,21.2859766 L21.7864258,21.2859766 Z M62.6853906,8.29295898 C62.0092383,9.92049805 60.6951465,12.1483984 58.5168848,12.3789453 C57.2066016,12.5159277 57.2431641,14.4430762 58.556875,14.5309277 C60.7408496,14.6774316 62.1383496,16.8476953 62.8770898,18.4474316 L53.2885742,15.9516602 C54.3207031,15.5993652 55.1166992,15.2838867 55.6193066,15.0297266 C56.7057715,14.4811621 56.6873633,12.9064355 55.5658594,12.3953223 C54.6373242,11.9723145 53.6917773,11.5748242 52.7307422,11.2009473 L62.6853906,8.29295898 Z M28.261416,2.01169922 L32.7473047,5.17803711 L31.7643066,7.03485352 C29.4686133,6.94255859 27.1452441,6.94458984 24.675752,7.06087891 C24.9663477,5.96882812 25.8099512,4.05818359 28.261416,2.01169922 L28.261416,2.01169922 Z M53.8577051,13.720459 C51.6637012,14.5744727 46.8780762,15.9919043 40.7086621,17.2246191 C40.1929785,17.3275781 39.858457,17.8291699 39.961543,18.3448535 C40.0646289,18.8604102 40.5663477,19.1956934 41.0816504,19.0919727 C41.944043,18.9196973 42.7868848,18.7420898 43.6057324,18.5615625 C43.7455078,18.7132715 43.6534668,18.6437012 45.8048145,19.8388379 C42.3374707,20.6904395 39.8079297,22.9154199 38.8461328,23.8730273 C37.3055566,23.3224316 35.5128516,21.6074219 34.3032422,20.2567676 C35.2919531,20.114707 36.2923438,19.9591895 37.3055566,19.7880566 C37.8240332,19.7005859 38.1734082,19.2092773 38.0859375,18.6906738 C37.9983398,18.1721973 37.5065234,17.8230762 36.9885547,17.9104199 C31.2,18.8877051 24.9993555,19.5145996 19.2078809,19.3641602 C19.8671484,15.0341699 18.1366504,11.8748145 14.8654492,10.0524023 C27.5930078,7.84494141 41.8608887,8.53290039 53.8577051,13.720459 L53.8577051,13.720459 Z M2.17508789,13.9899805 C3.30611328,13.0917871 6.66135742,11.8025781 11.3810937,10.7429004 C12.0729883,10.8939746 14.8248242,11.6192578 16.3589258,13.8488086 C17.349541,15.288584 17.6628613,17.1158203 17.2935547,19.2840527 C10.6381641,18.8976074 5.56041992,17.4166992 2.17026367,14.8658301 C1.80425781,14.5902148 1.8302832,14.2638184 2.17508789,13.9899805 Z" id="Shape"></path>
                            <ellipse id="Oval" cx="8.11992187" cy="13.7947266" rx="1.44663086" ry="1.44955078"></ellipse>
                            <path d="M64.0083691,40.6799707 C62.5585645,39.5285059 58.8356641,38.1652832 54.2923926,37.1222363 C51.4252832,36.4638574 47.2951172,35.7135645 42.2920215,35.3582227 C42.0476367,34.0118848 41.1302734,31.2816309 37.7017773,28.5207813 C37.18,28.1006934 36.4338965,28.0765723 35.8871094,28.4625098 L30.8673828,32.0058984 C30.2506445,32.4413477 30.051709,33.2727637 30.4050195,33.9402832 L31.1400781,35.3285156 C25.5226563,35.7086133 20.2360742,36.6999902 15.3289551,38.2922363 L2.27004883,34.4776758 C1.00584961,34.1143359 -0.139775391,35.3413379 0.31078125,36.5772266 C0.855791016,38.0720996 1.95063477,40.3398633 3.86407227,41.5862891 C1.90416992,42.7583203 0.723505859,44.9822852 0.121748047,46.4550684 C-0.316494141,47.5273145 0.485595703,48.6757324 1.6106543,48.6757324 C1.94885742,48.6757324 0.861123047,48.9246875 15.1952734,45.1935352 C16.2588867,45.4936523 17.433584,45.8048145 18.6998145,46.1162305 L15.6610645,47.8044531 C14.7941016,48.2862402 15.155791,49.6160742 16.1518652,49.5885254 C21.292959,49.4354199 25.1019336,53.706377 25.13875,53.7483984 C25.3658691,54.0085254 25.7104199,54.120625 26.037832,54.0570215 C28.865459,53.5070605 31.8739941,50.063457 32.9370996,48.7450488 C34.8476172,48.9799121 36.7972363,49.1688184 38.7566309,49.2951367 L36.1374609,52.3309668 C35.8980273,52.6083594 35.839248,52.9987402 35.9860059,53.3344043 C36.2344531,53.9027734 36.7497559,53.9098828 37.1377246,53.9098828 C41.8787891,53.9098828 45.3137598,50.1928223 45.9562695,49.4455762 C48.6070508,49.3705469 51.0674023,49.1370801 53.2909863,48.7487305 C53.8089551,48.6583398 54.1555371,48.165127 54.0650195,47.6471582 C53.974502,47.1290625 53.4816699,46.7826074 52.9633203,46.873125 C51.3400977,47.1566113 49.5806543,47.3537695 47.7054297,47.4639648 C47.3365039,45.2963672 47.6499512,43.4693848 48.6404395,42.0299902 C50.174541,39.8005664 52.926377,39.0752832 53.6182715,38.924082 C58.3380078,39.9836328 61.693252,41.2728418 62.8244043,42.1710352 C63.169082,42.4447461 63.1954883,42.7711426 62.8292285,43.0468848 C61.164873,44.2992773 59.0580859,45.3066504 56.5671387,46.0413281 C56.0627539,46.1899902 55.7745703,46.7195117 55.9232324,47.2237695 C56.0720215,47.7282813 56.6016699,48.0164648 57.1058008,47.8676758 C59.816123,47.0683789 62.1270508,45.9584277 63.9742187,44.568418 C65.3262695,43.5508887 65.3397266,41.7371094 64.0083691,40.6799707 L64.0083691,40.6799707 Z M36.7378223,30.1928809 C39.189541,32.2394922 40.0330176,34.1501367 40.3234863,35.2421875 C37.8560254,35.1260254 35.5330371,35.1237402 33.2350586,35.2161621 L32.2520605,33.3593457 L36.7378223,30.1928809 Z M2.12214844,46.6288672 C2.86076172,45.0291309 4.25838867,42.8586133 6.44223633,42.7121094 C7.75670898,42.6243848 7.79225586,40.6993945 6.48387695,40.5603809 C4.3043457,40.329707 2.99025391,38.1018066 2.31410156,36.4742676 L12.268877,39.3822559 C11.3078418,39.7561328 10.3622949,40.153623 9.43363281,40.5766309 C8.32736328,41.0807617 8.28216797,42.6558691 9.37955078,43.2105273 C9.83848633,43.4425977 10.6419727,43.7597266 11.7286914,44.1283984 L2.12214844,46.6288672 Z M26.1531055,52.0543359 C25.1913086,51.0966016 22.6622754,48.8713672 19.1942969,48.0198926 C21.3347266,46.8308496 21.2499219,46.8975 21.3908398,46.7456641 C24.217959,47.3734473 27.3733789,47.9710156 30.6897754,48.4460742 C29.4815625,49.795332 27.6935547,51.5046289 26.1531055,52.0543359 L26.1531055,52.0543359 Z M39.1837012,51.7151172 L41.1651855,49.4184082 C41.8507324,49.4436719 42.5357715,49.4599219 43.2191602,49.4675391 C42.2656152,50.2781348 40.8640527,51.2423438 39.1837012,51.7151172 Z M45.7911035,47.5452148 C32.7737109,47.8904004 16.650918,44.0689844 11.1377246,41.903291 C23.1111816,36.724873 37.3851563,36.0225684 50.1335352,38.233457 C46.8674121,40.0529492 45.1309473,43.2096387 45.7911035,47.5452148 Z" id="Shape"></path>
                            <ellipse id="Oval" cx="56.8793164" cy="41.9759082" rx="1.44663086" ry="1.44955078"></ellipse>
                        </g>
                    </g>
                </g>
            </g>
        </g>
    </g>
</svg>