<?xml version="1.0" encoding="UTF-8"?>
<svg width="64px" height="64px" viewBox="0 0 64 64" version="1.1" xmlns="http://www.w3.org/2000/svg" xmlns:xlink="http://www.w3.org/1999/xlink">
    <title>bait</title>
    <g id="Page-1" stroke="none" stroke-width="1" fill="none" fill-rule="evenodd">
        <g id="Homepage-Final" transform="translate(-167.000000, -3118.000000)" fill="#FFFFFF" fill-rule="nonzero">
            <g id="PRODUCTS" transform="translate(0.000000, 2593.000000)">
                <g id="row-2" transform="translate(102.000000, 500.000000)">
                    <g id="bait" transform="translate(65.000000, 25.000000)">
                        <path d="M60,34.9 L61.1,34.9 C61.7,34.9 62.1,34.5 62.1,33.9 C62.1,33.3 61.7,32.9 61.1,32.9 L58,32.9 L56.9,31.8 L60.4,31.8 C61,31.8 61.4,31.4 61.4,30.8 C61.4,30.2 61,29.8 60.4,29.8 L54.5,29.8 C53.9,29.8 53.5,30.2 53.5,30.8 L53.5,36.7 C53.5,37.3 53.9,37.7 54.5,37.7 C55.1,37.7 55.5,37.3 55.5,36.7 L55.5,33.2 L56.6,34.3 L56.6,37.4 C56.6,38 57,38.4 57.6,38.4 C58.2,38.4 58.6,38 58.6,37.4 L58.6,36.3 L59.8,37.5 C62.6,40.3 62.6,45 59.8,47.8 C57,50.6 52.3,50.6 49.5,47.8 L41,39.3 C41.2,36.3 41.7,20.5 32.9,11.8 C28.1,7 23.1,3.8 18.4,2.6 C14.5,1.6 11,1.9 8.1,3.6 C8,2.9 7.6,2.2 7.1,1.6 C5.7,0.2 3.3,0.1 1.8,1.6 C0.4,3 0.4,5.4 1.8,6.9 C2.4,7.5 3,7.8 3.8,7.9 C2.1,10.8 1.8,14.3 2.8,18.2 C4,22.9 7.2,27.9 12,32.7 C19.2,39.9 31.3,40.9 36.9,40.9 C38.1,40.9 39,40.9 39.5,40.8 L47.9,49.2 C47.9,49.2 47.9,49.2 47.9,49.3 C49.3,50.7 50,52.5 50,54.5 C50,56.4 49.2,58.3 47.9,59.7 C46.5,61.1 44.7,61.8 42.7,61.8 C40.8,61.8 38.9,61 37.5,59.7 L36.3,58.5 L37.4,58.5 C38,58.5 38.4,58.1 38.4,57.5 C38.4,56.9 38,56.5 37.4,56.5 L34.3,56.5 L33.2,55.4 L37,55.4 C37.6,55.4 38,55 38,54.4 C38,53.8 37.6,53.4 37,53.4 L31,53.4 C30.4,53.4 30,53.8 30,54.4 L30,60.3 C30,60.9 30.4,61.3 31,61.3 C31.6,61.3 32,60.9 32,60.3 L32,56.8 L33.1,57.9 L33.1,61 C33.1,61.6 33.5,62 34.1,62 C34.7,62 35.1,61.6 35.1,61 L35.1,59.9 L36.3,61.1 C38.1,62.9 40.4,63.8 42.9,63.8 C45.4,63.8 47.7,62.8 49.5,61.1 C51.3,59.3 52.2,57 52.2,54.5 C52.2,53.5 52,52.5 51.7,51.6 C52.6,51.9 53.6,52.1 54.6,52.1 C57,52.1 59.4,51.2 61.2,49.4 C64.8,45.8 64.8,39.9 61.2,36.2 L60,34.9 Z M3.3,5.5 C2.6,4.8 2.6,3.7 3.3,3.1 C3.6,2.8 4.1,2.6 4.5,2.6 C4.9,2.6 5.4,2.8 5.7,3.1 C6.4,3.8 6.4,4.9 5.7,5.5 C5,6.1 3.9,6.1 3.3,5.5 Z M4.8,17.6 C3.6,13.2 4.5,9.5 7.1,6.8 C9,5 11.4,4 14.2,4 C15.4,4 16.6,4.2 17.9,4.5 C22.3,5.7 27,8.7 31.5,13.2 C31.8,13.5 32.1,13.9 32.4,14.2 L14.5,32.2 C14.2,31.9 13.8,31.6 13.5,31.3 C8.9,26.7 5.9,22 4.8,17.6 Z M16.1,33.4 L33.7,15.8 C39.2,23.7 39.2,35.5 39.1,38.7 L39.1,38.7 C39.1,38.7 39.1,38.7 39.1,38.7 C35.7,38.9 24,38.9 16.1,33.4 Z" id="Shape"></path>
                        <circle id="Oval" transform="translate(33.163210, 32.908870) rotate(-45.000000) translate(-33.163210, -32.908870) " cx="33.16321" cy="32.90887" r="1.79998274"></circle>
                    </g>
                </g>
            </g>
        </g>
    </g>
</svg>