<?xml version="1.0" encoding="UTF-8"?>
<svg width="75px" height="76px" viewBox="0 0 75 76" version="1.1" xmlns="http://www.w3.org/2000/svg" xmlns:xlink="http://www.w3.org/1999/xlink">
    <title>fishing-rod (1)</title>
    <g id="Page-1" stroke="none" stroke-width="1" fill="none" fill-rule="evenodd">
        <g id="Homepage-Final" transform="translate(-788.000000, -2899.000000)" fill="#FFFFFF" fill-rule="nonzero">
            <g id="PRODUCTS" transform="translate(0.000000, 2593.000000)">
                <g id="row-1" transform="translate(102.000000, 287.000000)">
                    <g id="p-box-4" transform="translate(626.400000, 0.000000)">
                        <g id="fishing-rod-(1)" transform="translate(97.160394, 56.949292) rotate(45.000000) translate(-97.160394, -56.949292) translate(63.660394, 37.949292)">
                            <path d="M63.9157922,23.8950384 C63.6939129,23.6731591 63.3788572,23.5717843 63.0693974,23.621756 C62.7596772,23.6719879 62.4930316,23.8681006 62.3527466,24.1486706 L60.8805349,27.0932241 C60.6393957,27.5753725 60.8348577,28.1616285 61.3170061,28.4026376 C61.7990243,28.6437768 62.3854104,28.4483148 62.6264195,27.9661664 L63.4186784,26.3817788 C64.9489301,28.8188077 64.654696,32.0821908 62.5355856,34.2011711 C61.3434234,35.3932032 59.7585152,36.0497318 58.0726226,36.0497318 C56.38673,36.0497318 54.8018218,35.3932032 53.6097897,34.2011711 L46.4543437,27.045725 C47.0200384,25.9022331 46.8299119,24.4767397 45.8791492,23.5258468 L42.7491539,20.3959817 C42.171617,19.8184448 41.4035631,19.5002659 40.5867088,19.5002659 C40.1069028,19.5002659 39.6444048,19.6108802 39.2269333,19.8184448 L21.21905,1.81056143 C20.0516133,0.642994613 18.4993688,-3.41060513e-13 16.8482222,-3.41060513e-13 C15.1970755,-3.41060513e-13 13.6448311,0.642994613 12.4773944,1.81056143 C10.0671731,4.22078269 10.0671731,8.14225601 12.4773944,10.5523471 C12.5015994,10.5765521 12.5271058,10.5993257 12.5536532,10.6206677 L27.9445316,26.0115461 C27.9607984,26.0278129 27.9777159,26.0435592 27.9951539,26.0586548 C28.7646392,26.8518246 29.1875764,27.8944623 29.1875764,29.0021673 C29.1875764,30.1318649 28.7475916,31.1938927 27.948826,31.9927884 C27.1500604,32.7916842 26.0879025,33.2315388 24.9582048,33.2315388 C23.8285072,33.2315388 22.7664794,32.7916842 21.9675837,31.9927884 C21.9480635,31.9732683 21.9276324,31.9545289 21.9068108,31.9369607 L1.6660796,11.6963596 C1.28491562,11.3151956 0.666906829,11.3151956 0.285872984,11.6963596 C-0.0952909948,12.0775236 -0.0952909948,12.6955324 0.285872984,13.0765662 L20.5871168,33.37781 C20.608589,33.3992822 20.630842,33.4195832 20.6540059,33.438713 C21.8136345,34.5645066 23.3382905,35.1834263 24.9580747,35.1834263 C26.6092214,35.1834263 28.1614658,34.5404317 29.3289025,33.3728649 C30.4964693,32.2052981 31.1394639,30.6530536 31.1394639,29.0020371 C31.1394639,27.3508905 30.4964693,25.798646 29.3289025,24.6312093 C29.3109439,24.6132508 29.2924648,24.5962032 29.273335,24.5798062 L13.8654091,9.17201039 C13.8432862,9.14988752 13.8199921,9.12880573 13.7957871,9.10902528 C12.2086666,7.45527593 12.2292279,4.8188809 13.8574709,3.19063791 C14.6563666,2.39187229 15.7183944,1.95188751 16.848092,1.95188751 C17.9777897,1.95188751 19.0399476,2.39174216 19.8387132,3.19063791 L37.8465965,21.1985212 C37.639032,21.6158626 37.5284177,22.0784908 37.5284177,22.5582967 C37.5284177,23.3751511 37.8465965,24.1432049 38.4241335,24.7207419 L41.5539986,27.850607 C42.1501448,28.4468833 42.9332943,28.7448913 43.7164437,28.7448913 C44.1823253,28.7448913 44.6472959,28.6368797 45.0738768,28.4258015 L52.2293228,35.5812475 C53.8402579,37.1921826 55.9563752,37.9977152 58.0724925,37.9977152 C60.1886097,37.9977152 62.3045969,37.1923128 63.9156621,35.5812475 C67.1377926,32.3595075 67.1377926,27.1170387 63.9157922,23.8950384 Z M39.4805655,22.5584269 C39.4805655,22.2628914 39.5956044,21.9851844 39.8046004,21.7763185 C40.0134663,21.5674526 40.2911733,21.4522835 40.5867088,21.4522835 C40.8822443,21.4522835 41.1599513,21.5673224 41.3689473,21.7763185 L42.2437115,22.6510826 L40.6793646,24.2154296 L39.8046004,23.3406654 C39.5956044,23.1316694 39.4805655,22.8539623 39.4805655,22.5584269 Z M42.9344655,26.4705305 L42.0595712,25.5956362 L43.6239181,24.0312893 L44.4988124,24.9061836 C44.9300782,25.3374493 44.9300782,26.0392647 44.4988124,26.4705305 C44.0675467,26.9017963 43.3658614,26.9019264 42.9344655,26.4705305 Z" id="Shape"></path>
                        </g>
                    </g>
                </g>
            </g>
        </g>
    </g>
</svg>