<?xml version="1.0" encoding="UTF-8"?>
<svg width="50px" height="67px" viewBox="0 0 50 67" version="1.1" xmlns="http://www.w3.org/2000/svg" xmlns:xlink="http://www.w3.org/1999/xlink">
    <title>fishing-baits (1)</title>
    <g id="Page-1" stroke="none" stroke-width="1" fill="none" fill-rule="evenodd">
        <g id="Homepage-Final" transform="translate(-801.000000, -3116.000000)" fill="#FFFFFF" fill-rule="nonzero">
            <g id="PRODUCTS" transform="translate(0.000000, 2593.000000)">
                <g id="row-2" transform="translate(102.000000, 500.000000)">
                    <g id="p-box-4" transform="translate(626.400000, 0.000000)">
                        <g id="fishing-baits-(1)" transform="translate(73.000000, 23.000000)">
                            <path d="M38.556662,47.3696133 L38.556662,61.6906591 C38.556662,62.9074738 37.5702388,63.893897 36.3534241,63.893897 C35.1366095,63.893897 34.1501863,62.9074738 34.1501863,61.6906591 L34.1501863,57.2841835 C34.152789,56.8366342 33.8843615,56.4319931 33.4710179,56.2603708 C33.0576743,56.0887486 32.5815807,56.1842612 32.266418,56.5020341 L31.1647991,57.603653 C30.8470262,57.9188157 30.7515136,58.3949093 30.9231358,58.8082529 C31.0947581,59.2215965 31.4993992,59.490024 31.9469485,59.4874213 L31.9469485,61.6906591 C31.9586709,63.5181084 33.0971704,65.1486723 34.8087013,65.7892738 C36.520232,66.4298754 38.4495545,65.9475535 39.6582809,64.5769007 C40.8670072,65.9475535 42.7963297,66.4298754 44.5078605,65.7892738 C46.2193914,65.1486723 47.3578908,63.5181084 47.3696133,61.6906591 L47.3696133,59.4874213 C47.8171626,59.490024 48.2218036,59.2215965 48.3934259,58.8082529 C48.5650481,58.3949093 48.4695356,57.9188157 48.1517627,57.603653 L47.0501438,56.5020341 C46.7349811,56.1842612 46.2588875,56.0887486 45.8455439,56.2603708 C45.4322003,56.4319931 45.1637728,56.8366342 45.1663754,57.2841835 L45.1663754,61.6906591 C45.1663754,62.9074738 44.1799523,63.893897 42.9631376,63.893897 C41.746323,63.893897 40.7598998,62.9074738 40.7598998,61.6906591 L40.7598998,47.3696133 C42.0598101,47.3696133 43.2275262,47.3696133 44.1859346,47.2594514 C46.4144926,47.1475832 48.2076808,45.3875145 48.3610703,43.161429 C48.7576531,36.4525698 48.5924103,19.7850757 38.4465001,9.82644071 C28.3005899,-0.13219427 11.1483834,-0.275404728 4.28529757,0.110161891 C2.0567396,0.222030069 0.263551386,1.98209871 0.110161891,4.20818425 C-0.286420917,10.9170434 -0.12117808,27.5845376 10.0247321,37.5431726 C18.0885826,45.3646668 30.3496011,47.1382733 38.556662,47.3696133 Z M40.7598998,40.4955113 C40.6113095,40.0434349 40.1892317,39.7378727 39.7133618,39.7378727 C39.237492,39.7378727 38.8154142,40.0434349 38.6668239,40.4955113 C37.7789721,40.0162654 37.3300984,38.9951792 37.5772516,38.0169805 C37.8244047,37.0387818 38.7044231,36.3534554 39.7133618,36.3534554 C40.7223005,36.3534554 41.6023189,37.0387818 41.8494721,38.0169805 C42.0966252,38.9951792 41.6477515,40.0162654 40.7598998,40.4955113 Z M2.31339972,4.34037852 C2.40096831,3.23397629 3.29783382,2.36543284 4.40647565,2.31339972 C15.4226648,1.67446075 28.8844479,3.63534241 36.8491526,11.4017558 C46.3891724,20.7214518 46.5323829,36.6178127 46.1468163,43.0292348 C46.0598384,44.1316641 45.1691212,44.9988173 44.0647565,45.0562136 C43.1504128,45.1112945 42.0267615,45.1553593 40.7598998,45.1663754 L40.7598998,42.808911 C42.286287,42.4115232 43.4838684,41.228605 43.9000295,39.7072291 C44.3161906,38.1858532 43.8874563,36.5580684 42.7758624,35.4390804 C41.0308017,33.7744091 38.2857601,33.7744091 36.5406994,35.4390804 C35.4291055,36.5580684 35.0003712,38.1858532 35.4165323,39.7072291 C35.8326934,41.228605 37.0302748,42.4115232 38.556662,42.808911 L38.556662,45.1663754 C30.7131353,44.968084 19.102072,43.3046395 11.6110633,36.0009061 C2.07104356,26.6481615 1.9278331,10.7407844 2.31339972,4.34037852 Z" id="Shape"></path>
                            <path d="M21.8340869,8.04181807 C32.3545475,10.5755416 38.1049982,16.3259923 40.6387217,26.8464529 C40.7816974,27.4548602 41.3908138,27.8321671 41.9992211,27.6891914 C42.6076283,27.5462157 42.9849352,26.9370993 42.8419595,26.328692 C40.1540094,15.202341 33.9298625,8.70278941 22.4069287,5.89366119 C22.0133582,5.8011721 21.6003416,5.92567605 21.3234585,6.22027359 C21.0465753,6.51487113 20.9478906,6.93480589 21.0645781,7.32189251 C21.1812654,7.70897914 21.4955973,8.00440994 21.8891678,8.09689901 L21.8340869,8.04181807 Z" id="Shape"></path>
                            <path d="M11.9305328,5.69536978 C10.5200162,4.28642268 8.33921973,4.00005358 6.61276603,4.99707256 C4.88631234,5.99409154 4.0443592,8.02608446 4.55970395,9.95198918 C5.0750487,11.877894 6.81928966,13.217858 8.81295131,13.2194283 C10.5962814,13.2208304 12.2046368,12.1472108 12.8872775,10.4997066 C13.5699184,8.85220248 13.1922399,6.95567282 11.9305328,5.69536978 Z M10.366234,10.366234 C9.661822,11.0748322 8.56875999,11.2207041 7.70318036,10.7216255 C6.83760071,10.2225469 6.41622528,9.20347579 6.67657309,8.23883773 C6.9369209,7.27419966 7.81380668,6.60551849 8.81295131,6.60969385 C9.70119918,6.61344286 10.5003344,7.15019618 10.8397479,7.97104736 C11.1791614,8.79189853 10.9924621,9.73628432 10.366234,10.366234 Z" id="Shape"></path>
                        </g>
                    </g>
                </g>
            </g>
        </g>
    </g>
</svg>