<?xml version="1.0" encoding="UTF-8"?>
<svg width="65px" height="66px" viewBox="0 0 65 66" version="1.1" xmlns="http://www.w3.org/2000/svg" xmlns:xlink="http://www.w3.org/1999/xlink">
    <title>fishing-net</title>
    <g id="Page-1" stroke="none" stroke-width="1" fill="none" fill-rule="evenodd">
        <g id="Homepage-Final" transform="translate(-1211.000000, -3118.000000)" fill="#FFFFFF" fill-rule="nonzero">
            <g id="PRODUCTS" transform="translate(0.000000, 2593.000000)">
                <g id="row-2" transform="translate(102.000000, 500.000000)">
                    <g id="p-box-6" transform="translate(1044.000000, 0.000000)">
                        <g id="fishing-net" transform="translate(65.000000, 25.000000)">
                            <path d="M60.6666667,23.9010417 L50.9166667,23.9010417 C49.8708232,23.9077995 48.8627105,24.2925753 48.0783333,24.984375 L40.755,24.984375 C39.3466667,23.7602083 38.0466667,23.9010417 36.7033333,23.9010417 C35.2387274,20.7387636 33.1407263,17.9107023 30.5391667,15.591875 C32.7058333,14.2160417 34.2658333,10.9985417 34.6558333,6.83854167 C34.7348002,6.05737247 34.3974553,5.29217529 33.7675,4.82354167 C33.1448251,4.35295146 32.3171681,4.25363261 31.6008333,4.56354167 L28.1666667,6.02604167 L24.6783333,4.56354167 C23.9613685,4.25167123 23.1319896,4.35026644 22.5081228,4.82153278 C21.8842559,5.2927991 21.5626807,6.06362959 21.6666667,6.83854167 C22.0566667,10.9985417 23.6491667,14.2160417 25.7833333,15.591875 C24.5768305,16.695821 23.4610153,17.8949602 22.4466667,19.1777083 C20.9705914,16.1786906 18.9332678,13.4904531 16.445,11.2585417 C18.6116667,9.88270833 20.1716667,6.66520833 20.5616667,2.50520833 C20.6613033,1.73601539 20.3421757,0.972235431 19.7249157,0.502581018 C19.1076557,0.0329266167 18.2864302,-0.0709533175 17.5716667,0.230208333 L14.0833333,1.69270833 L10.595,0.230208333 C9.87803511,-0.0816621 9.0486563,0.0169331067 8.42478945,0.488199443 C7.80092259,0.959465769 7.47934739,1.73029625 7.58333333,2.50520833 C7.98416667,6.66520833 9.56583333,9.88270833 11.7,11.2585417 C9.24083333,13.5227083 4.9075,18.2677083 4.39833333,23.9010417 C2.2243789,23.8950324 0.38244856,25.5007485 0.0918980833,27.6552078 C-0.198652393,29.8096669 1.15211765,31.8459507 3.25,32.4160417 L3.25,47.1927083 C3.25,57.0647983 11.2529101,65.0677083 21.125,65.0677083 C30.9970899,65.0677083 39,57.0647983 39,47.1927083 L39,32.4160417 C39.6492644,32.2456083 40.2500568,31.9266691 40.755,31.484375 L48.0783333,31.484375 C48.8627105,32.1761747 49.8708232,32.5609505 50.9166667,32.5677083 L60.6666667,32.5677083 C63.0599006,32.5677083 65,30.6276089 65,28.234375 C65,25.8411411 63.0599006,23.9010417 60.6666667,23.9010417 Z M42.0983333,27.1510417 L46.735,27.1510417 C46.5291654,27.8585981 46.5291654,28.6101519 46.735,29.3177083 L42.0983333,29.3177083 C42.304168,28.6101519 42.304168,27.8585981 42.0983333,27.1510417 Z M23.8333333,6.56770833 L27.3325,8.03020833 C27.8599996,8.24691404 28.4516671,8.24691404 28.9791667,8.03020833 C32.7925,6.43770833 32.5,6.56770833 32.5,6.63270833 C32.0991667,10.9010417 30.1925,14.1510417 28.1666667,14.1510417 C26.1408333,14.1510417 24.2341667,10.9010417 23.8333333,6.56770833 Z M28.1666667,16.3935417 C30.6937444,18.4705533 32.7912682,21.0207008 34.3416667,23.9010417 L23.7683333,23.9010417 C23.697147,23.1286703 23.5594134,22.3638864 23.3566667,21.6152083 C24.7268432,19.6734839 26.3437371,17.9182071 28.1666667,16.3935417 Z M9.75,2.234375 L13.2491667,3.696875 C13.7766663,3.91358071 14.3683337,3.91358071 14.8958333,3.696875 C18.7091667,2.104375 18.4166667,2.234375 18.4166667,2.299375 C18.0158333,6.56770833 16.1091667,9.81770833 14.0833333,9.81770833 C12.0575,9.81770833 10.1508333,6.56770833 9.75,2.234375 Z M14.0833333,12.0602083 C15.925,13.5985417 20.995,18.321875 21.6016667,23.9010417 L10.9416667,23.9010417 C11.2262934,22.558911 11.7709868,21.285506 12.545,20.1527083 C12.7792312,19.8275615 12.8148415,19.3996718 12.6375799,19.0402793 C12.4603182,18.6808867 12.0991424,18.4487022 11.6985936,18.4366453 C11.2980448,18.4245882 10.9235574,18.6346283 10.725,18.9827083 C9.71312959,20.4566983 9.03982468,22.136261 8.75333333,23.9010417 L6.58666667,23.9010417 C7.17166667,18.321875 12.2416667,13.5985417 14.0833333,12.0602083 L14.0833333,12.0602083 Z M2.16666667,28.234375 C2.16666667,27.037758 3.13671637,26.0677083 4.33333333,26.0677083 L37.9166667,26.0677083 C39.1132836,26.0677083 40.0833333,27.037758 40.0833333,28.234375 C40.0833333,29.430992 39.1132836,30.4010417 37.9166667,30.4010417 L4.33333333,30.4010417 C3.13671637,30.4010417 2.16666667,29.430992 2.16666667,28.234375 Z M21.125,62.9010417 C12.4520033,62.8950664 5.42264187,55.865705 5.41666667,47.1927083 L5.41666667,32.5677083 L36.8333333,32.5677083 L36.8333333,47.1927083 C36.8273581,55.865705 29.7979967,62.8950664 21.125,62.9010417 Z M60.6666667,30.4010417 L50.9166667,30.4010417 C49.7200497,30.4010417 48.75,29.430992 48.75,28.234375 C48.75,27.037758 49.7200497,26.0677083 50.9166667,26.0677083 L60.6666667,26.0677083 C61.8632836,26.0677083 62.8333333,27.037758 62.8333333,28.234375 C62.8333333,29.430992 61.8632836,30.4010417 60.6666667,30.4010417 Z" id="Shape"></path>
                            <path d="M32.8141667,40.4652083 L28.1666667,45.1235417 L23.1941667,40.1510417 L25.6858333,37.6702083 C26.1106323,37.2454093 26.1106323,36.556674 25.6858333,36.131875 C25.2610343,35.7070761 24.5722991,35.7070761 24.1475,36.131875 L21.6666667,38.6235417 L19.1858333,36.131875 C18.7610343,35.7070761 18.0722991,35.7070761 17.6475,36.131875 C17.2227011,36.556674 17.2227011,37.2454093 17.6475,37.6702083 L20.1391667,40.1510417 L16.7916667,43.4985417 L9.43583333,36.131875 C9.16103656,35.8570782 8.76051151,35.7497578 8.3851321,35.8503404 C8.0097527,35.950923 7.71654802,36.2441277 7.61596541,36.6195071 C7.51538281,36.9948865 7.62270319,37.3954115 7.8975,37.6702083 L15.2641667,45.0260417 L10.0641667,50.2152083 C9.75166839,50.5251397 9.65774132,50.9933307 9.8265148,51.3998133 C9.99528829,51.8062959 10.3932128,52.0702678 10.8333333,52.0677083 C11.1212866,52.0693732 11.3980546,51.956327 11.6025,51.7535417 L16.7916667,46.564375 L21.7533333,51.5260417 L16.5641667,56.7152083 C16.2516684,57.0251397 16.1577413,57.4933307 16.3265147,57.8998133 C16.4952883,58.3062959 16.8932128,58.5702678 17.3333333,58.5677268 C17.6212866,58.5693732 17.8980546,58.456327 18.1025,58.2535417 L23.2916667,53.064375 L27.3975,57.1702083 C27.6019454,57.3729937 27.8787134,57.4860399 28.1666667,57.484375 C28.6067872,57.4869345 29.0047117,57.2229626 29.1734852,56.81648 C29.3422587,56.4099974 29.2483316,55.9418064 28.9358333,55.631875 L24.8191667,51.5260417 L28.1666667,48.189375 L31.7308333,51.7535417 C31.9352787,51.956327 32.2120467,52.0693732 32.5,52.0677083 C32.9401205,52.0702678 33.338045,51.8062959 33.5068186,51.3998133 C33.6755921,50.9933307 33.5816649,50.5251397 33.2691667,50.2152083 L29.6941667,46.6510417 L34.3525,42.0035417 C34.6272968,41.7287449 34.7346171,41.3282198 34.6340345,40.9528405 C34.533452,40.5774611 34.2402473,40.2842563 33.8648678,40.1836738 C33.4894885,40.0830912 33.0889635,40.1904115 32.8141667,40.4652083 L32.8141667,40.4652083 Z M23.2916667,49.9985417 L18.3191667,45.0260417 L21.6666667,41.689375 L26.6283333,46.6510417 L23.2916667,49.9985417 Z" id="Shape"></path>
                        </g>
                    </g>
                </g>
            </g>
        </g>
    </g>
</svg>