<?xml version="1.0" encoding="UTF-8"?>
<svg width="65px" height="64px" viewBox="0 0 65 64" version="1.1" xmlns="http://www.w3.org/2000/svg" xmlns:xlink="http://www.w3.org/1999/xlink">
    <title>reel</title>
    <g id="Page-1" stroke="none" stroke-width="1" fill="none" fill-rule="evenodd">
        <g id="Homepage-Final" transform="translate(-375.000000, -2906.000000)" fill="#FFFFFF" fill-rule="nonzero">
            <g id="PRODUCTS" transform="translate(0.000000, 2593.000000)">
                <g id="row-1" transform="translate(102.000000, 287.000000)">
                    <g id="p-box-2" transform="translate(208.800000, 0.000000)">
                        <g id="reel" transform="translate(65.000000, 26.000000)">
                            <path d="M24.7741935,20.6451613 C24.7741935,18.368 22.9223226,16.516129 20.6451613,16.516129 C18.368,16.516129 16.516129,18.368 16.516129,20.6451613 C16.516129,22.9223226 18.368,24.7741935 20.6451613,24.7741935 C22.9223226,24.7741935 24.7741935,22.9223226 24.7741935,20.6451613 Z M18.5806452,20.6451613 C18.5806452,19.5065806 19.5065806,18.5806452 20.6451613,18.5806452 C21.7837419,18.5806452 22.7096774,19.5065806 22.7096774,20.6451613 C22.7096774,21.7837419 21.7837419,22.7096774 20.6451613,22.7096774 C19.5065806,22.7096774 18.5806452,21.7837419 18.5806452,20.6451613 Z" id="Shape"></path>
                            <path d="M20.6451613,37.1612903 C29.7517419,37.1612903 37.1612903,29.7517419 37.1612903,20.6451613 C37.1612903,11.5385806 29.7517419,4.12903226 20.6451613,4.12903226 C11.5385806,4.12903226 4.12903226,11.5385806 4.12903226,20.6451613 C4.12903226,29.7517419 11.5385806,37.1612903 20.6451613,37.1612903 Z M20.6451613,6.19354839 C28.6141935,6.19354839 35.0967742,12.676129 35.0967742,20.6451613 C35.0967742,26.9429677 31.0410323,32.2972903 25.4100645,34.2730323 L20.0082581,28.8712258 C20.2188387,28.8867097 20.4304516,28.9032258 20.6451613,28.9032258 C25.1984516,28.9032258 28.9032258,25.1984516 28.9032258,20.6451613 C28.9032258,16.091871 25.1984516,12.3870968 20.6451613,12.3870968 C16.091871,12.3870968 12.3870968,16.091871 12.3870968,20.6451613 C12.3870968,20.859871 12.4036129,21.0714839 12.4190968,21.2820645 L7.01729032,15.8802581 C8.99303226,10.2492903 14.3473548,6.19354839 20.6451613,6.19354839 Z M14.4516129,20.6451613 C14.4516129,17.2294194 17.2294194,14.4516129 20.6451613,14.4516129 C24.0609032,14.4516129 26.8387097,17.2294194 26.8387097,20.6451613 C26.8387097,24.0609032 24.0609032,26.8387097 20.6451613,26.8387097 C17.2294194,26.8387097 14.4516129,24.0609032 14.4516129,20.6451613 Z M6.41651613,18.1987097 L23.0916129,34.8738065 C22.2947097,35.0100645 21.4802581,35.0967742 20.6451613,35.0967742 C12.676129,35.0967742 6.19354839,28.6141935 6.19354839,20.6451613 C6.19354839,19.8100645 6.28025806,18.9956129 6.41651613,18.1987097 Z" id="Shape"></path>
                            <polygon id="Path" transform="translate(12.382300, 28.901526) rotate(-45.000000) translate(-12.382300, -28.901526) " points="11.3501982 25.9822252 13.4144026 25.9822252 13.4144026 31.8208272 11.3501982 31.8208272"></polygon>
                            <path d="M62.6652903,41.8952258 C63.4456774,41.115871 63.8750968,40.1228387 63.8750968,39.1009032 C63.8750968,38.0789677 63.4456774,37.0859355 62.6652903,36.3065806 C61.0467097,34.688 58.6952258,34.688 57.0766452,36.3065806 L51.9070968,41.476129 C51.5034839,41.2830968 51.0565161,41.1654194 50.5806452,41.1654194 C48.8732903,41.1654194 47.483871,42.5548387 47.483871,44.2621935 C47.483871,44.3138065 47.4962581,44.3623226 47.4993548,44.4139355 C47.1628387,44.3251613 46.816,44.2621935 46.4516129,44.2621935 C44.1744516,44.2621935 42.3225806,46.1140645 42.3225806,48.3912258 C42.3225806,49.1870968 42.56,49.9251613 42.9512258,50.5569032 L32.1249032,61.3832258 C31.7729032,61.7341935 31.2877419,61.9354839 30.7901935,61.9354839 C30.0005161,61.9354839 29.3491613,61.499871 29.0477419,60.7710968 C28.7452903,60.0412903 28.8970323,59.2722581 29.4565161,58.7138065 L30.843871,57.3274839 C31.995871,56.1754839 32.324129,54.5249032 31.6996129,53.019871 C31.0750968,51.5148387 29.6763871,50.5806452 28.0485161,50.5806452 C26.9925161,50.5806452 26.0005161,50.9914839 25.2541935,51.7388387 L15.6087742,61.3832258 C15.2567742,61.7341935 14.7716129,61.9354839 14.2740645,61.9354839 C13.4843871,61.9354839 12.8330323,61.499871 12.5316129,60.7710968 C12.2291613,60.0412903 12.3809032,59.2722581 12.9403871,58.7138065 L23.3249032,48.3303226 C24.1661935,48.4428387 25.0002581,48.516129 25.8064516,48.516129 C38.3287742,48.516129 48.516129,38.3287742 48.516129,25.8064516 C48.516129,17.7352258 42.683871,7.28464516 34.3143226,5.19225806 L34.3112258,5.20464516 C34.0387097,4.96412903 33.7754839,4.71535484 33.4895484,4.48825806 C29.8549677,1.59380645 25.2934194,-1.46692694e-14 20.6451613,-1.46692694e-14 C9.26141935,-1.46692694e-14 2.20039041e-14,9.26141935 2.20039041e-14,20.6451613 C2.20039041e-14,25.2934194 1.59380645,29.8549677 4.48825806,33.4885161 C4.7163871,33.7744516 4.96516129,34.0387097 5.20567742,34.3112258 L5.19225806,34.3153548 C6.87380645,41.0456774 13.9623226,46.1274839 20.8701935,47.8627097 L11.4787097,57.2531613 C10.3267097,58.4051613 9.99845161,60.0557419 10.6229677,61.5607742 C11.2474839,63.0658065 12.6461935,64 14.2740645,64 C15.3300645,64 16.3220645,63.5891613 17.0683871,62.8418065 L26.7138065,53.1974194 C27.0658065,52.8464516 27.5509677,52.6451613 28.0485161,52.6451613 C28.8381935,52.6451613 29.4895484,53.0807742 29.7909677,53.8095484 C30.0934194,54.5393548 29.9416774,55.3083871 29.3821935,55.8668387 L27.9948387,57.2531613 C26.8428387,58.4051613 26.5145806,60.0557419 27.1390968,61.5607742 C27.7636129,63.0658065 29.1623226,64 30.7901935,64 C31.8461935,64 32.8381935,63.5891613 33.5845161,62.8418065 L44.448,51.9783226 C45.0436129,52.3127742 45.7207742,52.5192258 46.4516129,52.5192258 C48.7287742,52.5192258 50.5806452,50.6673548 50.5806452,48.3901935 C50.5806452,48.0258065 50.5187097,47.6789677 50.4289032,47.3424516 C50.4805161,47.3445161 50.528,47.3579355 50.5806452,47.3579355 C52.288,47.3579355 53.6774194,45.9685161 53.6774194,44.2611613 C53.6774194,43.7842581 53.5607742,43.3383226 53.3667097,42.9347097 L58.5362581,37.7651613 C59.3465806,36.9548387 60.3953548,36.9548387 61.2056774,37.7651613 C61.6020645,38.1605161 61.8105806,38.6219355 61.8105806,39.099871 C61.8105806,39.5767742 61.6010323,40.0392258 61.2056774,40.4345806 L57.9592258,43.68 L62.6405161,45.2407742 L63.2939355,43.2825806 L61.7816774,42.7788387 L62.6652903,41.8952258 Z M46.4516129,25.8064516 C46.4516129,37.1901935 37.1901935,46.4516129 25.8064516,46.4516129 C25.6123871,46.4516129 25.4214194,46.432 25.2273548,46.4258065 L28.5316129,43.1215484 C36.9156129,41.8043871 43.3548387,34.5538065 43.3548387,25.8064516 C43.3548387,22.1852903 42.5899355,19.5550968 41.092129,17.9716129 C41.0529032,17.6836129 41.028129,17.3914839 40.9765161,17.1065806 C40.4769032,14.1832258 39.3372903,11.4384516 37.6867097,9.02193548 C42.3432258,12.1971613 46.4516129,18.656 46.4516129,25.8064516 Z M41.1169032,23.1907097 C41.2252903,23.936 41.2903226,24.7979355 41.2903226,25.8064516 C41.2903226,34.3442581 34.3442581,41.2903226 25.8064516,41.2903226 C24.7979355,41.2903226 23.936,41.2252903 23.1907097,41.1169032 C32.539871,39.9597419 39.9597419,32.5388387 41.1169032,23.1907097 Z M2.06451613,20.6451613 C2.06451613,10.4 10.4,2.06451613 20.6451613,2.06451613 C24.8887742,2.06451613 28.8856774,3.46116129 32.2033548,6.10374194 C35.7842581,8.95174194 38.1770323,12.9837419 38.9419355,17.4627097 C39.1308387,18.5083871 39.2258065,19.5788387 39.2258065,20.6451613 C39.2258065,30.8903226 30.8903226,39.2258065 20.6451613,39.2258065 C19.5819355,39.2258065 18.5114839,39.1308387 17.4534194,38.9409032 C12.9827097,38.1770323 8.95174194,35.7842581 6.10270968,32.2033548 C3.46116129,28.8856774 2.06451613,24.8887742 2.06451613,20.6451613 Z M9.02296774,37.6867097 C11.4374194,39.3372903 14.180129,40.4769032 17.0983226,40.9754839 C17.3873548,41.0270968 17.6805161,41.0529032 17.9716129,41.092129 C19.4931613,42.5310968 21.988129,43.2856774 25.3914839,43.3434839 L22.5661935,46.1687742 C16.7442581,45.1705806 11.7099355,41.6268387 9.02296774,37.6867097 Z M46.4516129,50.4557419 C45.3130323,50.4557419 44.3870968,49.5298065 44.3870968,48.3912258 C44.3870968,47.2526452 45.3130323,46.3267097 46.4516129,46.3267097 C47.5901935,46.3267097 48.516129,47.2526452 48.516129,48.3912258 C48.516129,49.5298065 47.5901935,50.4557419 46.4516129,50.4557419 Z M50.5806452,45.2944516 C50.0108387,45.2944516 49.5483871,44.8309677 49.5483871,44.2621935 C49.5483871,43.6934194 50.0108387,43.2299355 50.5806452,43.2299355 C51.1504516,43.2299355 51.6129032,43.6934194 51.6129032,44.2621935 C51.6129032,44.8309677 51.1504516,45.2944516 50.5806452,45.2944516 Z" id="Shape"></path>
                        </g>
                    </g>
                </g>
            </g>
        </g>
    </g>
</svg>