<?xml version="1.0" encoding="UTF-8"?>
<svg width="48px" height="68px" viewBox="0 0 48 68" version="1.1" xmlns="http://www.w3.org/2000/svg" xmlns:xlink="http://www.w3.org/1999/xlink">
    <title>Shape</title>
    <g id="Page-1" stroke="none" stroke-width="1" fill="none" fill-rule="evenodd">
        <g id="Homepage-Final" transform="translate(-175.000000, -2903.000000)" fill="#FFFFFF" fill-rule="nonzero">
            <g id="PRODUCTS" transform="translate(0.000000, 2593.000000)">
                <g id="fishing-rod" transform="translate(102.000000, 287.000000)">
                    <path d="M120.884571,25.7151305 C120.883493,25.5287665 120.864356,25.3429456 120.827429,25.1602734 C120.675549,24.4422733 120.240381,23.8159316 119.62048,23.4231021 C119.00058,23.0302726 118.248397,22.9041925 117.534286,23.0734162 C103.970286,26.2734162 93.3822857,33.263702 86.0651429,43.8574162 C78.6057143,54.6574162 76.3891429,66.5722734 75.8794286,74.9374162 C74.1852678,75.3825917 73.0031575,76.9126022 73,78.6642734 L73,86.5768448 C73,88.8623569 74.8527737,90.7151304 77.1382857,90.7151304 C79.4237978,90.7151304 81.2765714,88.8623569 81.2765714,86.5768448 L81.2765714,75.8659877 L81.2765714,75.8585591 C81.3051429,75.3094162 81.3451429,74.7419877 81.3937143,74.1648448 C82.6320324,74.5652599 83.9841412,74.3961678 85.0857143,73.7031305 L87.1428571,75.7602734 C87.330322,75.947972 87.5847193,76.0534397 87.85,76.0534397 C88.1152807,76.0534397 88.369678,75.947972 88.5571429,75.7602734 L89.7188571,74.5962734 C90.1094013,74.2055714 90.1092734,73.5722462 89.7185714,73.181702 C89.3278694,72.7911578 88.6945442,72.7912857 88.304,73.1819877 L87.8468571,73.6391305 L86.5005714,72.2865591 C87.3543099,70.9231083 87.3998616,69.2034738 86.619503,67.7967371 C85.8391443,66.3900005 84.3561116,65.5183172 82.7474286,65.5208448 C82.7262857,65.5208448 82.7062857,65.523702 82.6851429,65.5242734 C83.3358757,62.5240154 84.2236131,59.5801128 85.34,56.7202734 C85.3565714,56.7202734 85.3725714,56.7254162 85.3897143,56.7254162 C86.467795,56.7295631 87.4453273,56.0929087 87.877426,55.1052014 C88.3095247,54.117494 88.1136149,52.9674863 87.3788571,52.1785591 C88.9300284,49.1116113 90.8190849,46.2276184 93.0108571,43.5802734 C93.2930375,43.6820931 93.590316,43.7357925 93.8902857,43.7391305 C94.7991973,43.7393106 95.6478455,43.2844512 96.1509315,42.5274672 C96.6540174,41.7704831 96.7447292,40.8119049 96.3925714,39.9739877 C98.7649406,37.7262792 101.38364,35.7537719 104.198857,34.0939877 C104.664503,34.4489075 105.233374,34.6419424 105.818857,34.643702 C107.317133,34.641813 108.531254,33.4276917 108.533143,31.9294162 C108.533143,31.8985591 108.525143,31.8722734 108.524,31.839702 C110.732082,30.8330344 113.007701,29.9816343 115.334286,29.291702 C115.554089,29.5276829 115.814392,29.7223773 116.102857,29.8665591 C115.738084,32.6906921 115.194709,35.4888708 114.476,38.2442734 C113.204571,43.567702 111.764571,49.6008448 111.764571,59.0865591 C111.764571,67.7602734 113.789143,75.415702 116.352571,85.1082734 C116.493799,85.6419383 117.040907,85.9600719 117.574571,85.8188448 C118.108236,85.6776177 118.42637,85.1305097 118.285143,84.5968448 C115.485143,73.9968448 113.764571,67.0934162 113.764571,59.0865591 C113.764571,49.8374162 115.176,43.9248448 116.421714,38.7082734 C117.165072,35.8580485 117.724133,32.9629164 118.095429,30.0408448 C119.144568,29.7245087 119.898722,28.8057991 120.004571,27.7151305 C120.564207,27.2005187 120.883257,26.4754039 120.884571,25.7151305 Z M106.051429,29.2385591 C109.000027,27.8020154 112.071339,26.6323924 115.228571,25.743702 C114.83563,26.2158244 114.616399,26.8083752 114.607429,27.4225591 C112.258794,28.1264425 109.960732,28.9891939 107.729143,30.0048448 C107.277192,29.5603994 106.683278,29.289133 106.051429,29.2385591 L106.051429,29.2385591 Z M103.150857,32.3899877 C100.207271,34.1289019 97.4695333,36.1947608 94.9897143,38.5482734 C94.4422895,38.2955273 93.8236666,38.242358 93.2411429,38.3979877 C96.2730907,35.3404887 99.713756,32.717491 103.465143,30.603702 C103.231777,31.006759 103.107501,31.4636843 103.104571,31.9294162 C103.106901,32.0839754 103.122386,32.2380556 103.150857,32.3899877 L103.150857,32.3899877 Z M116.604571,27.4534162 C116.604571,27.0589271 116.924368,26.7391305 117.318857,26.7391305 C117.713346,26.7391305 118.033143,27.0589271 118.033143,27.4534162 C118.033143,27.8479054 117.713346,28.167702 117.318857,28.167702 C116.924629,28.1670727 116.605201,27.8476444 116.604571,27.4534162 L116.604571,27.4534162 Z M91.2217143,40.5722734 C91.1088859,41.154589 91.205852,41.7580465 91.4954286,42.275702 C89.1888787,45.0571929 87.2026667,48.0894152 85.5742857,51.3151305 C85.512,51.3111305 85.4525714,51.2968448 85.3897143,51.2968448 C84.8547006,51.296887 84.3317812,51.4560105 83.8874286,51.7539877 C85.8235585,47.7168945 88.2901188,43.956423 91.2217143,40.5722734 L91.2217143,40.5722734 Z M78.3474286,70.435702 C78.452478,71.3759308 78.8571692,72.2574363 79.5017143,72.9499877 C79.4380952,73.5808448 79.3857143,74.199321 79.3445714,74.8054162 L77.8937143,74.8054162 C77.9771429,73.5814162 78.1188571,72.1042734 78.3474286,70.435702 Z M79.2771429,86.5768448 C79.2771429,87.7577874 78.3197997,88.7151305 77.1388571,88.7151305 C75.9579146,88.7151305 75.0005714,87.7577874 75.0005714,86.5768448 L75.0005714,78.6642734 C75.0018308,77.6391238 75.8325647,76.8083899 76.8577143,76.8071305 L79.2771429,76.8071305 L79.2771429,86.5768448 Z M85.176,69.9494162 C85.1740958,70.2409152 85.1191028,70.5296286 85.0137143,70.8014162 L83.4542857,69.2425591 C83.0638993,68.8521727 82.4309578,68.8521727 82.0405714,69.2425591 C81.650185,69.6329455 81.650185,70.265887 82.0405714,70.6562734 L83.5994286,72.215702 C83.327641,72.3210905 83.0389275,72.3760835 82.7474286,72.3779877 C81.4061656,72.3779877 80.3188571,71.2906792 80.3188571,69.9494162 C80.3188571,68.6081533 81.4061656,67.5208448 82.7474286,67.5208448 C84.0886915,67.5208448 85.176,68.6081533 85.176,69.9494162 L85.176,69.9494162 Z M80.5188571,66.1282734 C79.7164296,66.5976587 79.0810187,67.3064017 78.7017143,68.1551305 C79.5114333,63.4190767 80.8560375,58.7902182 82.7097143,54.3574162 C82.7845026,54.9608406 83.0607399,55.5213688 83.4937143,55.9482734 C82.2055635,59.2478299 81.2101092,62.6542878 80.5188571,66.1282734 L80.5188571,66.1282734 Z M85.3891429,54.725424 C85.2938659,54.7251341 85.199618,54.7057015 85.112,54.6682734 L85.1091429,54.6682734 C84.7956103,54.5361741 84.6189101,54.20113 84.6869686,53.8677819 C84.7550272,53.5344338 85.0489208,53.2954692 85.3891429,53.2968389 C85.4803727,53.29722 85.570645,53.3154685 85.6548571,53.3505591 C85.6617143,53.3539877 85.6674286,53.3591305 85.6742857,53.3625591 C85.678961,53.3643413 85.68373,53.3658674 85.6885714,53.3671305 C85.9932884,53.5066306 86.159329,53.8398766 86.087183,54.1671496 C86.015037,54.4944226 85.7242701,54.7269672 85.3891429,54.725424 L85.3891429,54.725424 Z M93.8902857,41.7391305 C93.4957966,41.7391305 93.176,41.4193339 93.176,41.0248448 C93.176,40.6303557 93.4957966,40.3105591 93.8902857,40.3105591 C94.2847748,40.3105591 94.6045714,40.6303557 94.6045714,41.0248448 C94.6039422,41.419073 94.2845139,41.7385013 93.8902857,41.7391305 L93.8902857,41.7391305 Z M105.818857,32.643702 C105.424368,32.643702 105.104571,32.3239054 105.104571,31.9294162 C105.104571,31.5349271 105.424368,31.2151305 105.818857,31.2151305 C106.213346,31.2151305 106.533143,31.5349271 106.533143,31.9294162 C106.532514,32.3236444 106.213085,32.6430727 105.818857,32.643702 L105.818857,32.643702 Z" id="Shape"></path>
                </g>
            </g>
        </g>
    </g>
</svg>