<?xml version="1.0" encoding="UTF-8"?>
<svg width="70px" height="64px" viewBox="0 0 70 64" version="1.1" xmlns="http://www.w3.org/2000/svg" xmlns:xlink="http://www.w3.org/1999/xlink">
    <title>Shape</title>
    <g id="Page-1" stroke="none" stroke-width="1" fill="none" fill-rule="evenodd">
        <g id="Homepage-Final" transform="translate(-1213.000000, -2905.000000)" fill="#FFFFFF" fill-rule="nonzero">
            <g id="PRODUCTS" transform="translate(0.000000, 2593.000000)">
                <g id="row-1" transform="translate(102.000000, 287.000000)">
                    <g id="p-box-6" transform="translate(1044.000000, 0.000000)">
                        <path d="M133.167909,51.4198025 C133.164203,51.3753379 133.164203,51.3308733 133.167909,51.2882613 L135.965475,46.6417076 L136.078489,46.3600983 C136.295254,45.3466753 135.935832,44.3073147 135.139174,43.6440506 C134.335105,42.9789339 133.247574,42.8158969 132.29529,43.2160786 L123.430155,46.9251697 C122.046193,47.2012209 120.93643,47.2290113 119.861869,47.0215097 L118.21853,46.7102573 L118.21853,48.1868535 L117.181022,48.1868535 L117.181022,46.4953449 L116.456619,46.3323079 C114.70953,45.9432424 112.834605,45.5337973 110.885572,45.1280576 L109.768398,44.8946183 L109.768398,48.1831481 L108.73089,48.1831481 L108.73089,44.6797059 L107.963875,44.546312 C106.18529,44.2350596 104.288132,43.9108384 102.353921,43.6848099 L101.320118,43.5662375 L101.320118,48.1831481 L100.280758,48.1831481 L100.280758,43.4476652 L99.422961,43.3846736 C97.3090384,43.2309001 95.4878413,43.1160331 93.7444574,43.2179313 L92.8699863,43.267954 L92.8699863,48.1812954 L91.8139514,48.1812954 L91.8139514,43.2142259 L90.869078,43.2327528 C88.9496883,43.2716593 87.0821739,43.3476198 85.2720929,43.4569286 L84.4013273,43.508804 L84.4013273,48.1794427 L83.3638193,48.1794427 L83.3638193,43.5588267 L82.376334,43.623671 C80.4365646,43.7533595 78.5727556,43.9404815 76.7830543,44.1257508 L75.9530479,44.2109746 L75.9530479,48.1794427 L74.9155399,48.1794427 L74.9155399,44.3369577 L73.8613577,44.4833205 C66.1689769,45.5560296 57,47.6495726 57,51.5328168 C57,55.416061 66.1689769,57.5096039 73.8613577,58.5823131 L74.9155399,58.7286758 L74.9155399,54.8861908 L75.9530479,54.8861908 L75.9530479,58.8546589 L76.7830543,58.9398828 C76.8441932,58.9454409 76.9090374,58.9528517 76.972029,58.9584097 C76.5570258,59.5160703 76.3050595,60.1997139 76.3050595,60.9463492 C76.3050595,62.4711154 77.3370094,63.7476208 78.7339399,64.1533605 L78.7339399,75.9161074 C78.7339399,77.2889528 75.2379084,77.6761656 73.8669157,76.8832131 C73.2833175,76.5441703 73.2147679,76.1680736 73.2147679,75.9161074 L73.2147679,71.901322 L71.362075,71.901322 L71.362075,75.9161074 C71.362075,76.9851112 71.9215882,77.8984888 72.9387166,78.4876451 C73.720553,78.9397022 74.7617664,79.187963 75.8715294,79.187963 C77.3110717,79.187963 78.7561722,78.759991 79.6602863,77.9355426 C80.5644004,78.759991 82.0095008,79.187963 83.4490432,79.187963 C84.5588062,79.187963 85.6000196,78.9397022 86.381856,78.4876451 C87.3989843,77.9003415 87.9584976,76.9851112 87.9584976,75.9161074 L87.9584976,71.901322 L86.1058047,71.901322 L86.1058047,75.9161074 C86.1058047,76.1699263 86.0391078,76.546023 85.4536568,76.8832131 C84.0826641,77.6761656 80.5866327,77.2889528 80.5866327,75.9161074 L80.5866327,64.1533605 C81.9835631,63.7476208 83.0136604,62.4729681 83.0136604,60.9463492 C83.0136604,60.4109209 82.8765611,59.9106939 82.6505326,59.4604895 L83.365672,59.5068068 L83.365672,54.8861908 L84.40318,54.8861908 L84.40318,59.5568295 L85.277651,59.6124103 C87.0877319,59.7235719 88.9533936,59.7995323 90.8746361,59.8365861 L91.8195095,59.8551131 L91.8195095,54.8880435 L92.8755444,54.8880435 L92.8755444,59.801385 L93.7500154,59.8514077 C94.0816475,59.8717873 94.4318064,59.8717873 94.7671438,59.8717873 C96.1937173,59.8717873 97.7184835,59.8106484 99.4303717,59.6846653 L100.288169,59.6216738 L100.288169,54.8861908 L101.327529,54.8861908 L101.327529,59.5031014 L102.361332,59.3845291 C104.295543,59.1585006 106.192701,58.8342793 107.971286,58.5230269 L108.738301,58.389633 L108.738301,54.8861908 L109.775809,54.8861908 L109.775809,58.1747207 L110.29271,58.0672645 C110.19637,58.3803696 110.129673,58.7045908 110.129673,59.0491917 C110.129673,60.5739579 111.15977,61.852316 112.556701,62.256203 L112.556701,74.0170972 C112.556701,75.3899427 109.062522,75.7753028 107.689676,74.9842029 C107.106078,74.6451601 107.037529,74.2690635 107.037529,74.0170972 L107.037529,70.0041645 L105.184836,70.0041645 L105.184836,74.0170972 C105.184836,75.086101 105.744349,75.9994786 106.761477,76.5886349 C107.543314,77.040692 108.584527,77.2889528 109.69429,77.2889528 C111.133832,77.2889528 112.578933,76.8609808 113.483047,76.0365325 C114.387161,76.8609808 115.832262,77.2889528 117.271804,77.2889528 C118.381567,77.2889528 119.42278,77.040692 120.204617,76.5886349 C121.221745,76.0013313 121.781258,75.086101 121.781258,74.0170972 L121.781258,70.0041645 L119.928565,70.0041645 L119.928565,74.0170972 C119.928565,74.2709162 119.861869,74.6470128 119.276418,74.9842029 C117.903572,75.7771555 114.409393,75.3899427 114.409393,74.0170972 L114.409393,62.256203 C115.806324,61.8504633 116.836421,60.5739579 116.836421,59.0491917 C116.836421,58.2006584 116.508494,57.4336435 115.987888,56.8426345 C116.143514,56.8074333 116.312109,56.7722322 116.465883,56.737031 L117.190285,56.573994 L117.190285,54.8861908 L118.227793,54.8861908 L118.227793,56.362787 L119.843342,56.0570927 C121.633043,55.7273134 123.209684,56.0959993 124.740009,56.4591271 L125.303227,56.5758467 L132.302701,59.5031014 C132.647302,59.6476115 133.01043,59.7180138 133.369852,59.7180138 C134.005326,59.7180138 134.635241,59.4975434 135.144732,59.071424 C135.945095,58.4063073 136.30637,57.3650939 136.0859,56.357229 L133.167909,51.4198025 Z M77.8131515,45.8876617 C79.0136965,45.7653839 80.2494426,45.6449589 81.5185372,45.5467662 L81.5185372,57.5244255 C80.2494426,57.4262327 79.0136965,57.3076604 77.8131515,57.18353 L77.8131515,45.8876617 Z M73.0702578,56.598079 C61.861466,54.921392 58.8601036,52.5703248 58.8601036,51.5365222 C58.8601036,50.5027196 61.8633187,48.1516523 73.0702578,46.4749653 L73.0702578,48.1850008 L73.0702578,54.8898962 L73.0702578,56.598079 Z M74.9229507,53.0372034 L74.9229507,50.0376936 L75.9604587,50.0376936 L75.9604587,53.0372034 L74.9229507,53.0372034 Z M79.6658444,62.4488831 C78.8376907,62.4488831 78.1633105,61.7763556 78.1633105,60.9482019 C78.1633105,60.1200482 78.835838,59.445668 79.6658444,59.445668 C80.4921454,59.445668 81.1665256,60.1181955 81.1665256,60.9482019 C81.1646729,61.7745029 80.4921454,62.4488831 79.6658444,62.4488831 Z M83.3712301,53.0372034 L83.3712301,50.0376936 L84.4087381,50.0376936 L84.4087381,53.0372034 L83.3712301,53.0372034 Z M89.9649639,57.9635137 C88.7051328,57.9301652 87.4693867,57.8801425 86.2595782,57.8152982 L86.2595782,45.2595988 C87.4693867,45.1947545 88.7051328,45.1428791 89.9649639,45.1113834 L89.9649639,57.9635137 Z M91.8176568,53.0372034 L91.8176568,50.0376936 L92.8736917,50.0376936 L92.8736917,53.0372034 L91.8176568,53.0372034 Z M98.4317703,57.8986694 C97.094126,57.9838933 95.912108,58.0302106 94.7263846,58.0209472 L94.7263846,45.0520972 C95.9269295,45.059508 97.094126,45.0910037 98.4317703,45.1743749 L98.4317703,57.8986694 Z M100.284463,53.0372034 L100.284463,50.0376936 L101.323824,50.0376936 L101.323824,53.0372034 L100.284463,53.0372034 Z M111.624796,47.1771359 C112.903154,47.447629 114.142606,47.7181222 115.330182,47.9830573 L115.330182,55.0936924 C114.142606,55.3586275 112.903154,55.627268 111.624796,55.8996138 L111.624796,47.1771359 Z M106.881902,56.833371 C105.68321,57.0408726 104.438201,57.2465215 103.176517,57.4151166 L103.176517,45.6542224 C104.438201,45.8246701 105.68321,46.0284663 106.881902,46.2359679 L106.881902,56.833371 Z M108.734595,53.0372034 L108.734595,50.0376936 L109.772103,50.0376936 L109.772103,53.0372034 L108.734595,53.0372034 Z M113.477489,60.5535783 C112.651188,60.5535783 111.976808,59.8810508 111.976808,59.0510444 C111.976808,58.2247434 112.649335,57.5503632 113.477489,57.5503632 C114.305643,57.5503632 114.97817,58.2228907 114.97817,59.0510444 C114.976317,59.8810508 114.30379,60.5535783 113.477489,60.5535783 Z M117.182875,53.0372034 L117.182875,50.0376936 L118.220383,50.0376936 L118.220383,53.0372034 L117.182875,53.0372034 Z M133.949745,57.6504086 C133.681105,57.8727317 133.329093,57.9264598 133.006724,57.7967713 L125.851625,54.8194939 L125.156865,54.6583096 C123.985963,54.3822584 122.705752,54.0784168 121.26621,54.0784168 C120.878997,54.0784168 120.480668,54.1006491 120.06937,54.1506718 L120.06937,48.9279306 C121.568199,49.1150526 122.909548,48.9131091 123.96373,48.6870806 L133.008577,44.9242614 C133.32724,44.7871621 133.68481,44.8445956 133.95345,45.0669187 C134.07017,45.1651114 134.320284,45.4226358 134.285082,45.8394916 L131.487516,50.4860453 L131.376355,50.7676546 C131.291131,51.1530147 131.291131,51.5476383 131.374502,51.9367038 L134.28323,56.8796884 C134.307315,57.1724138 134.18689,57.4521704 133.949745,57.6504086 Z M68.64788,49.0687353 C67.2435388,49.0687353 66.1004273,50.2118468 66.1004273,51.616188 C66.1004273,53.0205291 67.2435388,54.1636406 68.64788,54.1636406 C70.0522212,54.1636406 71.1953326,53.0205291 71.1953326,51.616188 C71.1953326,50.2118468 70.0540738,49.0687353 68.64788,49.0687353 Z M68.64788,52.3109478 C68.2643725,52.3109478 67.9531201,51.9996954 67.9531201,51.616188 C67.9531201,51.2326805 68.2643725,50.9214281 68.64788,50.9214281 C69.0313874,50.9214281 69.3426398,51.2326805 69.3426398,51.616188 C69.3426398,51.9996954 69.0313874,52.3109478 68.64788,52.3109478 Z" id="Shape" transform="translate(96.574786, 61.093981) rotate(45.000000) translate(-96.574786, -61.093981) "></path>
                    </g>
                </g>
            </g>
        </g>
    </g>
</svg>