<?xml version="1.0" encoding="UTF-8"?>
<svg width="61px" height="60px" viewBox="0 0 61 60" version="1.1" xmlns="http://www.w3.org/2000/svg" xmlns:xlink="http://www.w3.org/1999/xlink">
    <title>fishing-baits</title>
    <g id="Page-1" stroke="none" stroke-width="1" fill="none" fill-rule="evenodd">
        <g id="Homepage-Final" transform="translate(-586.000000, -2906.000000)" fill="#FFFFFF" fill-rule="nonzero">
            <g id="PRODUCTS" transform="translate(0.000000, 2593.000000)">
                <g id="row-1" transform="translate(102.000000, 287.000000)">
                    <g id="p-box-3" transform="translate(417.600000, 0.000000)">
                        <g id="fishing-baits" transform="translate(67.000000, 26.000000)">
                            <path d="M56.1290323,-2.06286601e-14 C53.9941935,-2.06286601e-14 52.2580645,1.73612903 52.2580645,3.87096774 C52.2580645,4.88612903 52.2987097,5.63419355 52.44,6.19064516 L52.0180645,6.61258065 C51.2535484,6.10548387 50.3390323,5.80645161 49.3548387,5.80645161 C46.8841935,5.80645161 44.8635484,7.67419355 44.5741935,10.0683871 L43.3819355,8.87612903 C42.6512903,8.14548387 41.6787097,7.74193548 40.6451613,7.74193548 C39.6116129,7.74193548 38.6390323,8.14548387 37.9083871,8.87612903 C37.1767742,9.60677419 36.7741935,10.5793548 36.7741935,11.6129032 C36.7741935,12.6464516 37.1767742,13.6190323 37.9083871,14.3496774 L41.0951613,17.5364516 L39.3106452,19.3209677 L31.7690323,11.7793548 C31.0383871,11.0487097 30.0658065,10.6451613 29.0322581,10.6451613 C27.9987097,10.6451613 27.026129,11.0487097 26.2954839,11.7793548 C25.563871,12.51 25.1612903,13.4825806 25.1612903,14.516129 C25.1612903,15.5496774 25.563871,16.5222581 26.2954839,17.2529032 L33.8370968,24.7945161 L32.0525806,26.5790323 L22.0916129,16.6180645 C21.3609677,15.8874194 20.3883871,15.483871 19.3548387,15.483871 C18.3212903,15.483871 17.3487097,15.8874194 16.6180645,16.6180645 C15.8864516,17.3487097 15.483871,18.3212903 15.483871,19.3548387 C15.483871,20.3883871 15.8864516,21.3609677 16.6180645,22.0916129 L26.5790323,32.0525806 L24.7945161,33.8370968 L17.2529032,26.2954839 C16.5222581,25.5648387 15.5496774,25.1612903 14.516129,25.1612903 C13.4825806,25.1612903 12.51,25.5648387 11.7793548,26.2954839 C11.0477419,27.026129 10.6451613,27.9987097 10.6451613,29.0322581 C10.6451613,30.0658065 11.0477419,31.0374194 11.7793548,31.7690323 L19.3209677,39.3106452 L17.5364516,41.0951613 L14.3496774,37.9083871 C12.8864516,36.4451613 10.3383871,36.4451613 8.87612903,37.9083871 C8.14451613,38.64 7.74193548,39.6116129 7.74193548,40.6451613 C7.74193548,41.6787097 8.14451613,42.6503226 8.87612903,43.3819355 L10.0683871,44.5741935 C7.67419355,44.8635484 5.80645161,46.8841935 5.80645161,49.3548387 C5.80645161,50.3390323 6.10548387,51.2535484 6.61258065,52.0190323 L6.19064516,52.4409677 C5.63419355,52.2987097 4.88612903,52.2580645 3.87096774,52.2580645 C1.73612903,52.2580645 -3.43811001e-15,53.9941935 -3.43811001e-15,56.1290323 C-3.43811001e-15,58.263871 1.73612903,60 3.87096774,60 C6.00580645,60 7.74193548,58.263871 7.74193548,56.1290323 C7.74193548,55.113871 7.70129032,54.3658065 7.56,53.8093548 L7.98193548,53.3874194 C8.74645161,53.8945161 9.66096774,54.1935484 10.6451613,54.1935484 C13.1158065,54.1935484 15.1364516,52.3258065 15.4258065,49.9316129 L16.6180645,51.123871 C17.3496774,51.8554839 18.3212903,52.2580645 19.3548387,52.2580645 C20.3883871,52.2580645 21.36,51.8554839 22.0916129,51.123871 C22.8232258,50.3922581 23.2258065,49.4206452 23.2258065,48.3870968 C23.2258065,47.3535484 22.8232258,46.3819355 22.0916129,45.6503226 L18.9048387,42.4635484 L20.6893548,40.6790323 L28.2309677,48.2206452 C28.9625806,48.9522581 29.9341935,49.3548387 30.9677419,49.3548387 C32.0012903,49.3548387 32.9729032,48.9522581 33.7045161,48.2206452 C34.436129,47.4890323 34.8387097,46.5174194 34.8387097,45.483871 C34.8387097,44.4503226 34.436129,43.4787097 33.7045161,42.7470968 L26.1629032,35.2054839 L27.9474194,33.4209677 L37.9083871,43.3819355 C38.64,44.1135484 39.6116129,44.516129 40.6451613,44.516129 C41.6787097,44.516129 42.6503226,44.1135484 43.3819355,43.3819355 C44.1135484,42.6503226 44.516129,41.6787097 44.516129,40.6451613 C44.516129,39.6116129 44.1135484,38.64 43.3819355,37.9083871 L33.4209677,27.9474194 L35.2054839,26.1629032 L42.7470968,33.7045161 C43.4787097,34.436129 44.4503226,34.8387097 45.483871,34.8387097 C46.5174194,34.8387097 47.4890323,34.436129 48.2206452,33.7045161 C48.9522581,32.9729032 49.3548387,32.0012903 49.3548387,30.9677419 C49.3548387,29.9341935 48.9522581,28.9616129 48.2206452,28.2309677 L40.6790323,20.6893548 L42.4635484,18.9048387 L45.6503226,22.0916129 C46.3809677,22.8222581 47.3535484,23.2258065 48.3870968,23.2258065 C49.4206452,23.2258065 50.3932258,22.8222581 51.123871,22.0916129 C51.8554839,21.3609677 52.2580645,20.3883871 52.2580645,19.3548387 C52.2580645,18.3212903 51.8554839,17.3487097 51.123871,16.6180645 L49.9316129,15.4258065 C52.3258065,15.1364516 54.1935484,13.1158065 54.1935484,10.6451613 C54.1935484,9.66096774 53.8945161,8.74645161 53.3874194,7.98096774 L53.8093548,7.55903226 C54.3667742,7.70129032 55.113871,7.74193548 56.1290323,7.74193548 C58.263871,7.74193548 60,6.00580645 60,3.87096774 C60,1.73612903 58.263871,-2.06286601e-14 56.1290323,-2.06286601e-14 L56.1290323,-2.06286601e-14 Z M5.80645161,56.1290323 C5.80645161,57.1964516 4.9383871,58.0645161 3.87096774,58.0645161 C2.80354839,58.0645161 1.93548387,57.1964516 1.93548387,56.1290323 C1.93548387,55.0616129 2.80354839,54.1935484 3.87096774,54.1935484 C4.0616129,54.1935484 4.25322581,54.1935484 4.43709677,54.1945161 L3.18677419,55.4448387 L4.55516129,56.8132258 L5.80548387,55.5629032 C5.80645161,55.7477419 5.80645161,55.9393548 5.80645161,56.1290323 Z M10.6451613,52.2580645 C9.04451613,52.2580645 7.74193548,50.9554839 7.74193548,49.3548387 C7.74193548,47.7541935 9.04451613,46.4516129 10.6451613,46.4516129 C12.2458065,46.4516129 13.5483871,47.7541935 13.5483871,49.3548387 C13.5483871,50.9554839 12.2458065,52.2580645 10.6451613,52.2580645 Z M21.2903226,48.3870968 C21.2903226,48.903871 21.0890323,49.3896774 20.7232258,49.7554839 C19.9916129,50.4870968 18.7180645,50.4870968 17.9864516,49.7554839 L10.2445161,42.0135484 C9.87870968,41.6477419 9.67741935,41.1619355 9.67741935,40.6451613 C9.67741935,40.1283871 9.87870968,39.6425806 10.2445161,39.2767742 C10.6103226,38.9109677 11.096129,38.7096774 11.6129032,38.7096774 C12.1296774,38.7096774 12.6154839,38.9109677 12.9812903,39.2767742 L20.7232258,47.0187097 C21.0890323,47.3845161 21.2903226,47.8703226 21.2903226,48.3870968 Z M32.9032258,45.483871 C32.9032258,46.0006452 32.7019355,46.4864516 32.336129,46.8522581 C31.6045161,47.583871 30.3309677,47.583871 29.5993548,46.8522581 L13.1477419,30.4006452 C12.7819355,30.0348387 12.5806452,29.5490323 12.5806452,29.0322581 C12.5806452,28.5154839 12.7819355,28.0296774 13.1477419,27.663871 C13.5135484,27.2980645 13.9993548,27.0967742 14.516129,27.0967742 C15.0329032,27.0967742 15.5187097,27.2980645 15.8845161,27.663871 L32.336129,44.1154839 C32.7019355,44.4812903 32.9032258,44.9670968 32.9032258,45.483871 Z M42.5806452,40.6451613 C42.5806452,41.1619355 42.3793548,41.6477419 42.0135484,42.0135484 C41.2819355,42.7451613 40.0083871,42.7451613 39.2767742,42.0135484 L17.9864516,20.7232258 C17.6206452,20.3574194 17.4193548,19.8716129 17.4193548,19.3548387 C17.4193548,18.8380645 17.6206452,18.3522581 17.9864516,17.9864516 C18.3522581,17.6206452 18.8380645,17.4193548 19.3548387,17.4193548 C19.8716129,17.4193548 20.3574194,17.6206452 20.7232258,17.9864516 L42.0135484,39.2767742 C42.3793548,39.6425806 42.5806452,40.1283871 42.5806452,40.6451613 Z M47.4193548,30.9677419 C47.4193548,31.4845161 47.2180645,31.9703226 46.8522581,32.336129 C46.1206452,33.0677419 44.8470968,33.0677419 44.1154839,32.336129 L27.663871,15.8845161 C27.2980645,15.5187097 27.0967742,15.0329032 27.0967742,14.516129 C27.0967742,13.9993548 27.2980645,13.5135484 27.663871,13.1477419 C28.0296774,12.7819355 28.5154839,12.5806452 29.0322581,12.5806452 C29.5490323,12.5806452 30.0348387,12.7819355 30.4006452,13.1477419 L46.8522581,29.5993548 C47.2180645,29.9651613 47.4193548,30.4509677 47.4193548,30.9677419 Z M49.7554839,20.7232258 C49.023871,21.4548387 47.7503226,21.4548387 47.0187097,20.7232258 L39.2767742,12.9812903 C38.9109677,12.6154839 38.7096774,12.1296774 38.7096774,11.6129032 C38.7096774,11.096129 38.9109677,10.6103226 39.2767742,10.2445161 C39.6425806,9.87870968 40.1283871,9.67741935 40.6451613,9.67741935 C41.1619355,9.67741935 41.6477419,9.87870968 42.0135484,10.2445161 L49.7554839,17.9864516 C50.1212903,18.3522581 50.3225806,18.8380645 50.3225806,19.3548387 C50.3225806,19.8716129 50.1212903,20.3574194 49.7554839,20.7232258 L49.7554839,20.7232258 Z M49.3548387,13.5483871 C47.7541935,13.5483871 46.4516129,12.2458065 46.4516129,10.6451613 C46.4516129,9.04451613 47.7541935,7.74193548 49.3548387,7.74193548 C50.9554839,7.74193548 52.2580645,9.04451613 52.2580645,10.6451613 C52.2580645,12.2458065 50.9554839,13.5483871 49.3548387,13.5483871 Z M56.1290323,5.80645161 C55.9383871,5.80645161 55.7467742,5.80645161 55.5629032,5.80548387 L56.8132258,4.55516129 L55.4448387,3.18677419 L54.1945161,4.43709677 C54.1935484,4.25225806 54.1935484,4.06064516 54.1935484,3.87096774 C54.1935484,2.80354839 55.0616129,1.93548387 56.1290323,1.93548387 C57.1964516,1.93548387 58.0645161,2.80354839 58.0645161,3.87096774 C58.0645161,4.9383871 57.1964516,5.80645161 56.1290323,5.80645161 Z" id="Shape"></path>
                        </g>
                    </g>
                </g>
            </g>
        </g>
    </g>
</svg>