<?xml version="1.0" encoding="UTF-8"?>
<svg width="36px" height="70px" viewBox="0 0 36 70" version="1.1" xmlns="http://www.w3.org/2000/svg" xmlns:xlink="http://www.w3.org/1999/xlink">
    <title>weights</title>
    <g id="Page-1" stroke="none" stroke-width="1" fill="none" fill-rule="evenodd">
        <g id="Homepage-Final" transform="translate(-1017.000000, -2903.000000)" fill="#FFFFFF" fill-rule="nonzero">
            <g id="PRODUCTS" transform="translate(0.000000, 2593.000000)">
                <g id="row-1" transform="translate(102.000000, 287.000000)">
                    <g id="p-box-5" transform="translate(835.200000, 0.000000)">
                        <g id="weights" transform="translate(80.000000, 23.000000)">
                            <path d="M0,23.3333333 C0.00645172357,29.8195496 3.5977983,35.7708598 9.33333333,38.7998333 L9.33333333,52.5 C9.33333333,53.1443322 9.85566779,53.6666667 10.5,53.6666667 L16.3333333,53.6666667 L16.3333333,58.3333333 L17.5,58.3333333 C20.0773288,58.3333333 22.1666667,60.4226712 22.1666667,63 C22.1666667,65.5773288 20.0773288,67.6666667 17.5,67.6666667 C14.9226712,67.6666667 12.8333333,65.5773288 12.8333333,63 C12.8333333,62.3556678 12.3109989,61.8333333 11.6666667,61.8333333 C11.0223345,61.8333333 10.5,62.3556678 10.5,63 C10.5005696,66.7141395 13.4018286,69.7812434 17.1102052,69.9880651 C20.8185818,70.1948868 24.0429013,67.4694156 24.456469,63.7783732 C24.8700368,60.0873308 22.3288576,56.7158566 18.6666667,56.0968333 L18.6666667,53.6666667 L24.5,53.6666667 C25.1443322,53.6666667 25.6666667,53.1443322 25.6666667,52.5 L25.6666667,38.7998333 C30.7327386,36.1369679 34.1714852,31.1596623 34.8697388,25.4791361 C35.5679925,19.7986098 33.437028,14.136672 29.1666667,10.3261667 L29.1666667,6.31633333 L31.1581667,4.32483333 C31.3769743,4.10609181 31.4999339,3.80939395 31.5,3.5 L31.5,1.16666667 C31.5,0.522334459 30.9776655,0 30.3333333,0 L4.66666667,0 C4.02233446,0 3.5,0.522334459 3.5,1.16666667 L3.5,3.5 C3.50006608,3.80939395 3.62302573,4.10609181 3.84183333,4.32483333 L5.83333333,6.31633333 L5.83333333,10.3261667 C2.12469975,13.6329043 0.00267998831,18.364584 0,23.3333333 Z M23.3333333,51.3333333 L11.6666667,51.3333333 L11.6666667,39.8125 C15.4364546,41.1736322 19.5635454,41.1736322 23.3333333,39.8125 L23.3333333,51.3333333 Z M5.83333333,2.33333333 L29.1666667,2.33333333 L29.1666667,3.017 L27.1751667,5.0085 C26.9563591,5.22724152 26.8333994,5.52393938 26.8333333,5.83333333 L26.8333333,8.55516667 C21.1402594,4.92612924 13.8597406,4.92612924 8.16666667,8.55516667 L8.16666667,5.83333333 C8.16660059,5.52393938 8.04364094,5.22724152 7.82483333,5.0085 L5.83333333,3.017 L5.83333333,2.33333333 Z M17.5,8.16666667 C25.8763187,8.16666667 32.6666667,14.9570146 32.6666667,23.3333333 C32.6666667,31.709652 25.8763187,38.5 17.5,38.5 C9.12368129,38.5 2.33333333,31.709652 2.33333333,23.3333333 C2.34297702,14.9610124 9.12767909,8.17631036 17.5,8.16666667 Z" id="Shape"></path>
                            <path d="M17.5,36.1666667 C24.5876543,36.1666667 30.3333333,30.4209876 30.3333333,23.3333333 C30.3333333,16.245679 24.5876543,10.5 17.5,10.5 C10.4123457,10.5 4.66666667,16.245679 4.66666667,23.3333333 C4.67502408,30.417523 10.4158104,36.1583092 17.5,36.1666667 Z M7.7665,19.4133333 L9.8525,20.804 L11.1475,18.8626667 L8.88183333,17.3518333 C9.33254078,16.7071073 9.85419571,16.1150113 10.437,15.5866667 L12.0085,17.1581667 L13.6581667,15.5085 L12.3456667,14.196 C15.5417443,12.3792004 19.4582557,12.3792004 22.6543333,14.196 L21.3418333,15.5085 L22.9915,17.1581667 L24.563,15.5866667 C25.1458043,16.1150113 25.6674592,16.7071073 26.1181667,17.3518333 L23.8525,18.8626667 L25.1475,20.804 L27.2335,19.4133333 C27.5913184,20.2948891 27.8268359,21.2212581 27.9335,22.1666667 L25.6666667,22.1666667 L25.6666667,24.5 L27.9311667,24.5 C27.8245026,25.4454086 27.5889851,26.3717776 27.2311667,27.2533333 L25.1451667,25.8626667 L23.8501667,27.804 L26.1158333,29.3148333 C25.6651259,29.9595594 25.143471,30.5516554 24.5606667,31.08 L22.9891667,29.5085 L21.3395,31.1581667 L22.652,32.4706667 C21.4249515,33.1675399 20.0690586,33.6077288 18.6666667,33.7645 L18.6666667,31.5 L16.3333333,31.5 L16.3333333,33.7645 C14.9301391,33.6080379 13.5734226,33.1678393 12.3456667,32.4706667 L13.6581667,31.1581667 L12.0085,29.5085 L10.437,31.08 C9.85419571,30.5516554 9.33254078,29.9595594 8.88183333,29.3148333 L11.1475,27.804 L9.8525,25.8626667 L7.7665,27.2533333 C7.40868161,26.3717776 7.17316407,25.4454086 7.0665,24.5 L9.33333333,24.5 L9.33333333,22.1666667 L7.06883333,22.1666667 C7.17474932,21.2213693 7.40948091,20.2950038 7.7665,19.4133333 L7.7665,19.4133333 Z" id="Shape"></path>
                            <path d="M17.5,26.8333397 C19.2026768,26.8365596 20.6594278,25.6112639 20.9479519,23.9332077 C21.236476,22.2551515 20.2726387,20.6136611 18.6666667,20.048 L18.6666667,15.1666667 L16.3333333,15.1666667 L16.3333333,20.048 C14.7273613,20.6136611 13.763524,22.2551515 14.0520481,23.9332077 C14.3405722,25.6112639 15.7973232,26.8365596 17.5,26.8333397 Z M17.5,22.1666667 C18.1443322,22.1666667 18.6666667,22.6890011 18.6666667,23.3333333 C18.6666667,23.9776655 18.1443322,24.5 17.5,24.5 C16.8556678,24.5 16.3333333,23.9776655 16.3333333,23.3333333 C16.3333333,22.6890011 16.8556678,22.1666667 17.5,22.1666667 Z" id="Shape"></path>
                            <rect id="Rectangle" x="14" y="46.6666667" width="2.33333333" height="2.33333333"></rect>
                            <rect id="Rectangle" x="18.6666667" y="46.6666667" width="2.33333333" height="2.33333333"></rect>
                        </g>
                    </g>
                </g>
            </g>
        </g>
    </g>
</svg>