<?xml version="1.0" encoding="UTF-8"?>
<svg width="50px" height="11px" viewBox="0 0 50 11" version="1.1" xmlns="http://www.w3.org/2000/svg" xmlns:xlink="http://www.w3.org/1999/xlink">
    <title>sea-waves</title>
    <g id="Page-1" stroke="none" stroke-width="1" fill="none" fill-rule="evenodd">
        <g id="Homepage-Final" transform="translate(-695.000000, -1893.000000)" fill="#E3BE39" fill-rule="nonzero">
            <g id="OUR-TEAM" transform="translate(0.000000, 1771.000000)">
                <g id="title" transform="translate(636.000000, 70.000000)">
                    <g id="sea-waves" transform="translate(59.000000, 52.000000)">
                        <path d="M43.2015932,4.67599351 C41.4011669,4.67599351 40.4841041,3.88357427 39.6749524,3.18442137 C38.9443923,2.55303587 38.3672437,2.05431368 37.13399,2.05431368 C35.9007363,2.05431368 35.3235877,2.55303587 34.5929058,3.18442137 C33.7838758,3.88357427 32.866813,4.67599351 31.066265,4.67599351 C29.2657171,4.67599351 28.3487759,3.88357427 27.5396242,3.18442137 C26.8090641,2.55303587 26.2320371,2.05431368 24.9987834,2.05431368 C23.7656514,2.05431368 23.1886244,2.55303587 22.4580643,3.18442137 C21.6490343,3.88357427 20.7319714,4.67599351 18.9314235,4.67599351 C17.1311188,4.67599351 16.2142993,3.88357427 15.4052693,3.18442137 C14.6748308,2.55303587 14.0978038,2.05431368 12.8647934,2.05431368 C11.6316614,2.05431368 11.0546345,2.55303587 10.3240743,3.18442137 C9.51504431,3.88357427 8.59798144,4.67599351 6.79755515,4.67599351 C4.9970072,4.67599351 4.07994433,3.88357427 3.27079268,3.18442137 C2.54023251,2.55303587 1.96320556,2.05431368 0.729951872,2.05431368 C0.32689678,2.05431368 0,1.74579969 0,1.3651536 C0,0.98462237 0.32689678,0.675993512 0.729951872,0.675993512 C2.53037816,0.675993512 3.44744103,1.46841275 4.25659268,2.16756566 C4.98715285,2.79895116 5.56430146,3.29767334 6.79755515,3.29767334 C8.03068718,3.29767334 8.60771413,2.79895116 9.3382743,2.16768052 C10.1473043,1.46841275 11.0643672,0.675993512 12.8647934,0.675993512 C14.6650981,0.675993512 15.5820393,1.46852761 16.3910693,2.16768052 C17.1215078,2.79906602 17.6984131,3.29767334 18.9314235,3.29767334 C20.1646771,3.29767334 20.7417041,2.79895116 21.4722643,2.16768052 C22.2812943,1.46841275 23.1983571,0.675993512 24.9987834,0.675993512 C26.7993314,0.675993512 27.7162726,1.46841275 28.5254242,2.16768052 C29.2559844,2.79895116 29.833133,3.29767334 31.066265,3.29767334 C32.2996404,3.29767334 32.8766673,2.79895116 33.6072275,2.16768052 C34.4163791,1.46841275 35.333442,0.675993512 37.13399,0.675993512 C38.9345379,0.675993512 39.8516008,1.46841275 40.6607524,2.16768052 C41.3913126,2.79895116 41.9683396,3.29767334 43.2015932,3.29767334 C44.4350902,3.29767334 45.0122389,2.79895116 45.7430423,2.16756566 C46.552194,1.46841275 47.4693785,0.675993512 49.2700481,0.675993512 C49.6731032,0.675993512 50,0.98462237 50,1.3651536 C50,1.74579969 49.6731032,2.05431368 49.2700481,2.05431368 C48.0365511,2.05431368 47.4594025,2.55303587 46.728599,3.18442137 C45.9194474,3.88357427 45.0023845,4.67599351 43.2015932,4.67599351 Z" id="Path"></path>
                        <path d="M43.2015932,10.6759935 C41.4011669,10.6759935 40.4841041,9.88357427 39.6749524,9.18442137 C38.9443923,8.55303587 38.3672437,8.05431368 37.13399,8.05431368 C35.9007363,8.05431368 35.3235877,8.55303587 34.5929058,9.18442137 C33.7838758,9.88357427 32.866813,10.6759935 31.066265,10.6759935 C29.2657171,10.6759935 28.3487759,9.88357427 27.5396242,9.18442137 C26.8090641,8.55303587 26.2320371,8.05431368 24.9987834,8.05431368 C23.7656514,8.05431368 23.1886244,8.55303587 22.4580643,9.18442137 C21.6490343,9.88357427 20.7319714,10.6759935 18.9314235,10.6759935 C17.1311188,10.6759935 16.2142993,9.88357427 15.4052693,9.18442137 C14.6748308,8.55303587 14.0978038,8.05431368 12.8647934,8.05431368 C11.6316614,8.05431368 11.0546345,8.55303587 10.3240743,9.18442137 C9.51504431,9.88357427 8.59798144,10.6759935 6.79755515,10.6759935 C4.9970072,10.6759935 4.07994433,9.88357427 3.27079268,9.18442137 C2.54023251,8.55303587 1.96320556,8.05431368 0.729951872,8.05431368 C0.32689678,8.05431368 0,7.74579969 0,7.3651536 C0,6.98462237 0.32689678,6.67599351 0.729951872,6.67599351 C2.53037816,6.67599351 3.44744103,7.46841275 4.25659268,8.16756566 C4.98715285,8.79895116 5.56430146,9.29767334 6.79755515,9.29767334 C8.03068718,9.29767334 8.60771413,8.79895116 9.3382743,8.16768052 C10.1473043,7.46841275 11.0643672,6.67599351 12.8647934,6.67599351 C14.6650981,6.67599351 15.5820393,7.46852761 16.3910693,8.16768052 C17.1215078,8.79906602 17.6984131,9.29767334 18.9314235,9.29767334 C20.1646771,9.29767334 20.7417041,8.79895116 21.4722643,8.16768052 C22.2812943,7.46841275 23.1983571,6.67599351 24.9987834,6.67599351 C26.7993314,6.67599351 27.7162726,7.46841275 28.5254242,8.16768052 C29.2559844,8.79895116 29.833133,9.29767334 31.066265,9.29767334 C32.2996404,9.29767334 32.8766673,8.79895116 33.6072275,8.16768052 C34.4163791,7.46841275 35.333442,6.67599351 37.13399,6.67599351 C38.9345379,6.67599351 39.8516008,7.46841275 40.6607524,8.16768052 C41.3913126,8.79895116 41.9683396,9.29767334 43.2015932,9.29767334 C44.4350902,9.29767334 45.0122389,8.79895116 45.7430423,8.16756566 C46.552194,7.46841275 47.4693785,6.67599351 49.2700481,6.67599351 C49.6731032,6.67599351 50,6.98462237 50,7.3651536 C50,7.74579969 49.6731032,8.05431368 49.2700481,8.05431368 C48.0365511,8.05431368 47.4594025,8.55303587 46.728599,9.18442137 C45.9194474,9.88357427 45.0023845,10.6759935 43.2015932,10.6759935 Z" id="Path"></path>
                    </g>
                </g>
            </g>
        </g>
    </g>
</svg>